<?xml version="1.0" encoding="UTF-8" standalone="no"?>
<!-- Created by diasvg.py -->
<svg width="17.089cm" height="8.269cm" viewBox="1.450 0.900 18.539 9.169"
 xmlns="http://www.w3.org/2000/svg"
 xmlns:xlink="http://www.w3.org/1999/xlink">
<ellipse cx="3.581" cy="4.694" rx="1.000" ry="1.000" fill="#FFFFFF" stroke="none"  /><ellipse cx="3.581" cy="4.694" rx="1.000" ry="1.000" fill="none" stroke="#FF0000"  stroke-width="0.100" /><ellipse cx="2.400" cy="6.650" rx="0.500" ry="0.500" fill="#FFFFFF" stroke="none"  /><ellipse cx="2.400" cy="6.650" rx="0.500" ry="0.500" fill="none" stroke="#FF0000"  stroke-width="0.100" /><line x1="1.950" y1="8.050" x2="1.950" y2="8.550" stroke="#000000" stroke-width="0.100" />
<line x1="1.450" y1="8.550" x2="2.450" y2="8.550" stroke="#000000" stroke-width="0.100" />
<line x1="1.617" y1="8.800" x2="2.282" y2="8.800" stroke="#000000" stroke-width="0.100" />
<line x1="1.785" y1="9.050" x2="2.115" y2="9.050" stroke="#000000" stroke-width="0.100" />
<line x1="3.932" y1="8.050" x2="3.932" y2="8.550" stroke="#000000" stroke-width="0.100" />
<line x1="3.350" y1="8.550" x2="4.515" y2="8.550" stroke="#000000" stroke-width="0.100" />
<line x1="3.545" y1="8.800" x2="4.320" y2="8.800" stroke="#000000" stroke-width="0.100" />
<line x1="3.740" y1="9.050" x2="4.125" y2="9.050" stroke="#000000" stroke-width="0.100" />
<line x1="2.874" y1="5.401" x2="2.400" y2="6.150" stroke="#000000" stroke-width="0.100" />
<line x1="3.933" y1="8.050" x2="2.754" y2="7.004" stroke="#000000" stroke-width="0.100" />
<line x1="1.950" y1="8.050" x2="2.046" y2="7.004" stroke="#000000" stroke-width="0.100" />
<ellipse cx="5.100" cy="1.950" rx="1.000" ry="1.000" fill="#FFFFFF" stroke="none"  /><ellipse cx="5.100" cy="1.950" rx="1.000" ry="1.000" fill="none" stroke="#000000"  stroke-width="0.100" /><polyline fill="none" stroke="#000000" stroke-width="0.100"  points="4.393,2.657 4.287,2.994 4.688,2.894 4.862,3.319 5.100,2.950 5.463,3.369 5.562,2.894 5.987,3.069 5.807,2.657 "/>
<ellipse cx="7.162" cy="4.625" rx="1.000" ry="1.000" fill="#FFFFFF" stroke="none"  /><ellipse cx="7.162" cy="4.625" rx="1.000" ry="1.000" fill="none" stroke="#000000"  stroke-width="0.100" /><path stroke="#000000" fill="none" stroke-width="0.100"  d ="M 7.169,5.156 A 0.605,0.605 0 0,0 8.100,5.344 "/>
<path stroke="#000000" fill="none" stroke-width="0.100"  d ="M 6.206,5.344 A 0.629,0.629 0 0,0 7.156,5.156 "/>
<line x1="4.393" y1="2.657" x2="3.581" y2="3.694" stroke="#000000" stroke-width="0.100" />
<line x1="5.807" y1="2.657" x2="7.162" y2="3.625" stroke="#000000" stroke-width="0.100" />
<ellipse cx="13.708" cy="2.612" rx="1.000" ry="1.000" fill="#FFFFFF" stroke="none"  /><ellipse cx="13.708" cy="2.612" rx="1.000" ry="1.000" fill="none" stroke="#000000"  stroke-width="0.100" /><ellipse cx="11.526" cy="6.719" rx="0.500" ry="0.500" fill="#FFFFFF" stroke="none"  /><ellipse cx="11.526" cy="6.719" rx="0.500" ry="0.500" fill="none" stroke="#FF0000"  stroke-width="0.100" /><line x1="11.076" y1="8.119" x2="11.076" y2="8.619" stroke="#000000" stroke-width="0.100" />
<line x1="10.576" y1="8.619" x2="11.576" y2="8.619" stroke="#000000" stroke-width="0.100" />
<line x1="10.744" y1="8.869" x2="11.409" y2="8.869" stroke="#000000" stroke-width="0.100" />
<line x1="10.911" y1="9.119" x2="11.241" y2="9.119" stroke="#000000" stroke-width="0.100" />
<line x1="13.059" y1="8.119" x2="13.059" y2="8.619" stroke="#000000" stroke-width="0.100" />
<line x1="12.476" y1="8.619" x2="13.641" y2="8.619" stroke="#000000" stroke-width="0.100" />
<line x1="12.672" y1="8.869" x2="13.446" y2="8.869" stroke="#000000" stroke-width="0.100" />
<line x1="12.867" y1="9.119" x2="13.251" y2="9.119" stroke="#000000" stroke-width="0.100" />
<line x1="13.001" y1="3.320" x2="11.526" y2="6.219" stroke="#000000" stroke-width="0.100" />
<line x1="13.059" y1="8.119" x2="11.880" y2="7.072" stroke="#000000" stroke-width="0.100" />
<line x1="11.076" y1="8.119" x2="11.173" y2="7.072" stroke="#000000" stroke-width="0.100" />
<ellipse cx="15.526" cy="4.569" rx="1.000" ry="1.000" fill="#FFFFFF" stroke="none"  /><ellipse cx="15.526" cy="4.569" rx="1.000" ry="1.000" fill="none" stroke="#FF0000"  stroke-width="0.100" /><polyline fill="none" stroke="#FF0000" stroke-width="0.100"  points="14.819,5.276 14.714,5.612 15.114,5.513 15.289,5.938 15.526,5.569 15.889,5.987 15.989,5.513 16.414,5.688 16.233,5.276 "/>
<ellipse cx="17.489" cy="7.694" rx="1.000" ry="1.000" fill="#FFFFFF" stroke="none"  /><ellipse cx="17.489" cy="7.694" rx="1.000" ry="1.000" fill="none" stroke="#000000"  stroke-width="0.100" /><path stroke="#000000" fill="none" stroke-width="0.100"  d ="M 17.495,8.225 A 0.605,0.605 0 0,0 18.426,8.413 "/>
<path stroke="#000000" fill="none" stroke-width="0.100"  d ="M 16.533,8.412 A 0.629,0.629 0 0,0 17.483,8.225 "/>
<line x1="14.819" y1="3.862" x2="14.415" y2="3.320" stroke="#000000" stroke-width="0.100" />
<line x1="16.233" y1="5.276" x2="17.489" y2="6.694" stroke="#000000" stroke-width="0.100" />
<line x1="9.031" y1="3.094" x2="10.481" y2="3.094" stroke="#000099" stroke-width="0.100" />
<polygon fill="#000099" stroke="none" stroke-width="0.100" points="10.481,3.344 10.981,3.094 10.481,2.844 "/>
<polygon fill="none" stroke="#000099" stroke-width="0.100"  points="10.481,3.344 10.981,3.094 10.481,2.844 "/>
<polygon fill="#FFFFFF" stroke="none" stroke-width="0.100" points="5.354,5.994 6.176,7.365 4.531,7.365 "/>
<polygon fill="none" stroke="#000099" stroke-width="0.100"  points="5.354,5.994 6.176,7.365 4.531,7.365 "/>
<polygon fill="none" stroke="#000099" stroke-width="0.010"  points="5.354,5.994 6.176,7.365 4.531,7.365 "/>
<line x1="5.354" y1="5.994" x2="4.288" y2="5.401" stroke="#000099" stroke-width="0.100" />
<polygon fill="#FFFFFF" stroke="none" stroke-width="0.100" points="14.010,6.030 14.832,7.400 13.187,7.400 "/>
<polygon fill="none" stroke="#000099" stroke-width="0.100"  points="14.010,6.030 14.832,7.400 13.187,7.400 "/>
<polygon fill="none" stroke="#000099" stroke-width="0.010"  points="14.010,6.030 14.832,7.400 13.187,7.400 "/>
<line x1="14.010" y1="6.030" x2="14.819" y2="5.276" stroke="#000099" stroke-width="0.100" />
</svg>