<?xml version="1.0" encoding="UTF-8" standalone="no"?>
<!-- Created with Inkscape (http://www.inkscape.org/) -->

<svg
   xmlns:dc="http://purl.org/dc/elements/1.1/"
   xmlns:cc="http://creativecommons.org/ns#"
   xmlns:rdf="http://www.w3.org/1999/02/22-rdf-syntax-ns#"
   xmlns:svg="http://www.w3.org/2000/svg"
   xmlns="http://www.w3.org/2000/svg"
   xmlns:sodipodi="http://sodipodi.sourceforge.net/DTD/sodipodi-0.dtd"
   xmlns:inkscape="http://www.inkscape.org/namespaces/inkscape"
   version="1.1"
   id="svg2"
   xml:space="preserve"
   width="472"
   height="297"
   viewBox="0 0 472 297"
   sodipodi:docname="rb_example1.svg"
   inkscape:version="0.92.4 5da689c313, 2019-01-14"><metadata
     id="metadata8"><rdf:RDF><cc:Work
         rdf:about=""><dc:format>image/svg+xml</dc:format><dc:type
           rdf:resource="http://purl.org/dc/dcmitype/StillImage" /><dc:title></dc:title></cc:Work></rdf:RDF></metadata><defs
     id="defs6"><clipPath
       clipPathUnits="userSpaceOnUse"
       id="clipPath20"><path
         d="m 49.072,171.45 c -11.741,0 -21.26,-9.51 -21.26,-21.26 0,-11.74 9.519,-21.26 21.26,-21.26 11.742,0 21.26,9.52 21.26,21.26 0,11.75 -9.518,21.26 -21.26,21.26 z M 0,222.75 H 354 V 0 H 0 Z"
         id="path18"
         inkscape:connector-curvature="0"
         style="clip-rule:evenodd" /></clipPath><clipPath
       clipPathUnits="userSpaceOnUse"
       id="clipPath30"><path
         d="m 26.372,151.63 c 0,11.75 9.519,21.26 21.26,21.26 11.741,0 21.26,-9.51 21.26,-21.26 0,0 0,0 0,0 0,-11.74 -9.518,-21.26 -21.26,-21.26 -11.741,0 -21.26,9.52 -21.26,21.26 z"
         id="path28"
         inkscape:connector-curvature="0"
         style="clip-rule:evenodd" /></clipPath><linearGradient
       x1="47.632"
       y1="129.62"
       x2="47.632"
       y2="173.64"
       gradientUnits="userSpaceOnUse"
       spreadMethod="pad"
       id="linearGradient36"><stop
         style="stop-opacity:1;stop-color:#000000"
         offset="0"
         id="stop32" /><stop
         style="stop-opacity:1;stop-color:#000000"
         offset="1"
         id="stop34" /></linearGradient><clipPath
       clipPathUnits="userSpaceOnUse"
       id="clipPath54"><path
         d="m 114.83,218.74 c -11.75,0 -21.264,-9.51 -21.264,-21.26 0,-11.74 9.514,-21.26 21.264,-21.26 11.74,0 21.26,9.52 21.26,21.26 0,11.75 -9.52,21.26 -21.26,21.26 z M 0,222.75 H 354 V 0 H 0 Z"
         id="path52"
         inkscape:connector-curvature="0"
         style="clip-rule:evenodd" /></clipPath><clipPath
       clipPathUnits="userSpaceOnUse"
       id="clipPath64"><path
         d="m 92.126,198.92 c 0,11.75 9.514,21.26 21.264,21.26 11.74,0 21.26,-9.51 21.26,-21.26 0,0 0,0 0,0 0,-11.74 -9.52,-21.26 -21.26,-21.26 -11.75,0 -21.264,9.52 -21.264,21.26 z"
         id="path62"
         inkscape:connector-curvature="0"
         style="clip-rule:evenodd" /></clipPath><linearGradient
       x1="113.39"
       y1="176.91"
       x2="113.39"
       y2="220.92999"
       gradientUnits="userSpaceOnUse"
       spreadMethod="pad"
       id="linearGradient70"><stop
         style="stop-opacity:1;stop-color:#000000"
         offset="0"
         id="stop66" /><stop
         style="stop-opacity:1;stop-color:#000000"
         offset="1"
         id="stop68" /></linearGradient><clipPath
       clipPathUnits="userSpaceOnUse"
       id="clipPath94"><path
         d="m 178.05,171.45 c -11.74,0 -21.26,-9.51 -21.26,-21.26 0,-11.74 9.52,-21.26 21.26,-21.26 11.74,0 21.26,9.52 21.26,21.26 0,11.75 -9.52,21.26 -21.26,21.26 z M 0,222.75 H 354 V 0 H 0 Z"
         id="path92"
         inkscape:connector-curvature="0"
         style="clip-rule:evenodd" /></clipPath><clipPath
       clipPathUnits="userSpaceOnUse"
       id="clipPath104"><path
         d="m 155.35,151.63 c 0,11.75 9.52,21.26 21.26,21.26 11.74,0 21.26,-9.51 21.26,-21.26 0,0 0,0 0,0 0,-11.74 -9.52,-21.26 -21.26,-21.26 -11.74,0 -21.26,9.52 -21.26,21.26 z"
         id="path102"
         inkscape:connector-curvature="0"
         style="clip-rule:evenodd" /></clipPath><linearGradient
       x1="176.61"
       y1="129.62"
       x2="176.61"
       y2="173.64"
       gradientUnits="userSpaceOnUse"
       spreadMethod="pad"
       id="linearGradient110"><stop
         style="stop-opacity:1;stop-color:#e10000"
         offset="0"
         id="stop106" /><stop
         style="stop-opacity:1;stop-color:#ff0000"
         offset="1"
         id="stop108" /></linearGradient><clipPath
       clipPathUnits="userSpaceOnUse"
       id="clipPath130"><path
         d="m 114.27,114.76 c -11.74,0 -21.261,-9.52 -21.261,-21.259 0,-11.742 9.521,-21.26 21.261,-21.26 11.74,0 21.26,9.518 21.26,21.26 0,11.739 -9.52,21.259 -21.26,21.259 z M 0,222.75 H 354 V 0 H 0 Z"
         id="path128"
         inkscape:connector-curvature="0"
         style="clip-rule:evenodd" /></clipPath><clipPath
       clipPathUnits="userSpaceOnUse"
       id="clipPath140"><path
         d="m 91.569,94.941 c 0,11.739 9.521,21.259 21.261,21.259 11.74,0 21.26,-9.52 21.26,-21.259 0,0 0,0 0,0 0,-11.742 -9.52,-21.26 -21.26,-21.26 -11.74,0 -21.261,9.518 -21.261,21.26 z"
         id="path138"
         inkscape:connector-curvature="0"
         style="clip-rule:evenodd" /></clipPath><linearGradient
       x1="112.83"
       y1="72.931"
       x2="112.83"
       y2="116.95"
       gradientUnits="userSpaceOnUse"
       spreadMethod="pad"
       id="linearGradient146"><stop
         style="stop-opacity:1;stop-color:#000000"
         offset="0"
         id="stop142" /><stop
         style="stop-opacity:1;stop-color:#000000"
         offset="1"
         id="stop144" /></linearGradient><clipPath
       clipPathUnits="userSpaceOnUse"
       id="clipPath164"><path
         d="m 178.05,65.154 c -11.74,0 -21.26,-9.518 -21.26,-21.259 0,-11.742 9.52,-21.26 21.26,-21.26 11.74,0 21.26,9.518 21.26,21.26 0,11.741 -9.52,21.26 -21.26,21.259 z M 0,222.75 H 354 V 0 H 0 Z"
         id="path162"
         inkscape:connector-curvature="0"
         style="clip-rule:evenodd" /></clipPath><clipPath
       clipPathUnits="userSpaceOnUse"
       id="clipPath174"><path
         d="m 155.35,45.335 c 0,11.741 9.52,21.259 21.26,21.259 11.74,0.001 21.26,-9.518 21.26,-21.259 0,0 0,0 0,0 0,-11.742 -9.52,-21.26 -21.26,-21.26 -11.74,0 -21.26,9.518 -21.26,21.26 z"
         id="path172"
         inkscape:connector-curvature="0"
         style="clip-rule:evenodd" /></clipPath><linearGradient
       x1="176.61"
       y1="23.325001"
       x2="176.61"
       y2="67.344002"
       gradientUnits="userSpaceOnUse"
       spreadMethod="pad"
       id="linearGradient180"><stop
         style="stop-opacity:1;stop-color:#e10000"
         offset="0"
         id="stop176" /><stop
         style="stop-opacity:1;stop-color:#ff0000"
         offset="1"
         id="stop178" /></linearGradient><clipPath
       clipPathUnits="userSpaceOnUse"
       id="clipPath198"><path
         d="m 243.25,114.76 c -11.75,0 -21.26,-9.52 -21.26,-21.259 0,-11.742 9.51,-21.26 21.26,-21.26 11.74,0 21.26,9.518 21.26,21.26 0,11.739 -9.52,21.259 -21.26,21.259 z M 0,222.75 H 354 V 0 H 0 Z"
         id="path196"
         inkscape:connector-curvature="0"
         style="clip-rule:evenodd" /></clipPath><clipPath
       clipPathUnits="userSpaceOnUse"
       id="clipPath208"><path
         d="m 220.55,94.941 c 0,11.739 9.51,21.259 21.26,21.259 11.74,0 21.26,-9.52 21.26,-21.259 0,0 0,0 0,0 0,-11.742 -9.52,-21.26 -21.26,-21.26 -11.75,0 -21.26,9.518 -21.26,21.26 z"
         id="path206"
         inkscape:connector-curvature="0"
         style="clip-rule:evenodd" /></clipPath><linearGradient
       x1="241.81"
       y1="72.931"
       x2="241.81"
       y2="116.95"
       gradientUnits="userSpaceOnUse"
       spreadMethod="pad"
       id="linearGradient214"><stop
         style="stop-opacity:1;stop-color:#000000"
         offset="0"
         id="stop210" /><stop
         style="stop-opacity:1;stop-color:#000000"
         offset="1"
         id="stop212" /></linearGradient><clipPath
       clipPathUnits="userSpaceOnUse"
       id="clipPath232"><path
         d="m 307.02,65.154 c -11.74,0 -21.26,-9.518 -21.26,-21.259 0,-11.742 9.52,-21.26 21.26,-21.26 11.75,0 21.26,9.518 21.26,21.26 0,11.741 -9.51,21.26 -21.26,21.259 z M 0,222.75 H 354 V 0 H 0 Z"
         id="path230"
         inkscape:connector-curvature="0"
         style="clip-rule:evenodd" /></clipPath><clipPath
       clipPathUnits="userSpaceOnUse"
       id="clipPath242"><path
         d="m 284.32,45.335 c 0,11.741 9.52,21.259 21.26,21.259 11.75,0.001 21.26,-9.518 21.26,-21.259 0,0 0,0 0,0 0,-11.742 -9.51,-21.26 -21.26,-21.26 -11.74,0 -21.26,9.518 -21.26,21.26 z"
         id="path240"
         inkscape:connector-curvature="0"
         style="clip-rule:evenodd" /></clipPath><linearGradient
       x1="305.57999"
       y1="23.325001"
       x2="305.57999"
       y2="67.344002"
       gradientUnits="userSpaceOnUse"
       spreadMethod="pad"
       id="linearGradient248"><stop
         style="stop-opacity:1;stop-color:#e10000"
         offset="0"
         id="stop244" /><stop
         style="stop-opacity:1;stop-color:#ff0000"
         offset="1"
         id="stop246" /></linearGradient></defs><sodipodi:namedview
     pagecolor="#ffffff"
     bordercolor="#666666"
     borderopacity="1"
     objecttolerance="10"
     gridtolerance="10"
     guidetolerance="10"
     inkscape:pageopacity="0"
     inkscape:pageshadow="2"
     inkscape:window-width="1920"
     inkscape:window-height="1031"
     id="namedview4"
     showgrid="false"
     inkscape:zoom="0.79461279"
     inkscape:cx="-18.211864"
     inkscape:cy="148.5"
     inkscape:window-x="0"
     inkscape:window-y="24"
     inkscape:window-maximized="0"
     inkscape:current-layer="g10" /><g
     id="g10"
     inkscape:groupmode="layer"
     inkscape:label="rb_example1"
     transform="matrix(1.3333333,0,0,-1.3333333,0,297)"><path
       d="m 27.812,150.19 c 0,11.75 9.519,21.26 21.26,21.26 11.742,0 21.26,-9.51 21.26,-21.26 0,0 0,0 0,0 0,-11.74 -9.518,-21.26 -21.26,-21.26 -11.741,0 -21.26,9.52 -21.26,21.26 z"
       style="fill:#cdcdcd;fill-opacity:0.49803999;fill-rule:evenodd;stroke:none"
       id="path12"
       inkscape:connector-curvature="0" /><g
       id="g14"><g
         id="g16"
         clip-path="url(#clipPath20)"><path
           d="m 27.812,150.19 c 0,11.75 9.519,21.26 21.26,21.26 11.742,0 21.26,-9.51 21.26,-21.26 0,0 0,0 0,0 0,-11.74 -9.518,-21.26 -21.26,-21.26 -11.741,0 -21.26,9.52 -21.26,21.26"
           style="fill:none;stroke:#cdcdcd;stroke-width:2.25;stroke-linecap:round;stroke-linejoin:round;stroke-miterlimit:10;stroke-dasharray:none;stroke-opacity:0.49803999"
           id="path22"
           inkscape:connector-curvature="0" /></g></g><g
       id="g24"><g
         id="g26"
         clip-path="url(#clipPath30)"><path
           d="m 25.622,129.62 h 44.02 v 44.02 h -44.02 z"
           style="fill:url(#linearGradient36);fill-opacity:1;fill-rule:evenodd;stroke:none"
           id="path38"
           inkscape:connector-curvature="0" /></g></g><path
       d="m 26.372,151.63 c 0,11.75 9.519,21.26 21.26,21.26 11.742,0 21.26,-9.51 21.26,-21.26 0,0 0,0 0,0 0,-11.74 -9.518,-21.26 -21.26,-21.26 -11.741,0 -21.26,9.52 -21.26,21.26 z"
       style="fill:none;stroke:#000000;stroke-width:2.25;stroke-linecap:round;stroke-linejoin:round;stroke-miterlimit:10;stroke-dasharray:none;stroke-opacity:1"
       id="path40"
       inkscape:connector-curvature="0" /><text
       transform="matrix(1,0,0,-1,41.55,144.43)"
       style="font-variant:normal;font-weight:normal;font-size:23.99975967px;font-family:CALIBRI;-inkscape-font-specification:CALIBRI;writing-mode:lr-tb;fill:#ffffff;fill-opacity:1;fill-rule:nonzero;stroke:none"
       id="text44"><tspan
         x="0"
         y="0"
         id="tspan42">1</tspan></text>
<path
       d="m 93.566,197.48 c 0,11.75 9.514,21.26 21.264,21.26 11.74,0 21.26,-9.51 21.26,-21.26 0,0 0,0 0,0 0,-11.74 -9.52,-21.26 -21.26,-21.26 -11.75,0 -21.264,9.52 -21.264,21.26 z"
       style="fill:#cdcdcd;fill-opacity:0.49803999;fill-rule:evenodd;stroke:none"
       id="path46"
       inkscape:connector-curvature="0" /><g
       id="g48"><g
         id="g50"
         clip-path="url(#clipPath54)"><path
           d="m 93.566,197.48 c 0,11.75 9.514,21.26 21.264,21.26 11.74,0 21.26,-9.51 21.26,-21.26 0,0 0,0 0,0 0,-11.74 -9.52,-21.26 -21.26,-21.26 -11.75,0 -21.264,9.52 -21.264,21.26"
           style="fill:none;stroke:#cdcdcd;stroke-width:2.25;stroke-linecap:round;stroke-linejoin:round;stroke-miterlimit:10;stroke-dasharray:none;stroke-opacity:0.49803999"
           id="path56"
           inkscape:connector-curvature="0" /></g></g><g
       id="g58"><g
         id="g60"
         clip-path="url(#clipPath64)"><path
           d="m 91.376,176.91 h 44.02 v 44.02 h -44.02 z"
           style="fill:url(#linearGradient70);fill-opacity:1;fill-rule:evenodd;stroke:none"
           id="path72"
           inkscape:connector-curvature="0" /></g></g><path
       d="m 92.126,198.92 c 0,11.75 9.514,21.26 21.264,21.26 11.74,0 21.26,-9.51 21.26,-21.26 0,0 0,0 0,0 0,-11.74 -9.52,-21.26 -21.26,-21.26 -11.75,0 -21.264,9.52 -21.264,21.26 z"
       style="fill:none;stroke:#000000;stroke-width:2.25;stroke-linecap:round;stroke-linejoin:round;stroke-miterlimit:10;stroke-dasharray:none;stroke-opacity:1"
       id="path74"
       inkscape:connector-curvature="0" /><text
       transform="matrix(1,0,0,-1,107.3,191.72)"
       style="font-variant:normal;font-weight:normal;font-size:23.99975967px;font-family:CALIBRI;-inkscape-font-specification:CALIBRI;writing-mode:lr-tb;fill:#ffffff;fill-opacity:1;fill-rule:nonzero;stroke:none"
       id="text78"><tspan
         x="0"
         y="0"
         id="tspan76">2</tspan></text>
<path
       d="M 96.126,186.51 64.892,164.05"
       style="fill:none;stroke:#000000;stroke-width:2.25;stroke-linecap:round;stroke-linejoin:round;stroke-miterlimit:10;stroke-dasharray:none;stroke-opacity:1"
       id="path80"
       inkscape:connector-curvature="0" /><path
       d="M 32.053,137.17 7.947,114.78"
       style="fill:none;stroke:#000000;stroke-width:2.25;stroke-linecap:round;stroke-linejoin:round;stroke-miterlimit:10;stroke-dasharray:none;stroke-opacity:1"
       id="path82"
       inkscape:connector-curvature="0" /><path
       d="m 10.569,117.22 c -1.3448,1.45 -3.6084,1.53 -5.0563,0.19 -1.4478,-1.35 -1.5317,-3.61 -0.1873,-5.06 0,0 0,0 0,0 1.3445,-1.45 3.6081,-1.53 5.0556,-0.19 1.448,1.35 1.532,3.61 0.188,5.06 z"
       style="fill:#000000;fill-opacity:1;fill-rule:evenodd;stroke:none"
       id="path84"
       inkscape:connector-curvature="0" /><path
       d="m 156.79,150.19 c 0,11.75 9.52,21.26 21.26,21.26 11.74,0 21.26,-9.51 21.26,-21.26 0,0 0,0 0,0 0,-11.74 -9.52,-21.26 -21.26,-21.26 -11.74,0 -21.26,9.52 -21.26,21.26 z"
       style="fill:#cdcdcd;fill-opacity:0.49803999;fill-rule:evenodd;stroke:none"
       id="path86"
       inkscape:connector-curvature="0" /><g
       id="g88"><g
         id="g90"
         clip-path="url(#clipPath94)"><path
           d="m 156.79,150.19 c 0,11.75 9.52,21.26 21.26,21.26 11.74,0 21.26,-9.51 21.26,-21.26 0,0 0,0 0,0 0,-11.74 -9.52,-21.26 -21.26,-21.26 -11.74,0 -21.26,9.52 -21.26,21.26"
           style="fill:none;stroke:#cdcdcd;stroke-width:2.25;stroke-linecap:round;stroke-linejoin:round;stroke-miterlimit:10;stroke-dasharray:none;stroke-opacity:0.49803999"
           id="path96"
           inkscape:connector-curvature="0" /></g></g><g
       id="g98"><g
         id="g100"
         clip-path="url(#clipPath104)"><path
           d="m 154.6,129.62 h 44.02 v 44.02 H 154.6 Z"
           style="fill:url(#linearGradient110);fill-opacity:1;fill-rule:evenodd;stroke:none"
           id="path112"
           inkscape:connector-curvature="0" /></g></g><path
       d="m 155.35,151.63 c 0,11.75 9.52,21.26 21.26,21.26 11.74,0 21.26,-9.51 21.26,-21.26 0,0 0,0 0,0 0,-11.74 -9.52,-21.26 -21.26,-21.26 -11.74,0 -21.26,9.52 -21.26,21.26 z"
       style="fill:none;stroke:#000000;stroke-width:2.25;stroke-linecap:round;stroke-linejoin:round;stroke-miterlimit:10;stroke-dasharray:none;stroke-opacity:1"
       id="path114"
       inkscape:connector-curvature="0" /><text
       transform="matrix(1,0,0,-1,170.53,144.43)"
       style="font-variant:normal;font-weight:normal;font-size:23.99975967px;font-family:CALIBRI;-inkscape-font-specification:CALIBRI;writing-mode:lr-tb;fill:#ffffff;fill-opacity:1;fill-rule:nonzero;stroke:none"
       id="text118"><tspan
         x="0"
         y="0"
         id="tspan116">4</tspan></text>
<path
       d="m 159.58,164.37 -29.17,21.82"
       style="fill:none;stroke:#000000;stroke-width:2.25;stroke-linecap:round;stroke-linejoin:round;stroke-miterlimit:10;stroke-dasharray:none;stroke-opacity:1"
       id="path120"
       inkscape:connector-curvature="0" /><path
       d="m 93.009,93.501 c 0,11.739 9.521,21.259 21.261,21.259 11.74,0 21.26,-9.52 21.26,-21.259 0,0 0,0 0,0 0,-11.742 -9.52,-21.26 -21.26,-21.26 -11.74,0 -21.261,9.518 -21.261,21.26 z"
       style="fill:#cdcdcd;fill-opacity:0.49803999;fill-rule:evenodd;stroke:none"
       id="path122"
       inkscape:connector-curvature="0" /><g
       id="g124"><g
         id="g126"
         clip-path="url(#clipPath130)"><path
           d="m 93.009,93.501 c 0,11.739 9.521,21.259 21.261,21.259 11.74,0 21.26,-9.52 21.26,-21.259 0,0 0,0 0,0 0,-11.742 -9.52,-21.26 -21.26,-21.26 -11.74,0 -21.261,9.518 -21.261,21.26"
           style="fill:none;stroke:#cdcdcd;stroke-width:2.25;stroke-linecap:round;stroke-linejoin:round;stroke-miterlimit:10;stroke-dasharray:none;stroke-opacity:0.49803999"
           id="path132"
           inkscape:connector-curvature="0" /></g></g><g
       id="g134"><g
         id="g136"
         clip-path="url(#clipPath140)"><path
           d="m 90.819,72.931 h 44.02 v 44.02 h -44.02 z"
           style="fill:url(#linearGradient146);fill-opacity:1;fill-rule:evenodd;stroke:none"
           id="path148"
           inkscape:connector-curvature="0" /></g></g><path
       d="m 91.569,94.941 c 0,11.739 9.521,21.259 21.261,21.259 11.74,0 21.26,-9.52 21.26,-21.259 0,0 0,0 0,0 0,-11.742 -9.52,-21.26 -21.26,-21.26 -11.74,0 -21.261,9.518 -21.261,21.26 z"
       style="fill:none;stroke:#000000;stroke-width:2.25;stroke-linecap:round;stroke-linejoin:round;stroke-miterlimit:10;stroke-dasharray:none;stroke-opacity:1"
       id="path150"
       inkscape:connector-curvature="0" /><text
       transform="matrix(1,0,0,-1,106.75,87.741)"
       style="font-variant:normal;font-weight:normal;font-size:23.99975967px;font-family:CALIBRI;-inkscape-font-specification:CALIBRI;writing-mode:lr-tb;fill:#ffffff;fill-opacity:1;fill-rule:nonzero;stroke:none"
       id="text154"><tspan
         x="0"
         y="0"
         id="tspan152">3</tspan></text>
<path
       d="m 156.79,43.895 c 0,11.741 9.52,21.259 21.26,21.259 11.74,0.001 21.26,-9.518 21.26,-21.259 0,0 0,0 0,0 0,-11.742 -9.52,-21.26 -21.26,-21.26 -11.74,0 -21.26,9.518 -21.26,21.26 z"
       style="fill:#cdcdcd;fill-opacity:0.49803999;fill-rule:evenodd;stroke:none"
       id="path156"
       inkscape:connector-curvature="0" /><g
       id="g158"><g
         id="g160"
         clip-path="url(#clipPath164)"><path
           d="m 156.79,43.895 c 0,11.741 9.52,21.259 21.26,21.259 11.74,0.001 21.26,-9.518 21.26,-21.259 0,0 0,0 0,0 0,-11.742 -9.52,-21.26 -21.26,-21.26 -11.74,0 -21.26,9.518 -21.26,21.26"
           style="fill:none;stroke:#cdcdcd;stroke-width:2.25;stroke-linecap:round;stroke-linejoin:round;stroke-miterlimit:10;stroke-dasharray:none;stroke-opacity:0.49803999"
           id="path166"
           inkscape:connector-curvature="0" /></g></g><g
       id="g168"><g
         id="g170"
         clip-path="url(#clipPath174)"><path
           d="m 154.6,23.325 h 44.02 v 44.02 H 154.6 Z"
           style="fill:url(#linearGradient180);fill-opacity:1;fill-rule:evenodd;stroke:none"
           id="path182"
           inkscape:connector-curvature="0" /></g></g><path
       d="m 155.35,45.335 c 0,11.741 9.52,21.259 21.26,21.259 11.74,0.001 21.26,-9.518 21.26,-21.259 0,0 0,0 0,0 0,-11.742 -9.52,-21.26 -21.26,-21.26 -11.74,0 -21.26,9.518 -21.26,21.26 z"
       style="fill:none;stroke:#000000;stroke-width:2.25;stroke-linecap:round;stroke-linejoin:round;stroke-miterlimit:10;stroke-dasharray:none;stroke-opacity:1"
       id="path184"
       inkscape:connector-curvature="0" /><text
       transform="matrix(1,0,0,-1,170.53,38.135)"
       style="font-variant:normal;font-weight:normal;font-size:23.99975967px;font-family:CALIBRI;-inkscape-font-specification:CALIBRI;writing-mode:lr-tb;fill:#ffffff;fill-opacity:1;fill-rule:nonzero;stroke:none"
       id="text188"><tspan
         x="0"
         y="0"
         id="tspan186">5</tspan></text>
<path
       d="m 221.99,93.501 c 0,11.739 9.51,21.259 21.26,21.259 11.74,0 21.26,-9.52 21.26,-21.259 0,0 0,0 0,0 0,-11.742 -9.52,-21.26 -21.26,-21.26 -11.75,0 -21.26,9.518 -21.26,21.26 z"
       style="fill:#cdcdcd;fill-opacity:0.49803999;fill-rule:evenodd;stroke:none"
       id="path190"
       inkscape:connector-curvature="0" /><g
       id="g192"><g
         id="g194"
         clip-path="url(#clipPath198)"><path
           d="m 221.99,93.501 c 0,11.739 9.51,21.259 21.26,21.259 11.74,0 21.26,-9.52 21.26,-21.259 0,0 0,0 0,0 0,-11.742 -9.52,-21.26 -21.26,-21.26 -11.75,0 -21.26,9.518 -21.26,21.26"
           style="fill:none;stroke:#cdcdcd;stroke-width:2.25;stroke-linecap:round;stroke-linejoin:round;stroke-miterlimit:10;stroke-dasharray:none;stroke-opacity:0.49803999"
           id="path200"
           inkscape:connector-curvature="0" /></g></g><g
       id="g202"><g
         id="g204"
         clip-path="url(#clipPath208)"><path
           d="m 219.8,72.931 h 44.02 v 44.02 H 219.8 Z"
           style="fill:url(#linearGradient214);fill-opacity:1;fill-rule:evenodd;stroke:none"
           id="path216"
           inkscape:connector-curvature="0" /></g></g><path
       d="m 220.55,94.941 c 0,11.739 9.51,21.259 21.26,21.259 11.74,0 21.26,-9.52 21.26,-21.259 0,0 0,0 0,0 0,-11.742 -9.52,-21.26 -21.26,-21.26 -11.75,0 -21.26,9.518 -21.26,21.26 z"
       style="fill:none;stroke:#000000;stroke-width:2.25;stroke-linecap:round;stroke-linejoin:round;stroke-miterlimit:10;stroke-dasharray:none;stroke-opacity:1"
       id="path218"
       inkscape:connector-curvature="0" /><text
       transform="matrix(1,0,0,-1,235.72,87.741)"
       style="font-variant:normal;font-weight:normal;font-size:23.99975967px;font-family:CALIBRI;-inkscape-font-specification:CALIBRI;writing-mode:lr-tb;fill:#ffffff;fill-opacity:1;fill-rule:nonzero;stroke:none"
       id="text222"><tspan
         x="0"
         y="0"
         id="tspan220">6</tspan></text>
<path
       d="m 285.76,43.895 c 0,11.741 9.52,21.259 21.26,21.259 11.75,0.001 21.26,-9.518 21.26,-21.259 0,0 0,0 0,0 0,-11.742 -9.51,-21.26 -21.26,-21.26 -11.74,0 -21.26,9.518 -21.26,21.26 z"
       style="fill:#cdcdcd;fill-opacity:0.49803999;fill-rule:evenodd;stroke:none"
       id="path224"
       inkscape:connector-curvature="0" /><g
       id="g226"><g
         id="g228"
         clip-path="url(#clipPath232)"><path
           d="m 285.76,43.895 c 0,11.741 9.52,21.259 21.26,21.259 11.75,0.001 21.26,-9.518 21.26,-21.259 0,0 0,0 0,0 0,-11.742 -9.51,-21.26 -21.26,-21.26 -11.74,0 -21.26,9.518 -21.26,21.26"
           style="fill:none;stroke:#cdcdcd;stroke-width:2.25;stroke-linecap:round;stroke-linejoin:round;stroke-miterlimit:10;stroke-dasharray:none;stroke-opacity:0.49803999"
           id="path234"
           inkscape:connector-curvature="0" /></g></g><g
       id="g236"><g
         id="g238"
         clip-path="url(#clipPath242)"><path
           d="m 283.57,23.325 h 44.02 v 44.02 h -44.02 z"
           style="fill:url(#linearGradient248);fill-opacity:1;fill-rule:evenodd;stroke:none"
           id="path250"
           inkscape:connector-curvature="0" /></g></g><path
       d="m 284.32,45.335 c 0,11.741 9.52,21.259 21.26,21.259 11.75,0.001 21.26,-9.518 21.26,-21.259 0,0 0,0 0,0 0,-11.742 -9.51,-21.26 -21.26,-21.26 -11.74,0 -21.26,9.518 -21.26,21.26 z"
       style="fill:none;stroke:#000000;stroke-width:2.25;stroke-linecap:round;stroke-linejoin:round;stroke-miterlimit:10;stroke-dasharray:none;stroke-opacity:1"
       id="path252"
       inkscape:connector-curvature="0" /><text
       transform="matrix(1,0,0,-1,299.5,38.135)"
       style="font-variant:normal;font-weight:normal;font-size:23.99975967px;font-family:CALIBRI;-inkscape-font-specification:CALIBRI;writing-mode:lr-tb;fill:#ffffff;fill-opacity:1;fill-rule:nonzero;stroke:none"
       id="text256"><tspan
         x="0"
         y="0"
         id="tspan254">7</tspan></text>
<path
       d="m 225.76,108.89 -33.11,28.79"
       style="fill:none;stroke:#000000;stroke-width:2.25;stroke-linecap:round;stroke-linejoin:round;stroke-miterlimit:10;stroke-dasharray:none;stroke-opacity:1"
       id="path258"
       inkscape:connector-curvature="0" /><path
       d="m 128.72,109.07 32,28.44"
       style="fill:none;stroke:#000000;stroke-width:2.25;stroke-linecap:round;stroke-linejoin:round;stroke-miterlimit:10;stroke-dasharray:none;stroke-opacity:1"
       id="path260"
       inkscape:connector-curvature="0" /><path
       d="M 288.8,58.387 258.59,81.889"
       style="fill:none;stroke:#000000;stroke-width:2.25;stroke-linecap:round;stroke-linejoin:round;stroke-miterlimit:10;stroke-dasharray:none;stroke-opacity:1"
       id="path262"
       inkscape:connector-curvature="0" /><path
       d="M 224.89,82.068 193.53,58.208"
       style="fill:none;stroke:#000000;stroke-width:2.25;stroke-linecap:round;stroke-linejoin:round;stroke-miterlimit:10;stroke-dasharray:none;stroke-opacity:1"
       id="path264"
       inkscape:connector-curvature="0" /><path
       d="M 97.796,79.908 78.813,60.925"
       style="fill:none;stroke:#000000;stroke-width:2.25;stroke-linecap:round;stroke-linejoin:round;stroke-miterlimit:10;stroke-dasharray:none;stroke-opacity:1"
       id="path266"
       inkscape:connector-curvature="0" /><path
       d="m 81.343,63.455 c -1.397,1.397 -3.662,1.397 -5.06,0 -1.397,-1.397 -1.397,-3.662 0,-5.059 0,0 0,0 0,0 1.398,-1.398 3.663,-1.398 5.06,0 1.397,1.397 1.397,3.662 0,5.059 z"
       style="fill:#000000;fill-opacity:1;fill-rule:evenodd;stroke:none"
       id="path268"
       inkscape:connector-curvature="0" /><path
       d="M 63.254,137.21 84.482,117.62"
       style="fill:none;stroke:#000000;stroke-width:2.25;stroke-linecap:round;stroke-linejoin:round;stroke-miterlimit:10;stroke-dasharray:none;stroke-opacity:1"
       id="path270"
       inkscape:connector-curvature="0" /><path
       d="m 81.854,120.04 c -1.34,-1.45 -1.25,-3.71 0.202,-5.05 1.452,-1.34 3.715,-1.25 5.055,0.2 0,0 0,0 0,0 1.34,1.45 1.25,3.72 -0.202,5.06 -1.452,1.34 -3.715,1.25 -5.055,-0.21 z"
       style="fill:#000000;fill-opacity:1;fill-rule:evenodd;stroke:none"
       id="path272"
       inkscape:connector-curvature="0" /><path
       d="M 161.58,30.302 141.18,9.9016"
       style="fill:none;stroke:#000000;stroke-width:2.25;stroke-linecap:round;stroke-linejoin:round;stroke-miterlimit:10;stroke-dasharray:none;stroke-opacity:1"
       id="path274"
       inkscape:connector-curvature="0" /><path
       d="m 143.71,12.431 c -1.4,1.397 -3.67,1.397 -5.06,0 -1.4,-1.397 -1.4,-3.662 0,-5.0591 0,0 0,0 0,0 1.39,-1.3971 3.66,-1.3971 5.06,0 1.39,1.3971 1.39,3.6621 0,5.0591 z"
       style="fill:#000000;fill-opacity:1;fill-rule:evenodd;stroke:none"
       id="path276"
       inkscape:connector-curvature="0" /><path
       d="M 293.51,27.833 277.24,4.2323"
       style="fill:none;stroke:#000000;stroke-width:2.25;stroke-linecap:round;stroke-linejoin:round;stroke-miterlimit:10;stroke-dasharray:none;stroke-opacity:1"
       id="path278"
       inkscape:connector-curvature="0" /><path
       d="m 279.27,7.1773 c -1.63,1.1217 -3.85,0.7126 -4.98,-0.9139 -1.12,-1.6266 -0.71,-3.8544 0.92,-4.9762 0,0 0,0 0,0 1.62,-1.1217 3.85,-0.71249 4.97,0.914 1.13,1.6265 0.72,3.8544 -0.91,4.9761 z"
       style="fill:#000000;fill-opacity:1;fill-rule:evenodd;stroke:none"
       id="path280"
       inkscape:connector-curvature="0" /><path
       d="M 191.64,30.302 212.04,9.9016"
       style="fill:none;stroke:#000000;stroke-width:2.25;stroke-linecap:round;stroke-linejoin:round;stroke-miterlimit:10;stroke-dasharray:none;stroke-opacity:1"
       id="path282"
       inkscape:connector-curvature="0" /><path
       d="m 209.51,12.431 c -1.4,-1.397 -1.4,-3.662 0,-5.0591 1.4,-1.3971 3.66,-1.3971 5.06,0 0,0 0,0 0,0 1.4,1.3971 1.4,3.6621 0,5.0591 -1.4,1.397 -3.66,1.397 -5.06,0 z"
       style="fill:#000000;fill-opacity:1;fill-rule:evenodd;stroke:none"
       id="path284"
       inkscape:connector-curvature="0" /><path
       d="M 129.16,81.331 146.84,66.594"
       style="fill:none;stroke:#000000;stroke-width:2.25;stroke-linecap:round;stroke-linejoin:round;stroke-miterlimit:10;stroke-dasharray:none;stroke-opacity:1"
       id="path286"
       inkscape:connector-curvature="0" /><path
       d="m 144.1,68.885 c -1.27,-1.518 -1.06,-3.774 0.45,-5.039 1.52,-1.265 3.78,-1.06 5.04,0.458 0,0 0,0 0,0 1.27,1.518 1.06,3.774 -0.46,5.039 -1.51,1.265 -3.77,1.06 -5.03,-0.458 z"
       style="fill:#000000;fill-opacity:1;fill-rule:evenodd;stroke:none"
       id="path288"
       inkscape:connector-curvature="0" /><path
       d="M 321.44,31.175 345.27,9.9016"
       style="fill:none;stroke:#000000;stroke-width:2.25;stroke-linecap:round;stroke-linejoin:round;stroke-miterlimit:10;stroke-dasharray:none;stroke-opacity:1"
       id="path290"
       inkscape:connector-curvature="0" /><path
       d="m 342.6,12.284 c -1.31,-1.474 -1.19,-3.7351 0.29,-5.051 1.47,-1.3159 3.73,-1.1879 5.05,0.2859 0,0 0,0 0,0 1.31,1.4738 1.19,3.7351 -0.29,5.0511 -1.47,1.316 -3.73,1.188 -5.05,-0.286 z"
       style="fill:#000000;fill-opacity:1;fill-rule:evenodd;stroke:none"
       id="path292"
       inkscape:connector-curvature="0" /></g></svg>