<?xml version="1.0" encoding="UTF-8"?>
<!DOCTYPE svg PUBLIC "-//W3C//DTD SVG 1.1//EN" "http://www.w3.org/Graphics/SVG/1.1/DTD/svg11.dtd">
<svg version="1.2" width="160mm" height="60mm" viewBox="0 0 16000 6000" preserveAspectRatio="xMidYMid" fill-rule="evenodd" stroke-width="28.222" stroke-linejoin="round" xmlns="http://www.w3.org/2000/svg" xmlns:ooo="http://xml.openoffice.org/svg/export" xmlns:xlink="http://www.w3.org/1999/xlink" xmlns:presentation="http://sun.com/xmlns/staroffice/presentation" xmlns:smil="http://www.w3.org/2001/SMIL20/" xmlns:anim="urn:oasis:names:tc:opendocument:xmlns:animation:1.0" xml:space="preserve">
 <defs class="ClipPathGroup">
  <clipPath id="presentation_clip_path" clipPathUnits="userSpaceOnUse">
   <rect x="0" y="0" width="16000" height="6000"/>
  </clipPath>
  <clipPath id="presentation_clip_path_shrink" clipPathUnits="userSpaceOnUse">
   <rect x="16" y="6" width="15968" height="5988"/>
  </clipPath>
 </defs>
 <defs class="TextShapeIndex">
  <g ooo:slide="id1" ooo:id-list="id3 id4 id5 id6 id7 id8 id9 id10 id11 id12 id13 id14 id15 id16 id17 id18 id19 id20 id21 id22 id23 id24 id25 id26 id27 id28 id29 id30 id31 id32 id33 id34 id35"/>
 </defs>
 <defs class="EmbeddedBulletChars">
  <g id="bullet-char-template-57356" transform="scale(0.00048828125,-0.00048828125)">
   <path d="M 580,1141 L 1163,571 580,0 -4,571 580,1141 Z"/>
  </g>
  <g id="bullet-char-template-57354" transform="scale(0.00048828125,-0.00048828125)">
   <path d="M 8,1128 L 1137,1128 1137,0 8,0 8,1128 Z"/>
  </g>
  <g id="bullet-char-template-10146" transform="scale(0.00048828125,-0.00048828125)">
   <path d="M 174,0 L 602,739 174,1481 1456,739 174,0 Z M 1358,739 L 309,1346 659,739 1358,739 Z"/>
  </g>
  <g id="bullet-char-template-10132" transform="scale(0.00048828125,-0.00048828125)">
   <path d="M 2015,739 L 1276,0 717,0 1260,543 174,543 174,936 1260,936 717,1481 1274,1481 2015,739 Z"/>
  </g>
  <g id="bullet-char-template-10007" transform="scale(0.00048828125,-0.00048828125)">
   <path d="M 0,-2 C -7,14 -16,27 -25,37 L 356,567 C 262,823 215,952 215,954 215,979 228,992 255,992 264,992 276,990 289,987 310,991 331,999 354,1012 L 381,999 492,748 772,1049 836,1024 860,1049 C 881,1039 901,1025 922,1006 886,937 835,863 770,784 769,783 710,716 594,584 L 774,223 C 774,196 753,168 711,139 L 727,119 C 717,90 699,76 672,76 641,76 570,178 457,381 L 164,-76 C 142,-110 111,-127 72,-127 30,-127 9,-110 8,-76 1,-67 -2,-52 -2,-32 -2,-23 -1,-13 0,-2 Z"/>
  </g>
  <g id="bullet-char-template-10004" transform="scale(0.00048828125,-0.00048828125)">
   <path d="M 285,-33 C 182,-33 111,30 74,156 52,228 41,333 41,471 41,549 55,616 82,672 116,743 169,778 240,778 293,778 328,747 346,684 L 369,508 C 377,444 397,411 428,410 L 1163,1116 C 1174,1127 1196,1133 1229,1133 1271,1133 1292,1118 1292,1087 L 1292,965 C 1292,929 1282,901 1262,881 L 442,47 C 390,-6 338,-33 285,-33 Z"/>
  </g>
  <g id="bullet-char-template-9679" transform="scale(0.00048828125,-0.00048828125)">
   <path d="M 813,0 C 632,0 489,54 383,161 276,268 223,411 223,592 223,773 276,916 383,1023 489,1130 632,1184 813,1184 992,1184 1136,1130 1245,1023 1353,916 1407,772 1407,592 1407,412 1353,268 1245,161 1136,54 992,0 813,0 Z"/>
  </g>
  <g id="bullet-char-template-8226" transform="scale(0.00048828125,-0.00048828125)">
   <path d="M 346,457 C 273,457 209,483 155,535 101,586 74,649 74,723 74,796 101,859 155,911 209,963 273,989 346,989 419,989 480,963 531,910 582,859 608,796 608,723 608,648 583,586 532,535 482,483 420,457 346,457 Z"/>
  </g>
  <g id="bullet-char-template-8211" transform="scale(0.00048828125,-0.00048828125)">
   <path d="M -4,459 L 1135,459 1135,606 -4,606 -4,459 Z"/>
  </g>
  <g id="bullet-char-template-61548" transform="scale(0.00048828125,-0.00048828125)">
   <path d="M 173,740 C 173,903 231,1043 346,1159 462,1274 601,1332 765,1332 928,1332 1067,1274 1183,1159 1299,1043 1357,903 1357,740 1357,577 1299,437 1183,322 1067,206 928,148 765,148 601,148 462,206 346,322 231,437 173,577 173,740 Z"/>
  </g>
 </defs>
 <defs class="TextEmbeddedBitmaps"/>
 <g>
  <g id="id2" class="Master_Slide">
   <g id="bg-id2" class="Background"/>
   <g id="bo-id2" class="BackgroundObjects"/>
  </g>
 </g>
 <g class="SlideGroup">
  <g>
   <g id="container-id1">
    <g id="id1" class="Slide" clip-path="url(#presentation_clip_path)">
     <g class="Page">
      <g class="Group">
       <g class="com.sun.star.drawing.CustomShape">
        <g id="id3">
         <rect class="BoundingBox" stroke="none" fill="none" x="1099" y="662" width="3821" height="4648"/>
         <path fill="rgb(207,231,245)" stroke="none" d="M 3009,5308 L 1100,5308 1100,663 4918,663 4918,5308 3009,5308 Z"/>
         <path fill="none" stroke="rgb(128,128,128)" d="M 3009,5308 L 1100,5308 1100,663 4918,663 4918,5308 3009,5308 Z"/>
        </g>
       </g>
       <g class="com.sun.star.drawing.CustomShape">
        <g id="id4">
         <rect class="BoundingBox" stroke="none" fill="none" x="1671" y="1744" width="2866" height="3058"/>
         <path fill="rgb(255,255,255)" stroke="none" d="M 3104,4800 L 1672,4800 1672,1745 4535,1745 4535,4800 3104,4800 Z"/>
         <path fill="none" stroke="rgb(128,128,128)" d="M 3104,4800 L 1672,4800 1672,1745 4535,1745 4535,4800 3104,4800 Z"/>
        </g>
       </g>
       <g class="com.sun.star.drawing.CustomShape">
        <g id="id5">
         <rect class="BoundingBox" stroke="none" fill="none" x="2180" y="2190" width="1912" height="385"/>
         <path fill="rgb(207,231,245)" stroke="none" d="M 3136,2573 L 2181,2573 2181,2191 4090,2191 4090,2573 3136,2573 Z"/>
         <path fill="none" stroke="rgb(128,128,128)" d="M 3136,2573 L 2181,2573 2181,2191 4090,2191 4090,2573 3136,2573 Z"/>
        </g>
       </g>
       <g class="com.sun.star.drawing.CustomShape">
        <g id="id6">
         <rect class="BoundingBox" stroke="none" fill="none" x="2179" y="2698" width="1912" height="384"/>
         <path fill="rgb(207,231,245)" stroke="none" d="M 3135,3080 L 2180,3080 2180,2699 4089,2699 4089,3080 3135,3080 Z"/>
         <path fill="none" stroke="rgb(128,128,128)" d="M 3135,3080 L 2180,3080 2180,2699 4089,2699 4089,3080 3135,3080 Z"/>
        </g>
       </g>
       <g class="com.sun.star.drawing.CustomShape">
        <g id="id7">
         <rect class="BoundingBox" stroke="none" fill="none" x="2179" y="3208" width="1912" height="385"/>
         <path fill="rgb(207,231,245)" stroke="none" d="M 3135,3591 L 2180,3591 2180,3209 4089,3209 4089,3591 3135,3591 Z"/>
         <path fill="none" stroke="rgb(128,128,128)" d="M 3135,3591 L 2180,3591 2180,3209 4089,3209 4089,3591 3135,3591 Z"/>
        </g>
       </g>
       <g class="com.sun.star.drawing.CustomShape">
        <g id="id8">
         <rect class="BoundingBox" stroke="none" fill="none" x="2179" y="3653" width="1912" height="385"/>
         <path fill="rgb(207,231,245)" stroke="none" d="M 3135,4036 L 2180,4036 2180,3654 4089,3654 4089,4036 3135,4036 Z"/>
         <path fill="none" stroke="rgb(128,128,128)" d="M 3135,4036 L 2180,4036 2180,3654 4089,3654 4089,4036 3135,4036 Z"/>
        </g>
       </g>
       <g class="com.sun.star.drawing.CustomShape">
        <g id="id9">
         <rect class="BoundingBox" stroke="none" fill="none" x="2179" y="4162" width="1912" height="385"/>
         <path fill="rgb(207,231,245)" stroke="none" d="M 3135,4545 L 2180,4545 2180,4163 4089,4163 4089,4545 3135,4545 Z"/>
         <path fill="none" stroke="rgb(128,128,128)" d="M 3135,4545 L 2180,4545 2180,4163 4089,4163 4089,4545 3135,4545 Z"/>
        </g>
       </g>
       <g class="com.sun.star.drawing.CustomShape">
        <g id="id10">
         <rect class="BoundingBox" stroke="none" fill="none" x="2873" y="2049" width="577" height="581"/>
         <path fill="rgb(207,231,245)" stroke="none" d="M 3161,2075 C 3209,2075 3251,2086 3293,2110 3334,2134 3365,2165 3389,2207 3413,2249 3424,2290 3424,2339 3424,2388 3413,2429 3389,2471 3365,2513 3334,2544 3293,2568 3251,2592 3209,2604 3161,2604 3113,2604 3071,2592 3030,2568 2988,2544 2957,2513 2933,2471 2909,2429 2898,2388 2898,2339 2898,2290 2909,2249 2933,2207 2957,2165 2988,2134 3030,2110 3071,2086 3113,2075 3161,2075 L 3161,2075 Z"/>
         <path fill="none" stroke="rgb(128,128,128)" stroke-width="50" stroke-linejoin="round" d="M 3161,2075 C 3209,2075 3251,2086 3293,2110 3334,2134 3365,2165 3389,2207 3413,2249 3424,2290 3424,2339 3424,2388 3413,2429 3389,2471 3365,2513 3334,2544 3293,2568 3251,2592 3209,2604 3161,2604 3113,2604 3071,2592 3030,2568 2988,2544 2957,2513 2933,2471 2909,2429 2898,2388 2898,2339 2898,2290 2909,2249 2933,2207 2957,2165 2988,2134 3030,2110 3071,2086 3113,2075 3161,2075 L 3161,2075 Z"/>
         <path fill="rgb(166,185,196)" stroke="none" d="M 3074,2229 C 3079,2229 3084,2231 3088,2233 3092,2236 3096,2239 3098,2244 3101,2248 3102,2253 3102,2258 3102,2263 3101,2268 3098,2272 3096,2277 3092,2280 3088,2283 3084,2285 3079,2286 3074,2286 3069,2286 3064,2285 3060,2283 3056,2280 3052,2277 3050,2272 3047,2268 3046,2263 3046,2258 3046,2253 3047,2248 3050,2244 3052,2239 3056,2236 3060,2233 3064,2231 3069,2229 3074,2229 L 3074,2229 Z"/>
         <path fill="none" stroke="rgb(128,128,128)" stroke-width="50" stroke-linejoin="round" d="M 3074,2229 C 3079,2229 3084,2231 3088,2233 3092,2236 3096,2239 3098,2244 3101,2248 3102,2253 3102,2258 3102,2263 3101,2268 3098,2272 3096,2277 3092,2280 3088,2283 3084,2285 3079,2286 3074,2286 3069,2286 3064,2285 3060,2283 3056,2280 3052,2277 3050,2272 3047,2268 3046,2263 3046,2258 3046,2253 3047,2248 3050,2244 3052,2239 3056,2236 3060,2233 3064,2231 3069,2229 3074,2229 Z"/>
         <path fill="rgb(166,185,196)" stroke="none" d="M 3245,2229 C 3250,2229 3255,2231 3259,2233 3263,2236 3267,2239 3269,2244 3272,2248 3273,2253 3273,2258 3273,2263 3272,2268 3269,2272 3267,2277 3263,2280 3259,2283 3255,2285 3250,2286 3245,2286 3240,2286 3235,2285 3231,2283 3227,2280 3223,2277 3221,2272 3218,2268 3217,2263 3217,2258 3217,2253 3218,2248 3221,2244 3223,2239 3227,2236 3231,2233 3235,2231 3240,2229 3245,2229 L 3245,2229 Z"/>
         <path fill="none" stroke="rgb(128,128,128)" stroke-width="50" stroke-linejoin="round" d="M 3245,2229 C 3250,2229 3255,2231 3259,2233 3263,2236 3267,2239 3269,2244 3272,2248 3273,2253 3273,2258 3273,2263 3272,2268 3269,2272 3267,2277 3263,2280 3259,2283 3255,2285 3250,2286 3245,2286 3240,2286 3235,2285 3231,2283 3227,2280 3223,2277 3221,2272 3218,2268 3217,2263 3217,2258 3217,2253 3218,2248 3221,2244 3223,2239 3227,2236 3231,2233 3235,2231 3240,2229 3245,2229 Z"/>
         <path fill="none" stroke="rgb(128,128,128)" stroke-width="50" stroke-linejoin="round" d="M 3017,2454 C 3110,2504 3213,2504 3306,2454"/>
        </g>
       </g>
       <g class="com.sun.star.drawing.CustomShape">
        <g id="id11">
         <rect class="BoundingBox" stroke="none" fill="none" x="2848" y="2577" width="577" height="581"/>
         <path fill="rgb(207,231,245)" stroke="none" d="M 3136,2603 C 3184,2603 3226,2614 3268,2638 3309,2662 3340,2693 3364,2735 3388,2777 3399,2818 3399,2867 3399,2916 3388,2957 3364,2999 3340,3041 3309,3072 3268,3096 3226,3120 3184,3132 3136,3132 3088,3132 3046,3120 3005,3096 2963,3072 2932,3041 2908,2999 2884,2957 2873,2916 2873,2867 2873,2818 2884,2777 2908,2735 2932,2693 2963,2662 3005,2638 3046,2614 3088,2603 3136,2603 L 3136,2603 Z"/>
         <path fill="none" stroke="rgb(128,128,128)" stroke-width="50" stroke-linejoin="round" d="M 3136,2603 C 3184,2603 3226,2614 3268,2638 3309,2662 3340,2693 3364,2735 3388,2777 3399,2818 3399,2867 3399,2916 3388,2957 3364,2999 3340,3041 3309,3072 3268,3096 3226,3120 3184,3132 3136,3132 3088,3132 3046,3120 3005,3096 2963,3072 2932,3041 2908,2999 2884,2957 2873,2916 2873,2867 2873,2818 2884,2777 2908,2735 2932,2693 2963,2662 3005,2638 3046,2614 3088,2603 3136,2603 L 3136,2603 Z"/>
         <path fill="rgb(166,185,196)" stroke="none" d="M 3049,2758 C 3054,2758 3059,2759 3063,2761 3067,2764 3071,2767 3073,2772 3076,2776 3077,2781 3077,2786 3077,2791 3076,2796 3073,2800 3071,2805 3067,2808 3063,2811 3059,2813 3054,2815 3049,2815 3044,2815 3039,2813 3035,2811 3031,2808 3027,2805 3025,2800 3022,2796 3021,2791 3021,2786 3021,2781 3022,2776 3025,2772 3027,2767 3031,2764 3035,2761 3039,2759 3044,2758 3049,2758 L 3049,2758 Z"/>
         <path fill="none" stroke="rgb(128,128,128)" stroke-width="50" stroke-linejoin="round" d="M 3049,2758 C 3054,2758 3059,2759 3063,2761 3067,2764 3071,2767 3073,2772 3076,2776 3077,2781 3077,2786 3077,2791 3076,2796 3073,2800 3071,2805 3067,2808 3063,2811 3059,2813 3054,2815 3049,2815 3044,2815 3039,2813 3035,2811 3031,2808 3027,2805 3025,2800 3022,2796 3021,2791 3021,2786 3021,2781 3022,2776 3025,2772 3027,2767 3031,2764 3035,2761 3039,2759 3044,2758 3049,2758 Z"/>
         <path fill="rgb(166,185,196)" stroke="none" d="M 3220,2758 C 3225,2758 3230,2759 3234,2761 3238,2764 3242,2767 3244,2772 3247,2776 3248,2781 3248,2786 3248,2791 3247,2796 3244,2800 3242,2805 3238,2808 3234,2811 3230,2813 3225,2815 3220,2815 3215,2815 3210,2813 3206,2811 3202,2808 3198,2805 3196,2800 3193,2796 3192,2791 3192,2786 3192,2781 3193,2776 3196,2772 3198,2767 3202,2764 3206,2761 3210,2759 3215,2758 3220,2758 L 3220,2758 Z"/>
         <path fill="none" stroke="rgb(128,128,128)" stroke-width="50" stroke-linejoin="round" d="M 3220,2758 C 3225,2758 3230,2759 3234,2761 3238,2764 3242,2767 3244,2772 3247,2776 3248,2781 3248,2786 3248,2791 3247,2796 3244,2800 3242,2805 3238,2808 3234,2811 3230,2813 3225,2815 3220,2815 3215,2815 3210,2813 3206,2811 3202,2808 3198,2805 3196,2800 3193,2796 3192,2791 3192,2786 3192,2781 3193,2776 3196,2772 3198,2767 3202,2764 3206,2761 3210,2759 3215,2758 3220,2758 Z"/>
         <path fill="none" stroke="rgb(128,128,128)" stroke-width="50" stroke-linejoin="round" d="M 2992,2982 C 3085,3032 3188,3032 3281,2982"/>
        </g>
       </g>
       <g class="com.sun.star.drawing.CustomShape">
        <g id="id12">
         <rect class="BoundingBox" stroke="none" fill="none" x="2848" y="3077" width="577" height="581"/>
         <path fill="rgb(207,231,245)" stroke="none" d="M 3136,3103 C 3184,3103 3226,3114 3268,3138 3309,3162 3340,3193 3364,3235 3388,3277 3399,3318 3399,3367 3399,3416 3388,3457 3364,3499 3340,3541 3309,3572 3268,3596 3226,3620 3184,3632 3136,3632 3088,3632 3046,3620 3005,3596 2963,3572 2932,3541 2908,3499 2884,3457 2873,3416 2873,3367 2873,3318 2884,3277 2908,3235 2932,3193 2963,3162 3005,3138 3046,3114 3088,3103 3136,3103 L 3136,3103 Z"/>
         <path fill="none" stroke="rgb(128,128,128)" stroke-width="50" stroke-linejoin="round" d="M 3136,3103 C 3184,3103 3226,3114 3268,3138 3309,3162 3340,3193 3364,3235 3388,3277 3399,3318 3399,3367 3399,3416 3388,3457 3364,3499 3340,3541 3309,3572 3268,3596 3226,3620 3184,3632 3136,3632 3088,3632 3046,3620 3005,3596 2963,3572 2932,3541 2908,3499 2884,3457 2873,3416 2873,3367 2873,3318 2884,3277 2908,3235 2932,3193 2963,3162 3005,3138 3046,3114 3088,3103 3136,3103 L 3136,3103 Z"/>
         <path fill="rgb(166,185,196)" stroke="none" d="M 3049,3258 C 3054,3258 3059,3259 3063,3261 3067,3264 3071,3267 3073,3272 3076,3276 3077,3281 3077,3286 3077,3291 3076,3296 3073,3300 3071,3305 3067,3308 3063,3311 3059,3313 3054,3315 3049,3315 3044,3315 3039,3313 3035,3311 3031,3308 3027,3305 3025,3300 3022,3296 3021,3291 3021,3286 3021,3281 3022,3276 3025,3272 3027,3267 3031,3264 3035,3261 3039,3259 3044,3258 3049,3258 L 3049,3258 Z"/>
         <path fill="none" stroke="rgb(128,128,128)" stroke-width="50" stroke-linejoin="round" d="M 3049,3258 C 3054,3258 3059,3259 3063,3261 3067,3264 3071,3267 3073,3272 3076,3276 3077,3281 3077,3286 3077,3291 3076,3296 3073,3300 3071,3305 3067,3308 3063,3311 3059,3313 3054,3315 3049,3315 3044,3315 3039,3313 3035,3311 3031,3308 3027,3305 3025,3300 3022,3296 3021,3291 3021,3286 3021,3281 3022,3276 3025,3272 3027,3267 3031,3264 3035,3261 3039,3259 3044,3258 3049,3258 Z"/>
         <path fill="rgb(166,185,196)" stroke="none" d="M 3220,3258 C 3225,3258 3230,3259 3234,3261 3238,3264 3242,3267 3244,3272 3247,3276 3248,3281 3248,3286 3248,3291 3247,3296 3244,3300 3242,3305 3238,3308 3234,3311 3230,3313 3225,3315 3220,3315 3215,3315 3210,3313 3206,3311 3202,3308 3198,3305 3196,3300 3193,3296 3192,3291 3192,3286 3192,3281 3193,3276 3196,3272 3198,3267 3202,3264 3206,3261 3210,3259 3215,3258 3220,3258 L 3220,3258 Z"/>
         <path fill="none" stroke="rgb(128,128,128)" stroke-width="50" stroke-linejoin="round" d="M 3220,3258 C 3225,3258 3230,3259 3234,3261 3238,3264 3242,3267 3244,3272 3247,3276 3248,3281 3248,3286 3248,3291 3247,3296 3244,3300 3242,3305 3238,3308 3234,3311 3230,3313 3225,3315 3220,3315 3215,3315 3210,3313 3206,3311 3202,3308 3198,3305 3196,3300 3193,3296 3192,3291 3192,3286 3192,3281 3193,3276 3196,3272 3198,3267 3202,3264 3206,3261 3210,3259 3215,3258 3220,3258 Z"/>
         <path fill="none" stroke="rgb(128,128,128)" stroke-width="50" stroke-linejoin="round" d="M 2992,3482 C 3085,3532 3188,3532 3281,3482"/>
        </g>
       </g>
       <g class="com.sun.star.drawing.CustomShape">
        <g id="id13">
         <rect class="BoundingBox" stroke="none" fill="none" x="2848" y="3577" width="577" height="581"/>
         <path fill="rgb(207,231,245)" stroke="none" d="M 3136,3603 C 3184,3603 3226,3614 3268,3638 3309,3662 3340,3693 3364,3735 3388,3777 3399,3818 3399,3867 3399,3916 3388,3957 3364,3999 3340,4041 3309,4072 3268,4096 3226,4120 3184,4132 3136,4132 3088,4132 3046,4120 3005,4096 2963,4072 2932,4041 2908,3999 2884,3957 2873,3916 2873,3867 2873,3818 2884,3777 2908,3735 2932,3693 2963,3662 3005,3638 3046,3614 3088,3603 3136,3603 L 3136,3603 Z"/>
         <path fill="none" stroke="rgb(128,128,128)" stroke-width="50" stroke-linejoin="round" d="M 3136,3603 C 3184,3603 3226,3614 3268,3638 3309,3662 3340,3693 3364,3735 3388,3777 3399,3818 3399,3867 3399,3916 3388,3957 3364,3999 3340,4041 3309,4072 3268,4096 3226,4120 3184,4132 3136,4132 3088,4132 3046,4120 3005,4096 2963,4072 2932,4041 2908,3999 2884,3957 2873,3916 2873,3867 2873,3818 2884,3777 2908,3735 2932,3693 2963,3662 3005,3638 3046,3614 3088,3603 3136,3603 L 3136,3603 Z"/>
         <path fill="rgb(166,185,196)" stroke="none" d="M 3049,3758 C 3054,3758 3059,3759 3063,3761 3067,3764 3071,3767 3073,3772 3076,3776 3077,3781 3077,3786 3077,3791 3076,3796 3073,3800 3071,3805 3067,3808 3063,3811 3059,3813 3054,3815 3049,3815 3044,3815 3039,3813 3035,3811 3031,3808 3027,3805 3025,3800 3022,3796 3021,3791 3021,3786 3021,3781 3022,3776 3025,3772 3027,3767 3031,3764 3035,3761 3039,3759 3044,3758 3049,3758 L 3049,3758 Z"/>
         <path fill="none" stroke="rgb(128,128,128)" stroke-width="50" stroke-linejoin="round" d="M 3049,3758 C 3054,3758 3059,3759 3063,3761 3067,3764 3071,3767 3073,3772 3076,3776 3077,3781 3077,3786 3077,3791 3076,3796 3073,3800 3071,3805 3067,3808 3063,3811 3059,3813 3054,3815 3049,3815 3044,3815 3039,3813 3035,3811 3031,3808 3027,3805 3025,3800 3022,3796 3021,3791 3021,3786 3021,3781 3022,3776 3025,3772 3027,3767 3031,3764 3035,3761 3039,3759 3044,3758 3049,3758 Z"/>
         <path fill="rgb(166,185,196)" stroke="none" d="M 3220,3758 C 3225,3758 3230,3759 3234,3761 3238,3764 3242,3767 3244,3772 3247,3776 3248,3781 3248,3786 3248,3791 3247,3796 3244,3800 3242,3805 3238,3808 3234,3811 3230,3813 3225,3815 3220,3815 3215,3815 3210,3813 3206,3811 3202,3808 3198,3805 3196,3800 3193,3796 3192,3791 3192,3786 3192,3781 3193,3776 3196,3772 3198,3767 3202,3764 3206,3761 3210,3759 3215,3758 3220,3758 L 3220,3758 Z"/>
         <path fill="none" stroke="rgb(128,128,128)" stroke-width="50" stroke-linejoin="round" d="M 3220,3758 C 3225,3758 3230,3759 3234,3761 3238,3764 3242,3767 3244,3772 3247,3776 3248,3781 3248,3786 3248,3791 3247,3796 3244,3800 3242,3805 3238,3808 3234,3811 3230,3813 3225,3815 3220,3815 3215,3815 3210,3813 3206,3811 3202,3808 3198,3805 3196,3800 3193,3796 3192,3791 3192,3786 3192,3781 3193,3776 3196,3772 3198,3767 3202,3764 3206,3761 3210,3759 3215,3758 3220,3758 Z"/>
         <path fill="none" stroke="rgb(128,128,128)" stroke-width="50" stroke-linejoin="round" d="M 2992,3982 C 3085,4032 3188,4032 3281,3982"/>
        </g>
       </g>
       <g class="com.sun.star.drawing.CustomShape">
        <g id="id14">
         <rect class="BoundingBox" stroke="none" fill="none" x="2848" y="4077" width="577" height="581"/>
         <path fill="rgb(207,231,245)" stroke="none" d="M 3136,4103 C 3184,4103 3226,4114 3268,4138 3309,4162 3340,4193 3364,4235 3388,4277 3399,4318 3399,4367 3399,4416 3388,4457 3364,4499 3340,4541 3309,4572 3268,4596 3226,4620 3184,4632 3136,4632 3088,4632 3046,4620 3005,4596 2963,4572 2932,4541 2908,4499 2884,4457 2873,4416 2873,4367 2873,4318 2884,4277 2908,4235 2932,4193 2963,4162 3005,4138 3046,4114 3088,4103 3136,4103 L 3136,4103 Z"/>
         <path fill="none" stroke="rgb(128,128,128)" stroke-width="50" stroke-linejoin="round" d="M 3136,4103 C 3184,4103 3226,4114 3268,4138 3309,4162 3340,4193 3364,4235 3388,4277 3399,4318 3399,4367 3399,4416 3388,4457 3364,4499 3340,4541 3309,4572 3268,4596 3226,4620 3184,4632 3136,4632 3088,4632 3046,4620 3005,4596 2963,4572 2932,4541 2908,4499 2884,4457 2873,4416 2873,4367 2873,4318 2884,4277 2908,4235 2932,4193 2963,4162 3005,4138 3046,4114 3088,4103 3136,4103 L 3136,4103 Z"/>
         <path fill="rgb(166,185,196)" stroke="none" d="M 3049,4257 C 3054,4257 3059,4259 3063,4261 3067,4264 3071,4267 3073,4272 3076,4276 3077,4281 3077,4286 3077,4291 3076,4296 3073,4300 3071,4305 3067,4308 3063,4311 3059,4313 3054,4314 3049,4314 3044,4314 3039,4313 3035,4311 3031,4308 3027,4305 3025,4300 3022,4296 3021,4291 3021,4286 3021,4281 3022,4276 3025,4272 3027,4267 3031,4264 3035,4261 3039,4259 3044,4257 3049,4257 L 3049,4257 Z"/>
         <path fill="none" stroke="rgb(128,128,128)" stroke-width="50" stroke-linejoin="round" d="M 3049,4257 C 3054,4257 3059,4259 3063,4261 3067,4264 3071,4267 3073,4272 3076,4276 3077,4281 3077,4286 3077,4291 3076,4296 3073,4300 3071,4305 3067,4308 3063,4311 3059,4313 3054,4314 3049,4314 3044,4314 3039,4313 3035,4311 3031,4308 3027,4305 3025,4300 3022,4296 3021,4291 3021,4286 3021,4281 3022,4276 3025,4272 3027,4267 3031,4264 3035,4261 3039,4259 3044,4257 3049,4257 Z"/>
         <path fill="rgb(166,185,196)" stroke="none" d="M 3220,4257 C 3225,4257 3230,4259 3234,4261 3238,4264 3242,4267 3244,4272 3247,4276 3248,4281 3248,4286 3248,4291 3247,4296 3244,4300 3242,4305 3238,4308 3234,4311 3230,4313 3225,4314 3220,4314 3215,4314 3210,4313 3206,4311 3202,4308 3198,4305 3196,4300 3193,4296 3192,4291 3192,4286 3192,4281 3193,4276 3196,4272 3198,4267 3202,4264 3206,4261 3210,4259 3215,4257 3220,4257 L 3220,4257 Z"/>
         <path fill="none" stroke="rgb(128,128,128)" stroke-width="50" stroke-linejoin="round" d="M 3220,4257 C 3225,4257 3230,4259 3234,4261 3238,4264 3242,4267 3244,4272 3247,4276 3248,4281 3248,4286 3248,4291 3247,4296 3244,4300 3242,4305 3238,4308 3234,4311 3230,4313 3225,4314 3220,4314 3215,4314 3210,4313 3206,4311 3202,4308 3198,4305 3196,4300 3193,4296 3192,4291 3192,4286 3192,4281 3193,4276 3196,4272 3198,4267 3202,4264 3206,4261 3210,4259 3215,4257 3220,4257 Z"/>
         <path fill="none" stroke="rgb(128,128,128)" stroke-width="50" stroke-linejoin="round" d="M 2992,4482 C 3085,4532 3188,4532 3281,4482"/>
        </g>
       </g>
      </g>
      <g class="Group">
       <g class="com.sun.star.drawing.CustomShape">
        <g id="id15">
         <rect class="BoundingBox" stroke="none" fill="none" x="5297" y="662" width="3822" height="4649"/>
         <path fill="rgb(207,231,245)" stroke="none" d="M 7208,5309 L 5298,5309 5298,663 9117,663 9117,5309 7208,5309 Z"/>
         <path fill="none" stroke="rgb(128,128,128)" d="M 7208,5309 L 5298,5309 5298,663 9117,663 9117,5309 7208,5309 Z"/>
        </g>
       </g>
       <g class="com.sun.star.drawing.CustomShape">
        <g id="id16">
         <rect class="BoundingBox" stroke="none" fill="none" x="5871" y="1745" width="2867" height="3057"/>
         <path fill="rgb(255,255,255)" stroke="none" d="M 7304,4800 L 5872,4800 5872,1746 8736,1746 8736,4800 7304,4800 Z"/>
         <path fill="none" stroke="rgb(128,128,128)" d="M 7304,4800 L 5872,4800 5872,1746 8736,1746 8736,4800 7304,4800 Z"/>
        </g>
       </g>
       <g class="com.sun.star.drawing.CustomShape">
        <g id="id17">
         <rect class="BoundingBox" stroke="none" fill="none" x="6379" y="2189" width="1912" height="384"/>
         <path fill="rgb(207,231,245)" stroke="none" d="M 7335,2571 L 6380,2571 6380,2190 8289,2190 8289,2571 7335,2571 Z"/>
         <path fill="none" stroke="rgb(128,128,128)" d="M 7335,2571 L 6380,2571 6380,2190 8289,2190 8289,2571 7335,2571 Z"/>
        </g>
       </g>
       <g class="com.sun.star.drawing.CustomShape">
        <g id="id18">
         <rect class="BoundingBox" stroke="none" fill="none" x="6379" y="2698" width="1912" height="385"/>
         <path fill="rgb(207,231,245)" stroke="none" d="M 7335,3081 L 6380,3081 6380,2699 8289,2699 8289,3081 7335,3081 Z"/>
         <path fill="none" stroke="rgb(128,128,128)" d="M 7335,3081 L 6380,3081 6380,2699 8289,2699 8289,3081 7335,3081 Z"/>
        </g>
       </g>
       <g class="com.sun.star.drawing.CustomShape">
        <g id="id19">
         <rect class="BoundingBox" stroke="none" fill="none" x="6972" y="2077" width="578" height="581"/>
         <path fill="rgb(207,231,245)" stroke="none" d="M 7261,2103 C 7309,2103 7351,2114 7392,2138 7434,2162 7465,2193 7489,2235 7513,2277 7524,2318 7524,2367 7524,2416 7513,2457 7489,2499 7465,2541 7434,2572 7392,2596 7351,2620 7309,2632 7261,2632 7213,2632 7171,2620 7129,2596 7088,2572 7057,2541 7033,2499 7009,2457 6998,2416 6998,2367 6998,2318 7009,2277 7033,2235 7057,2193 7088,2162 7129,2138 7171,2114 7213,2103 7261,2103 L 7261,2103 Z"/>
         <path fill="none" stroke="rgb(128,128,128)" stroke-width="50" stroke-linejoin="round" d="M 7261,2103 C 7309,2103 7351,2114 7392,2138 7434,2162 7465,2193 7489,2235 7513,2277 7524,2318 7524,2367 7524,2416 7513,2457 7489,2499 7465,2541 7434,2572 7392,2596 7351,2620 7309,2632 7261,2632 7213,2632 7171,2620 7129,2596 7088,2572 7057,2541 7033,2499 7009,2457 6998,2416 6998,2367 6998,2318 7009,2277 7033,2235 7057,2193 7088,2162 7129,2138 7171,2114 7213,2103 7261,2103 Z"/>
         <path fill="rgb(166,185,196)" stroke="none" d="M 7174,2257 C 7179,2257 7184,2259 7188,2261 7192,2264 7196,2267 7198,2272 7201,2276 7202,2281 7202,2286 7202,2291 7201,2296 7198,2300 7196,2305 7192,2308 7188,2311 7184,2313 7179,2314 7174,2314 7169,2314 7164,2313 7160,2311 7156,2308 7152,2305 7150,2300 7147,2296 7146,2291 7146,2286 7146,2281 7147,2276 7150,2272 7152,2267 7156,2264 7160,2261 7164,2259 7169,2257 7174,2257 L 7174,2257 Z"/>
         <path fill="none" stroke="rgb(128,128,128)" stroke-width="50" stroke-linejoin="round" d="M 7174,2257 C 7179,2257 7184,2259 7188,2261 7192,2264 7196,2267 7198,2272 7201,2276 7202,2281 7202,2286 7202,2291 7201,2296 7198,2300 7196,2305 7192,2308 7188,2311 7184,2313 7179,2314 7174,2314 7169,2314 7164,2313 7160,2311 7156,2308 7152,2305 7150,2300 7147,2296 7146,2291 7146,2286 7146,2281 7147,2276 7150,2272 7152,2267 7156,2264 7160,2261 7164,2259 7169,2257 7174,2257 Z"/>
         <path fill="rgb(166,185,196)" stroke="none" d="M 7345,2257 C 7350,2257 7355,2259 7359,2261 7363,2264 7367,2267 7369,2272 7372,2276 7373,2281 7373,2286 7373,2291 7372,2296 7369,2300 7367,2305 7363,2308 7359,2311 7355,2313 7350,2314 7345,2314 7340,2314 7335,2313 7331,2311 7327,2308 7323,2305 7321,2300 7318,2296 7317,2291 7317,2286 7317,2281 7318,2276 7321,2272 7323,2267 7327,2264 7331,2261 7335,2259 7340,2257 7345,2257 L 7345,2257 Z"/>
         <path fill="none" stroke="rgb(128,128,128)" stroke-width="50" stroke-linejoin="round" d="M 7345,2257 C 7350,2257 7355,2259 7359,2261 7363,2264 7367,2267 7369,2272 7372,2276 7373,2281 7373,2286 7373,2291 7372,2296 7369,2300 7367,2305 7363,2308 7359,2311 7355,2313 7350,2314 7345,2314 7340,2314 7335,2313 7331,2311 7327,2308 7323,2305 7321,2300 7318,2296 7317,2291 7317,2286 7317,2281 7318,2276 7321,2272 7323,2267 7327,2264 7331,2261 7335,2259 7340,2257 7345,2257 Z"/>
         <path fill="none" stroke="rgb(128,128,128)" stroke-width="50" stroke-linejoin="round" d="M 7117,2482 C 7210,2532 7313,2532 7406,2482"/>
        </g>
       </g>
       <g class="com.sun.star.drawing.CustomShape">
        <g id="id20">
         <rect class="BoundingBox" stroke="none" fill="none" x="6972" y="2577" width="578" height="581"/>
         <path fill="rgb(207,231,245)" stroke="none" d="M 7261,2603 C 7309,2603 7351,2614 7392,2638 7434,2662 7465,2693 7489,2735 7513,2777 7524,2818 7524,2867 7524,2916 7513,2957 7489,2999 7465,3041 7434,3072 7392,3096 7351,3120 7309,3132 7261,3132 7213,3132 7171,3120 7129,3096 7088,3072 7057,3041 7033,2999 7009,2957 6998,2916 6998,2867 6998,2818 7009,2777 7033,2735 7057,2693 7088,2662 7129,2638 7171,2614 7213,2603 7261,2603 L 7261,2603 Z"/>
         <path fill="none" stroke="rgb(128,128,128)" stroke-width="50" stroke-linejoin="round" d="M 7261,2603 C 7309,2603 7351,2614 7392,2638 7434,2662 7465,2693 7489,2735 7513,2777 7524,2818 7524,2867 7524,2916 7513,2957 7489,2999 7465,3041 7434,3072 7392,3096 7351,3120 7309,3132 7261,3132 7213,3132 7171,3120 7129,3096 7088,3072 7057,3041 7033,2999 7009,2957 6998,2916 6998,2867 6998,2818 7009,2777 7033,2735 7057,2693 7088,2662 7129,2638 7171,2614 7213,2603 7261,2603 Z"/>
         <path fill="rgb(166,185,196)" stroke="none" d="M 7174,2758 C 7179,2758 7184,2759 7188,2761 7192,2764 7196,2767 7198,2772 7201,2776 7202,2781 7202,2786 7202,2791 7201,2796 7198,2800 7196,2805 7192,2808 7188,2811 7184,2813 7179,2815 7174,2815 7169,2815 7164,2813 7160,2811 7156,2808 7152,2805 7150,2800 7147,2796 7146,2791 7146,2786 7146,2781 7147,2776 7150,2772 7152,2767 7156,2764 7160,2761 7164,2759 7169,2758 7174,2758 L 7174,2758 Z"/>
         <path fill="none" stroke="rgb(128,128,128)" stroke-width="50" stroke-linejoin="round" d="M 7174,2758 C 7179,2758 7184,2759 7188,2761 7192,2764 7196,2767 7198,2772 7201,2776 7202,2781 7202,2786 7202,2791 7201,2796 7198,2800 7196,2805 7192,2808 7188,2811 7184,2813 7179,2815 7174,2815 7169,2815 7164,2813 7160,2811 7156,2808 7152,2805 7150,2800 7147,2796 7146,2791 7146,2786 7146,2781 7147,2776 7150,2772 7152,2767 7156,2764 7160,2761 7164,2759 7169,2758 7174,2758 Z"/>
         <path fill="rgb(166,185,196)" stroke="none" d="M 7345,2758 C 7350,2758 7355,2759 7359,2761 7363,2764 7367,2767 7369,2772 7372,2776 7373,2781 7373,2786 7373,2791 7372,2796 7369,2800 7367,2805 7363,2808 7359,2811 7355,2813 7350,2815 7345,2815 7340,2815 7335,2813 7331,2811 7327,2808 7323,2805 7321,2800 7318,2796 7317,2791 7317,2786 7317,2781 7318,2776 7321,2772 7323,2767 7327,2764 7331,2761 7335,2759 7340,2758 7345,2758 L 7345,2758 Z"/>
         <path fill="none" stroke="rgb(128,128,128)" stroke-width="50" stroke-linejoin="round" d="M 7345,2758 C 7350,2758 7355,2759 7359,2761 7363,2764 7367,2767 7369,2772 7372,2776 7373,2781 7373,2786 7373,2791 7372,2796 7369,2800 7367,2805 7363,2808 7359,2811 7355,2813 7350,2815 7345,2815 7340,2815 7335,2813 7331,2811 7327,2808 7323,2805 7321,2800 7318,2796 7317,2791 7317,2786 7317,2781 7318,2776 7321,2772 7323,2767 7327,2764 7331,2761 7335,2759 7340,2758 7345,2758 Z"/>
         <path fill="none" stroke="rgb(128,128,128)" stroke-width="50" stroke-linejoin="round" d="M 7117,2982 C 7210,3032 7313,3032 7406,2982"/>
        </g>
       </g>
      </g>
      <g class="Group">
       <g class="com.sun.star.drawing.CustomShape">
        <g id="id21">
         <rect class="BoundingBox" stroke="none" fill="none" x="9626" y="662" width="3821" height="4649"/>
         <path fill="rgb(207,231,245)" stroke="none" d="M 11536,5309 L 9627,5309 9627,663 13445,663 13445,5309 11536,5309 Z"/>
         <path fill="none" stroke="rgb(128,128,128)" d="M 11536,5309 L 9627,5309 9627,663 13445,663 13445,5309 11536,5309 Z"/>
        </g>
       </g>
       <g class="com.sun.star.drawing.CustomShape">
        <g id="id22">
         <rect class="BoundingBox" stroke="none" fill="none" x="10198" y="1745" width="2867" height="3057"/>
         <path fill="rgb(255,255,255)" stroke="none" d="M 11631,4800 L 10199,4800 10199,1746 13063,1746 13063,4800 11631,4800 Z"/>
         <path fill="none" stroke="rgb(128,128,128)" d="M 11631,4800 L 10199,4800 10199,1746 13063,1746 13063,4800 11631,4800 Z"/>
        </g>
       </g>
       <g class="com.sun.star.drawing.CustomShape">
        <g id="id23">
         <rect class="BoundingBox" stroke="none" fill="none" x="10707" y="2189" width="1913" height="384"/>
         <path fill="rgb(207,231,245)" stroke="none" d="M 11663,2571 L 10708,2571 10708,2190 12618,2190 12618,2571 11663,2571 Z"/>
         <path fill="none" stroke="rgb(128,128,128)" d="M 11663,2571 L 10708,2571 10708,2190 12618,2190 12618,2571 11663,2571 Z"/>
        </g>
       </g>
       <g class="com.sun.star.drawing.CustomShape">
        <g id="id24">
         <rect class="BoundingBox" stroke="none" fill="none" x="10706" y="2698" width="1912" height="385"/>
         <path fill="rgb(207,231,245)" stroke="none" d="M 11662,3081 L 10707,3081 10707,2699 12616,2699 12616,3081 11662,3081 Z"/>
         <path fill="none" stroke="rgb(128,128,128)" d="M 11662,3081 L 10707,3081 10707,2699 12616,2699 12616,3081 11662,3081 Z"/>
        </g>
       </g>
       <g class="com.sun.star.drawing.CustomShape">
        <g id="id25">
         <rect class="BoundingBox" stroke="none" fill="none" x="10706" y="3207" width="1912" height="385"/>
         <path fill="rgb(207,231,245)" stroke="none" d="M 11662,3590 L 10707,3590 10707,3208 12616,3208 12616,3590 11662,3590 Z"/>
         <path fill="none" stroke="rgb(128,128,128)" d="M 11662,3590 L 10707,3590 10707,3208 12616,3208 12616,3590 11662,3590 Z"/>
        </g>
       </g>
       <g class="com.sun.star.drawing.CustomShape">
        <g id="id26">
         <rect class="BoundingBox" stroke="none" fill="none" x="11373" y="2049" width="577" height="581"/>
         <path fill="rgb(207,231,245)" stroke="none" d="M 11661,2075 C 11709,2075 11751,2086 11793,2110 11834,2134 11865,2165 11889,2207 11913,2249 11924,2290 11924,2339 11924,2388 11913,2429 11889,2471 11865,2513 11834,2544 11793,2568 11751,2592 11709,2604 11661,2604 11613,2604 11571,2592 11530,2568 11488,2544 11457,2513 11433,2471 11409,2429 11398,2388 11398,2339 11398,2290 11409,2249 11433,2207 11457,2165 11488,2134 11530,2110 11571,2086 11613,2075 11661,2075 L 11661,2075 Z"/>
         <path fill="none" stroke="rgb(128,128,128)" stroke-width="50" stroke-linejoin="round" d="M 11661,2075 C 11709,2075 11751,2086 11793,2110 11834,2134 11865,2165 11889,2207 11913,2249 11924,2290 11924,2339 11924,2388 11913,2429 11889,2471 11865,2513 11834,2544 11793,2568 11751,2592 11709,2604 11661,2604 11613,2604 11571,2592 11530,2568 11488,2544 11457,2513 11433,2471 11409,2429 11398,2388 11398,2339 11398,2290 11409,2249 11433,2207 11457,2165 11488,2134 11530,2110 11571,2086 11613,2075 11661,2075 Z"/>
         <path fill="rgb(166,185,196)" stroke="none" d="M 11574,2229 C 11579,2229 11584,2231 11588,2233 11592,2236 11596,2239 11598,2244 11601,2248 11602,2253 11602,2258 11602,2263 11601,2268 11598,2272 11596,2277 11592,2280 11588,2283 11584,2285 11579,2286 11574,2286 11569,2286 11564,2285 11560,2283 11556,2280 11552,2277 11550,2272 11547,2268 11546,2263 11546,2258 11546,2253 11547,2248 11550,2244 11552,2239 11556,2236 11560,2233 11564,2231 11569,2229 11574,2229 L 11574,2229 Z"/>
         <path fill="none" stroke="rgb(128,128,128)" stroke-width="50" stroke-linejoin="round" d="M 11574,2229 C 11579,2229 11584,2231 11588,2233 11592,2236 11596,2239 11598,2244 11601,2248 11602,2253 11602,2258 11602,2263 11601,2268 11598,2272 11596,2277 11592,2280 11588,2283 11584,2285 11579,2286 11574,2286 11569,2286 11564,2285 11560,2283 11556,2280 11552,2277 11550,2272 11547,2268 11546,2263 11546,2258 11546,2253 11547,2248 11550,2244 11552,2239 11556,2236 11560,2233 11564,2231 11569,2229 11574,2229 Z"/>
         <path fill="rgb(166,185,196)" stroke="none" d="M 11745,2229 C 11750,2229 11755,2231 11759,2233 11763,2236 11767,2239 11769,2244 11772,2248 11773,2253 11773,2258 11773,2263 11772,2268 11769,2272 11767,2277 11763,2280 11759,2283 11755,2285 11750,2286 11745,2286 11740,2286 11735,2285 11731,2283 11727,2280 11723,2277 11721,2272 11718,2268 11717,2263 11717,2258 11717,2253 11718,2248 11721,2244 11723,2239 11727,2236 11731,2233 11735,2231 11740,2229 11745,2229 L 11745,2229 Z"/>
         <path fill="none" stroke="rgb(128,128,128)" stroke-width="50" stroke-linejoin="round" d="M 11745,2229 C 11750,2229 11755,2231 11759,2233 11763,2236 11767,2239 11769,2244 11772,2248 11773,2253 11773,2258 11773,2263 11772,2268 11769,2272 11767,2277 11763,2280 11759,2283 11755,2285 11750,2286 11745,2286 11740,2286 11735,2285 11731,2283 11727,2280 11723,2277 11721,2272 11718,2268 11717,2263 11717,2258 11717,2253 11718,2248 11721,2244 11723,2239 11727,2236 11731,2233 11735,2231 11740,2229 11745,2229 Z"/>
         <path fill="none" stroke="rgb(128,128,128)" stroke-width="50" stroke-linejoin="round" d="M 11517,2454 C 11610,2504 11713,2504 11806,2454"/>
        </g>
       </g>
       <g class="com.sun.star.drawing.CustomShape">
        <g id="id27">
         <rect class="BoundingBox" stroke="none" fill="none" x="11373" y="2549" width="577" height="581"/>
         <path fill="rgb(207,231,245)" stroke="none" d="M 11661,2575 C 11709,2575 11751,2586 11793,2610 11834,2634 11865,2665 11889,2707 11913,2749 11924,2790 11924,2839 11924,2888 11913,2929 11889,2971 11865,3013 11834,3044 11793,3068 11751,3092 11709,3104 11661,3104 11613,3104 11571,3092 11530,3068 11488,3044 11457,3013 11433,2971 11409,2929 11398,2888 11398,2839 11398,2790 11409,2749 11433,2707 11457,2665 11488,2634 11530,2610 11571,2586 11613,2575 11661,2575 L 11661,2575 Z"/>
         <path fill="none" stroke="rgb(128,128,128)" stroke-width="50" stroke-linejoin="round" d="M 11661,2575 C 11709,2575 11751,2586 11793,2610 11834,2634 11865,2665 11889,2707 11913,2749 11924,2790 11924,2839 11924,2888 11913,2929 11889,2971 11865,3013 11834,3044 11793,3068 11751,3092 11709,3104 11661,3104 11613,3104 11571,3092 11530,3068 11488,3044 11457,3013 11433,2971 11409,2929 11398,2888 11398,2839 11398,2790 11409,2749 11433,2707 11457,2665 11488,2634 11530,2610 11571,2586 11613,2575 11661,2575 Z"/>
         <path fill="rgb(166,185,196)" stroke="none" d="M 11574,2730 C 11579,2730 11584,2731 11588,2733 11592,2736 11596,2739 11598,2744 11601,2748 11602,2753 11602,2758 11602,2763 11601,2768 11598,2772 11596,2777 11592,2780 11588,2783 11584,2785 11579,2787 11574,2787 11569,2787 11564,2785 11560,2783 11556,2780 11552,2777 11550,2772 11547,2768 11546,2763 11546,2758 11546,2753 11547,2748 11550,2744 11552,2739 11556,2736 11560,2733 11564,2731 11569,2730 11574,2730 L 11574,2730 Z"/>
         <path fill="none" stroke="rgb(128,128,128)" stroke-width="50" stroke-linejoin="round" d="M 11574,2730 C 11579,2730 11584,2731 11588,2733 11592,2736 11596,2739 11598,2744 11601,2748 11602,2753 11602,2758 11602,2763 11601,2768 11598,2772 11596,2777 11592,2780 11588,2783 11584,2785 11579,2787 11574,2787 11569,2787 11564,2785 11560,2783 11556,2780 11552,2777 11550,2772 11547,2768 11546,2763 11546,2758 11546,2753 11547,2748 11550,2744 11552,2739 11556,2736 11560,2733 11564,2731 11569,2730 11574,2730 Z"/>
         <path fill="rgb(166,185,196)" stroke="none" d="M 11745,2730 C 11750,2730 11755,2731 11759,2733 11763,2736 11767,2739 11769,2744 11772,2748 11773,2753 11773,2758 11773,2763 11772,2768 11769,2772 11767,2777 11763,2780 11759,2783 11755,2785 11750,2787 11745,2787 11740,2787 11735,2785 11731,2783 11727,2780 11723,2777 11721,2772 11718,2768 11717,2763 11717,2758 11717,2753 11718,2748 11721,2744 11723,2739 11727,2736 11731,2733 11735,2731 11740,2730 11745,2730 L 11745,2730 Z"/>
         <path fill="none" stroke="rgb(128,128,128)" stroke-width="50" stroke-linejoin="round" d="M 11745,2730 C 11750,2730 11755,2731 11759,2733 11763,2736 11767,2739 11769,2744 11772,2748 11773,2753 11773,2758 11773,2763 11772,2768 11769,2772 11767,2777 11763,2780 11759,2783 11755,2785 11750,2787 11745,2787 11740,2787 11735,2785 11731,2783 11727,2780 11723,2777 11721,2772 11718,2768 11717,2763 11717,2758 11717,2753 11718,2748 11721,2744 11723,2739 11727,2736 11731,2733 11735,2731 11740,2730 11745,2730 Z"/>
         <path fill="none" stroke="rgb(128,128,128)" stroke-width="50" stroke-linejoin="round" d="M 11517,2954 C 11610,3004 11713,3004 11806,2954"/>
        </g>
       </g>
       <g class="com.sun.star.drawing.CustomShape">
        <g id="id28">
         <rect class="BoundingBox" stroke="none" fill="none" x="11373" y="3077" width="577" height="581"/>
         <path fill="rgb(207,231,245)" stroke="none" d="M 11661,3103 C 11709,3103 11751,3114 11793,3138 11834,3162 11865,3193 11889,3235 11913,3277 11924,3318 11924,3367 11924,3416 11913,3457 11889,3499 11865,3541 11834,3572 11793,3596 11751,3620 11709,3632 11661,3632 11613,3632 11571,3620 11530,3596 11488,3572 11457,3541 11433,3499 11409,3457 11398,3416 11398,3367 11398,3318 11409,3277 11433,3235 11457,3193 11488,3162 11530,3138 11571,3114 11613,3103 11661,3103 L 11661,3103 Z"/>
         <path fill="none" stroke="rgb(128,128,128)" stroke-width="50" stroke-linejoin="round" d="M 11661,3103 C 11709,3103 11751,3114 11793,3138 11834,3162 11865,3193 11889,3235 11913,3277 11924,3318 11924,3367 11924,3416 11913,3457 11889,3499 11865,3541 11834,3572 11793,3596 11751,3620 11709,3632 11661,3632 11613,3632 11571,3620 11530,3596 11488,3572 11457,3541 11433,3499 11409,3457 11398,3416 11398,3367 11398,3318 11409,3277 11433,3235 11457,3193 11488,3162 11530,3138 11571,3114 11613,3103 11661,3103 Z"/>
         <path fill="rgb(166,185,196)" stroke="none" d="M 11574,3258 C 11579,3258 11584,3259 11588,3261 11592,3264 11596,3267 11598,3272 11601,3276 11602,3281 11602,3286 11602,3291 11601,3296 11598,3300 11596,3305 11592,3308 11588,3311 11584,3313 11579,3315 11574,3315 11569,3315 11564,3313 11560,3311 11556,3308 11552,3305 11550,3300 11547,3296 11546,3291 11546,3286 11546,3281 11547,3276 11550,3272 11552,3267 11556,3264 11560,3261 11564,3259 11569,3258 11574,3258 L 11574,3258 Z"/>
         <path fill="none" stroke="rgb(128,128,128)" stroke-width="50" stroke-linejoin="round" d="M 11574,3258 C 11579,3258 11584,3259 11588,3261 11592,3264 11596,3267 11598,3272 11601,3276 11602,3281 11602,3286 11602,3291 11601,3296 11598,3300 11596,3305 11592,3308 11588,3311 11584,3313 11579,3315 11574,3315 11569,3315 11564,3313 11560,3311 11556,3308 11552,3305 11550,3300 11547,3296 11546,3291 11546,3286 11546,3281 11547,3276 11550,3272 11552,3267 11556,3264 11560,3261 11564,3259 11569,3258 11574,3258 Z"/>
         <path fill="rgb(166,185,196)" stroke="none" d="M 11745,3258 C 11750,3258 11755,3259 11759,3261 11763,3264 11767,3267 11769,3272 11772,3276 11773,3281 11773,3286 11773,3291 11772,3296 11769,3300 11767,3305 11763,3308 11759,3311 11755,3313 11750,3315 11745,3315 11740,3315 11735,3313 11731,3311 11727,3308 11723,3305 11721,3300 11718,3296 11717,3291 11717,3286 11717,3281 11718,3276 11721,3272 11723,3267 11727,3264 11731,3261 11735,3259 11740,3258 11745,3258 L 11745,3258 Z"/>
         <path fill="none" stroke="rgb(128,128,128)" stroke-width="50" stroke-linejoin="round" d="M 11745,3258 C 11750,3258 11755,3259 11759,3261 11763,3264 11767,3267 11769,3272 11772,3276 11773,3281 11773,3286 11773,3291 11772,3296 11769,3300 11767,3305 11763,3308 11759,3311 11755,3313 11750,3315 11745,3315 11740,3315 11735,3313 11731,3311 11727,3308 11723,3305 11721,3300 11718,3296 11717,3291 11717,3286 11717,3281 11718,3276 11721,3272 11723,3267 11727,3264 11731,3261 11735,3259 11740,3258 11745,3258 Z"/>
         <path fill="none" stroke="rgb(128,128,128)" stroke-width="50" stroke-linejoin="round" d="M 11517,3482 C 11610,3532 11713,3532 11806,3482"/>
        </g>
       </g>
      </g>
      <g class="com.sun.star.drawing.MeasureShape">
       <g id="id29">
        <rect class="BoundingBox" stroke="none" fill="none" x="8389" y="2125" width="904" height="1086"/>
        <path fill="none" stroke="rgb(0,0,0)" d="M 9090,2413 L 9091,2922"/>
        <path fill="rgb(0,0,0)" stroke="none" d="M 9090,2126 L 8990,2426 9190,2426 9090,2126 Z"/>
        <path fill="rgb(0,0,0)" stroke="none" d="M 9091,3208 L 9191,2908 8991,2908 9091,3208 Z"/>
        <path fill="none" stroke="rgb(0,0,0)" d="M 8390,2127 L 9290,2126"/>
        <path fill="none" stroke="rgb(0,0,0)" d="M 8391,3209 L 9291,3208"/>
       </g>
      </g>
      <g class="com.sun.star.drawing.MeasureShape">
       <g id="id30">
        <rect class="BoundingBox" stroke="none" fill="none" x="12717" y="2126" width="903" height="1531"/>
        <path fill="none" stroke="rgb(0,0,0)" d="M 13418,2414 L 13418,3368"/>
        <path fill="rgb(0,0,0)" stroke="none" d="M 13418,2127 L 13318,2427 13518,2427 13418,2127 Z"/>
        <path fill="rgb(0,0,0)" stroke="none" d="M 13418,3655 L 13518,3355 13318,3355 13418,3655 Z"/>
        <path fill="none" stroke="rgb(0,0,0)" d="M 12718,2127 L 13618,2127"/>
        <path fill="none" stroke="rgb(0,0,0)" d="M 12718,3655 L 13618,3655"/>
       </g>
      </g>
      <g class="com.sun.star.drawing.LineShape">
       <g id="id31">
        <rect class="BoundingBox" stroke="none" fill="none" x="7145" y="1087" width="2483" height="301"/>
        <path fill="none" stroke="rgb(0,0,0)" d="M 7425,1237 L 9197,1237"/>
        <path fill="rgb(0,0,0)" stroke="none" d="M 7442,1264 L 7434,1292 7420,1319 7401,1343 7377,1362 7350,1376 7322,1384 7295,1387 7268,1384 7239,1376 7212,1362 7189,1343 7170,1319 7156,1292 7147,1264 7145,1236 7147,1210 7156,1181 7170,1155 7189,1131 7212,1112 7239,1098 7268,1090 7295,1087 7322,1090 7350,1098 7377,1112 7401,1131 7420,1155 7434,1181 7442,1210 7445,1236 7442,1264 Z"/>
        <path fill="rgb(0,0,0)" stroke="none" d="M 9627,1237 L 9177,1087 9177,1387 9627,1237 Z"/>
       </g>
      </g>
      <g class="com.sun.star.drawing.CustomShape">
       <g id="id32">
        <rect class="BoundingBox" stroke="none" fill="none" x="5058" y="422" width="8692" height="5128"/>
        <path fill="none" stroke="rgb(255,0,0)" stroke-width="100" stroke-linejoin="round" d="M 9404,5499 L 5108,5499 5108,472 13699,472 13699,5499 9404,5499 Z"/>
       </g>
      </g>
      <g class="com.sun.star.drawing.LineShape">
       <g id="id33">
        <rect class="BoundingBox" stroke="none" fill="none" x="3073" y="1151" width="2228" height="301"/>
        <path fill="none" stroke="rgb(0,0,0)" d="M 3353,1301 L 4870,1301"/>
        <path fill="rgb(0,0,0)" stroke="none" d="M 3370,1328 L 3362,1356 3348,1383 3329,1407 3305,1426 3278,1440 3250,1448 3223,1451 3196,1448 3167,1440 3140,1426 3117,1407 3098,1383 3084,1356 3075,1328 3073,1300 3075,1274 3084,1245 3098,1219 3117,1195 3140,1176 3167,1162 3196,1154 3223,1151 3250,1154 3278,1162 3305,1176 3329,1195 3348,1219 3362,1245 3370,1274 3373,1300 3370,1328 Z"/>
        <path fill="rgb(0,0,0)" stroke="none" d="M 5300,1301 L 4850,1151 4850,1451 5300,1301 Z"/>
       </g>
      </g>
      <g class="com.sun.star.drawing.MeasureShape">
       <g id="id34">
        <rect class="BoundingBox" stroke="none" fill="none" x="4444" y="2126" width="903" height="2484"/>
        <path fill="none" stroke="rgb(0,0,0)" d="M 5145,2414 L 5145,4321"/>
        <path fill="rgb(0,0,0)" stroke="none" d="M 5145,2127 L 5045,2427 5245,2427 5145,2127 Z"/>
        <path fill="rgb(0,0,0)" stroke="none" d="M 5145,4608 L 5245,4308 5045,4308 5145,4608 Z"/>
        <path fill="none" stroke="rgb(0,0,0)" d="M 4445,2127 L 5345,2127"/>
        <path fill="none" stroke="rgb(0,0,0)" d="M 4445,4608 L 5345,4608"/>
       </g>
      </g>
      <g class="com.sun.star.drawing.LineShape">
       <g id="id35">
        <rect class="BoundingBox" stroke="none" fill="none" x="11645" y="1136" width="2956" height="313"/>
        <path fill="none" stroke="rgb(0,0,0)" d="M 11925,1287 L 14170,1298"/>
        <path fill="rgb(0,0,0)" stroke="none" d="M 11941,1315 L 11934,1342 11920,1369 11901,1393 11876,1412 11849,1426 11822,1433 11794,1437 11767,1433 11739,1425 11712,1412 11688,1392 11669,1368 11656,1341 11647,1313 11645,1285 11648,1259 11657,1230 11670,1205 11689,1180 11713,1161 11740,1148 11768,1140 11795,1137 11823,1140 11850,1148 11877,1162 11902,1181 11921,1206 11934,1232 11942,1260 11945,1287 11941,1315 Z"/>
        <path fill="rgb(0,0,0)" stroke="none" d="M 14600,1300 L 14151,1148 14149,1448 14600,1300 Z"/>
       </g>
      </g>
     </g>
    </g>
   </g>
  </g>
 </g>
</svg>