<?xml version="1.0" encoding="UTF-8"?>
<!DOCTYPE svg PUBLIC "-//W3C//DTD SVG 1.1//EN" "http://www.w3.org/Graphics/SVG/1.1/DTD/svg11.dtd">
<svg version="1.2" width="160mm" height="60mm" viewBox="0 0 16000 6000" preserveAspectRatio="xMidYMid" fill-rule="evenodd" stroke-width="28.222" stroke-linejoin="round" xmlns="http://www.w3.org/2000/svg" xmlns:ooo="http://xml.openoffice.org/svg/export" xmlns:xlink="http://www.w3.org/1999/xlink" xmlns:presentation="http://sun.com/xmlns/staroffice/presentation" xmlns:smil="http://www.w3.org/2001/SMIL20/" xmlns:anim="urn:oasis:names:tc:opendocument:xmlns:animation:1.0" xml:space="preserve">
 <defs class="ClipPathGroup">
  <clipPath id="presentation_clip_path" clipPathUnits="userSpaceOnUse">
   <rect x="0" y="0" width="16000" height="6000"/>
  </clipPath>
  <clipPath id="presentation_clip_path_shrink" clipPathUnits="userSpaceOnUse">
   <rect x="16" y="6" width="15968" height="5988"/>
  </clipPath>
 </defs>
 <defs class="TextShapeIndex">
  <g ooo:slide="id1" ooo:id-list="id3 id4 id5 id6 id7 id8 id9 id10 id11 id12 id13 id14 id15 id16 id17 id18 id19 id20 id21 id22 id23 id24 id25 id26 id27"/>
 </defs>
 <defs class="EmbeddedBulletChars">
  <g id="bullet-char-template-57356" transform="scale(0.00048828125,-0.00048828125)">
   <path d="M 580,1141 L 1163,571 580,0 -4,571 580,1141 Z"/>
  </g>
  <g id="bullet-char-template-57354" transform="scale(0.00048828125,-0.00048828125)">
   <path d="M 8,1128 L 1137,1128 1137,0 8,0 8,1128 Z"/>
  </g>
  <g id="bullet-char-template-10146" transform="scale(0.00048828125,-0.00048828125)">
   <path d="M 174,0 L 602,739 174,1481 1456,739 174,0 Z M 1358,739 L 309,1346 659,739 1358,739 Z"/>
  </g>
  <g id="bullet-char-template-10132" transform="scale(0.00048828125,-0.00048828125)">
   <path d="M 2015,739 L 1276,0 717,0 1260,543 174,543 174,936 1260,936 717,1481 1274,1481 2015,739 Z"/>
  </g>
  <g id="bullet-char-template-10007" transform="scale(0.00048828125,-0.00048828125)">
   <path d="M 0,-2 C -7,14 -16,27 -25,37 L 356,567 C 262,823 215,952 215,954 215,979 228,992 255,992 264,992 276,990 289,987 310,991 331,999 354,1012 L 381,999 492,748 772,1049 836,1024 860,1049 C 881,1039 901,1025 922,1006 886,937 835,863 770,784 769,783 710,716 594,584 L 774,223 C 774,196 753,168 711,139 L 727,119 C 717,90 699,76 672,76 641,76 570,178 457,381 L 164,-76 C 142,-110 111,-127 72,-127 30,-127 9,-110 8,-76 1,-67 -2,-52 -2,-32 -2,-23 -1,-13 0,-2 Z"/>
  </g>
  <g id="bullet-char-template-10004" transform="scale(0.00048828125,-0.00048828125)">
   <path d="M 285,-33 C 182,-33 111,30 74,156 52,228 41,333 41,471 41,549 55,616 82,672 116,743 169,778 240,778 293,778 328,747 346,684 L 369,508 C 377,444 397,411 428,410 L 1163,1116 C 1174,1127 1196,1133 1229,1133 1271,1133 1292,1118 1292,1087 L 1292,965 C 1292,929 1282,901 1262,881 L 442,47 C 390,-6 338,-33 285,-33 Z"/>
  </g>
  <g id="bullet-char-template-9679" transform="scale(0.00048828125,-0.00048828125)">
   <path d="M 813,0 C 632,0 489,54 383,161 276,268 223,411 223,592 223,773 276,916 383,1023 489,1130 632,1184 813,1184 992,1184 1136,1130 1245,1023 1353,916 1407,772 1407,592 1407,412 1353,268 1245,161 1136,54 992,0 813,0 Z"/>
  </g>
  <g id="bullet-char-template-8226" transform="scale(0.00048828125,-0.00048828125)">
   <path d="M 346,457 C 273,457 209,483 155,535 101,586 74,649 74,723 74,796 101,859 155,911 209,963 273,989 346,989 419,989 480,963 531,910 582,859 608,796 608,723 608,648 583,586 532,535 482,483 420,457 346,457 Z"/>
  </g>
  <g id="bullet-char-template-8211" transform="scale(0.00048828125,-0.00048828125)">
   <path d="M -4,459 L 1135,459 1135,606 -4,606 -4,459 Z"/>
  </g>
  <g id="bullet-char-template-61548" transform="scale(0.00048828125,-0.00048828125)">
   <path d="M 173,740 C 173,903 231,1043 346,1159 462,1274 601,1332 765,1332 928,1332 1067,1274 1183,1159 1299,1043 1357,903 1357,740 1357,577 1299,437 1183,322 1067,206 928,148 765,148 601,148 462,206 346,322 231,437 173,577 173,740 Z"/>
  </g>
 </defs>
 <defs class="TextEmbeddedBitmaps"/>
 <g>
  <g id="id2" class="Master_Slide">
   <g id="bg-id2" class="Background"/>
   <g id="bo-id2" class="BackgroundObjects"/>
  </g>
 </g>
 <g class="SlideGroup">
  <g>
   <g id="container-id1">
    <g id="id1" class="Slide" clip-path="url(#presentation_clip_path)">
     <g class="Page">
      <g class="com.sun.star.drawing.CustomShape">
       <g id="id3">
        <rect class="BoundingBox" stroke="none" fill="none" x="6874" y="2874" width="1253" height="1253"/>
        <path fill="rgb(207,231,245)" stroke="none" d="M 7500,2900 C 7611,2900 7705,2925 7800,2980 7896,3035 7965,3104 8020,3200 8075,3295 8101,3389 8101,3500 8101,3611 8075,3705 8020,3800 7965,3896 7896,3965 7800,4020 7705,4075 7611,4101 7500,4101 7389,4101 7295,4075 7200,4020 7104,3965 7035,3896 6980,3800 6925,3705 6900,3611 6900,3500 6900,3389 6925,3295 6980,3200 7035,3104 7104,3035 7200,2980 7295,2925 7389,2900 7500,2900 L 7500,2900 Z"/>
        <path fill="none" stroke="rgb(128,128,128)" stroke-width="50" stroke-linejoin="round" d="M 7500,2900 C 7611,2900 7705,2925 7800,2980 7896,3035 7965,3104 8020,3200 8075,3295 8101,3389 8101,3500 8101,3611 8075,3705 8020,3800 7965,3896 7896,3965 7800,4020 7705,4075 7611,4101 7500,4101 7389,4101 7295,4075 7200,4020 7104,3965 7035,3896 6980,3800 6925,3705 6900,3611 6900,3500 6900,3389 6925,3295 6980,3200 7035,3104 7104,3035 7200,2980 7295,2925 7389,2900 7500,2900 L 7500,2900 Z"/>
        <path fill="rgb(166,185,196)" stroke="none" d="M 7305,3252 C 7317,3252 7327,3254 7337,3260 7348,3266 7355,3273 7361,3284 7367,3294 7370,3304 7370,3316 7370,3328 7367,3338 7361,3348 7355,3359 7348,3366 7337,3372 7327,3378 7317,3381 7305,3381 7293,3381 7283,3378 7273,3372 7262,3366 7255,3359 7249,3348 7243,3338 7241,3328 7241,3316 7241,3304 7243,3294 7249,3284 7255,3273 7262,3266 7273,3260 7283,3254 7293,3252 7305,3252 L 7305,3252 Z"/>
        <path fill="none" stroke="rgb(128,128,128)" stroke-width="50" stroke-linejoin="round" d="M 7305,3252 C 7317,3252 7327,3254 7337,3260 7348,3266 7355,3273 7361,3284 7367,3294 7370,3304 7370,3316 7370,3328 7367,3338 7361,3348 7355,3359 7348,3366 7337,3372 7327,3378 7317,3381 7305,3381 7293,3381 7283,3378 7273,3372 7262,3366 7255,3359 7249,3348 7243,3338 7241,3328 7241,3316 7241,3304 7243,3294 7249,3284 7255,3273 7262,3266 7273,3260 7283,3254 7293,3252 7305,3252 Z"/>
        <path fill="rgb(166,185,196)" stroke="none" d="M 7693,3252 C 7705,3252 7715,3254 7725,3260 7736,3266 7743,3273 7749,3284 7755,3294 7758,3304 7758,3316 7758,3328 7755,3338 7749,3348 7743,3359 7736,3366 7725,3372 7715,3378 7705,3381 7693,3381 7681,3381 7671,3378 7661,3372 7650,3366 7643,3359 7637,3348 7631,3338 7629,3328 7629,3316 7629,3304 7631,3294 7637,3284 7643,3273 7650,3266 7661,3260 7671,3254 7681,3252 7693,3252 L 7693,3252 Z"/>
        <path fill="none" stroke="rgb(128,128,128)" stroke-width="50" stroke-linejoin="round" d="M 7693,3252 C 7705,3252 7715,3254 7725,3260 7736,3266 7743,3273 7749,3284 7755,3294 7758,3304 7758,3316 7758,3328 7755,3338 7749,3348 7743,3359 7736,3366 7725,3372 7715,3378 7705,3381 7693,3381 7681,3381 7671,3378 7661,3372 7650,3366 7643,3359 7637,3348 7631,3338 7629,3328 7629,3316 7629,3304 7631,3294 7637,3284 7643,3273 7650,3266 7661,3260 7671,3254 7681,3252 7693,3252 Z"/>
        <path fill="none" stroke="rgb(128,128,128)" stroke-width="50" stroke-linejoin="round" d="M 7170,3762 C 7382,3874 7618,3874 7830,3762"/>
       </g>
      </g>
      <g class="com.sun.star.drawing.CustomShape">
       <g id="id4">
        <rect class="BoundingBox" stroke="none" fill="none" x="4474" y="2874" width="1253" height="1253"/>
        <path fill="rgb(207,231,245)" stroke="none" d="M 5100,2900 C 5211,2900 5305,2925 5400,2980 5496,3035 5565,3104 5620,3200 5675,3295 5701,3389 5701,3500 5701,3611 5675,3705 5620,3800 5565,3896 5496,3965 5400,4020 5305,4075 5211,4101 5100,4101 4989,4101 4895,4075 4800,4020 4704,3965 4635,3896 4580,3800 4525,3705 4500,3611 4500,3500 4500,3389 4525,3295 4580,3200 4635,3104 4704,3035 4800,2980 4895,2925 4989,2900 5100,2900 L 5100,2900 Z"/>
        <path fill="none" stroke="rgb(128,128,128)" stroke-width="50" stroke-linejoin="round" d="M 5100,2900 C 5211,2900 5305,2925 5400,2980 5496,3035 5565,3104 5620,3200 5675,3295 5701,3389 5701,3500 5701,3611 5675,3705 5620,3800 5565,3896 5496,3965 5400,4020 5305,4075 5211,4101 5100,4101 4989,4101 4895,4075 4800,4020 4704,3965 4635,3896 4580,3800 4525,3705 4500,3611 4500,3500 4500,3389 4525,3295 4580,3200 4635,3104 4704,3035 4800,2980 4895,2925 4989,2900 5100,2900 L 5100,2900 Z"/>
        <path fill="rgb(166,185,196)" stroke="none" d="M 4905,3252 C 4917,3252 4927,3254 4937,3260 4948,3266 4955,3273 4961,3284 4967,3294 4970,3304 4970,3316 4970,3328 4967,3338 4961,3348 4955,3359 4948,3366 4937,3372 4927,3378 4917,3381 4905,3381 4893,3381 4883,3378 4873,3372 4862,3366 4855,3359 4849,3348 4843,3338 4841,3328 4841,3316 4841,3304 4843,3294 4849,3284 4855,3273 4862,3266 4873,3260 4883,3254 4893,3252 4905,3252 L 4905,3252 Z"/>
        <path fill="none" stroke="rgb(128,128,128)" stroke-width="50" stroke-linejoin="round" d="M 4905,3252 C 4917,3252 4927,3254 4937,3260 4948,3266 4955,3273 4961,3284 4967,3294 4970,3304 4970,3316 4970,3328 4967,3338 4961,3348 4955,3359 4948,3366 4937,3372 4927,3378 4917,3381 4905,3381 4893,3381 4883,3378 4873,3372 4862,3366 4855,3359 4849,3348 4843,3338 4841,3328 4841,3316 4841,3304 4843,3294 4849,3284 4855,3273 4862,3266 4873,3260 4883,3254 4893,3252 4905,3252 Z"/>
        <path fill="rgb(166,185,196)" stroke="none" d="M 5293,3252 C 5305,3252 5315,3254 5325,3260 5336,3266 5343,3273 5349,3284 5355,3294 5358,3304 5358,3316 5358,3328 5355,3338 5349,3348 5343,3359 5336,3366 5325,3372 5315,3378 5305,3381 5293,3381 5281,3381 5271,3378 5261,3372 5250,3366 5243,3359 5237,3348 5231,3338 5229,3328 5229,3316 5229,3304 5231,3294 5237,3284 5243,3273 5250,3266 5261,3260 5271,3254 5281,3252 5293,3252 L 5293,3252 Z"/>
        <path fill="none" stroke="rgb(128,128,128)" stroke-width="50" stroke-linejoin="round" d="M 5293,3252 C 5305,3252 5315,3254 5325,3260 5336,3266 5343,3273 5349,3284 5355,3294 5358,3304 5358,3316 5358,3328 5355,3338 5349,3348 5343,3359 5336,3366 5325,3372 5315,3378 5305,3381 5293,3381 5281,3381 5271,3378 5261,3372 5250,3366 5243,3359 5237,3348 5231,3338 5229,3328 5229,3316 5229,3304 5231,3294 5237,3284 5243,3273 5250,3266 5261,3260 5271,3254 5281,3252 5293,3252 Z"/>
        <path fill="none" stroke="rgb(128,128,128)" stroke-width="50" stroke-linejoin="round" d="M 4770,3762 C 4982,3874 5218,3874 5430,3762"/>
       </g>
      </g>
      <g class="com.sun.star.drawing.CustomShape">
       <g id="id5">
        <rect class="BoundingBox" stroke="none" fill="none" x="2874" y="2874" width="1253" height="1253"/>
        <path fill="rgb(207,231,245)" stroke="none" d="M 3500,2900 C 3611,2900 3705,2925 3800,2980 3896,3035 3965,3104 4020,3200 4075,3295 4101,3389 4101,3500 4101,3611 4075,3705 4020,3800 3965,3896 3896,3965 3800,4020 3705,4075 3611,4101 3500,4101 3389,4101 3295,4075 3200,4020 3104,3965 3035,3896 2980,3800 2925,3705 2900,3611 2900,3500 2900,3389 2925,3295 2980,3200 3035,3104 3104,3035 3200,2980 3295,2925 3389,2900 3500,2900 L 3500,2900 Z"/>
        <path fill="none" stroke="rgb(128,128,128)" stroke-width="50" stroke-linejoin="round" d="M 3500,2900 C 3611,2900 3705,2925 3800,2980 3896,3035 3965,3104 4020,3200 4075,3295 4101,3389 4101,3500 4101,3611 4075,3705 4020,3800 3965,3896 3896,3965 3800,4020 3705,4075 3611,4101 3500,4101 3389,4101 3295,4075 3200,4020 3104,3965 3035,3896 2980,3800 2925,3705 2900,3611 2900,3500 2900,3389 2925,3295 2980,3200 3035,3104 3104,3035 3200,2980 3295,2925 3389,2900 3500,2900 L 3500,2900 Z"/>
        <path fill="rgb(166,185,196)" stroke="none" d="M 3305,3252 C 3317,3252 3327,3254 3337,3260 3348,3266 3355,3273 3361,3284 3367,3294 3370,3304 3370,3316 3370,3328 3367,3338 3361,3348 3355,3359 3348,3366 3337,3372 3327,3378 3317,3381 3305,3381 3293,3381 3283,3378 3273,3372 3262,3366 3255,3359 3249,3348 3243,3338 3241,3328 3241,3316 3241,3304 3243,3294 3249,3284 3255,3273 3262,3266 3273,3260 3283,3254 3293,3252 3305,3252 L 3305,3252 Z"/>
        <path fill="none" stroke="rgb(128,128,128)" stroke-width="50" stroke-linejoin="round" d="M 3305,3252 C 3317,3252 3327,3254 3337,3260 3348,3266 3355,3273 3361,3284 3367,3294 3370,3304 3370,3316 3370,3328 3367,3338 3361,3348 3355,3359 3348,3366 3337,3372 3327,3378 3317,3381 3305,3381 3293,3381 3283,3378 3273,3372 3262,3366 3255,3359 3249,3348 3243,3338 3241,3328 3241,3316 3241,3304 3243,3294 3249,3284 3255,3273 3262,3266 3273,3260 3283,3254 3293,3252 3305,3252 Z"/>
        <path fill="rgb(166,185,196)" stroke="none" d="M 3693,3252 C 3705,3252 3715,3254 3725,3260 3736,3266 3743,3273 3749,3284 3755,3294 3758,3304 3758,3316 3758,3328 3755,3338 3749,3348 3743,3359 3736,3366 3725,3372 3715,3378 3705,3381 3693,3381 3681,3381 3671,3378 3661,3372 3650,3366 3643,3359 3637,3348 3631,3338 3629,3328 3629,3316 3629,3304 3631,3294 3637,3284 3643,3273 3650,3266 3661,3260 3671,3254 3681,3252 3693,3252 L 3693,3252 Z"/>
        <path fill="none" stroke="rgb(128,128,128)" stroke-width="50" stroke-linejoin="round" d="M 3693,3252 C 3705,3252 3715,3254 3725,3260 3736,3266 3743,3273 3749,3284 3755,3294 3758,3304 3758,3316 3758,3328 3755,3338 3749,3348 3743,3359 3736,3366 3725,3372 3715,3378 3705,3381 3693,3381 3681,3381 3671,3378 3661,3372 3650,3366 3643,3359 3637,3348 3631,3338 3629,3328 3629,3316 3629,3304 3631,3294 3637,3284 3643,3273 3650,3266 3661,3260 3671,3254 3681,3252 3693,3252 Z"/>
        <path fill="none" stroke="rgb(128,128,128)" stroke-width="50" stroke-linejoin="round" d="M 3170,3762 C 3382,3874 3618,3874 3830,3762"/>
       </g>
      </g>
      <g class="com.sun.star.drawing.CustomShape">
       <g id="id6">
        <rect class="BoundingBox" stroke="none" fill="none" x="9274" y="2874" width="1253" height="1253"/>
        <path fill="rgb(207,231,245)" stroke="none" d="M 9900,2900 C 10011,2900 10105,2925 10200,2980 10296,3035 10365,3104 10420,3200 10475,3295 10501,3389 10501,3500 10501,3611 10475,3705 10420,3800 10365,3896 10296,3965 10200,4020 10105,4075 10011,4101 9900,4101 9789,4101 9695,4075 9600,4020 9504,3965 9435,3896 9380,3800 9325,3705 9300,3611 9300,3500 9300,3389 9325,3295 9380,3200 9435,3104 9504,3035 9600,2980 9695,2925 9789,2900 9900,2900 L 9900,2900 Z"/>
        <path fill="none" stroke="rgb(128,128,128)" stroke-width="50" stroke-linejoin="round" d="M 9900,2900 C 10011,2900 10105,2925 10200,2980 10296,3035 10365,3104 10420,3200 10475,3295 10501,3389 10501,3500 10501,3611 10475,3705 10420,3800 10365,3896 10296,3965 10200,4020 10105,4075 10011,4101 9900,4101 9789,4101 9695,4075 9600,4020 9504,3965 9435,3896 9380,3800 9325,3705 9300,3611 9300,3500 9300,3389 9325,3295 9380,3200 9435,3104 9504,3035 9600,2980 9695,2925 9789,2900 9900,2900 Z"/>
        <path fill="rgb(166,185,196)" stroke="none" d="M 9705,3252 C 9717,3252 9727,3254 9737,3260 9748,3266 9755,3273 9761,3284 9767,3294 9770,3304 9770,3316 9770,3328 9767,3338 9761,3348 9755,3359 9748,3366 9737,3372 9727,3378 9717,3381 9705,3381 9693,3381 9683,3378 9673,3372 9662,3366 9655,3359 9649,3348 9643,3338 9641,3328 9641,3316 9641,3304 9643,3294 9649,3284 9655,3273 9662,3266 9673,3260 9683,3254 9693,3252 9705,3252 L 9705,3252 Z"/>
        <path fill="none" stroke="rgb(128,128,128)" stroke-width="50" stroke-linejoin="round" d="M 9705,3252 C 9717,3252 9727,3254 9737,3260 9748,3266 9755,3273 9761,3284 9767,3294 9770,3304 9770,3316 9770,3328 9767,3338 9761,3348 9755,3359 9748,3366 9737,3372 9727,3378 9717,3381 9705,3381 9693,3381 9683,3378 9673,3372 9662,3366 9655,3359 9649,3348 9643,3338 9641,3328 9641,3316 9641,3304 9643,3294 9649,3284 9655,3273 9662,3266 9673,3260 9683,3254 9693,3252 9705,3252 Z"/>
        <path fill="rgb(166,185,196)" stroke="none" d="M 10093,3252 C 10105,3252 10115,3254 10125,3260 10136,3266 10143,3273 10149,3284 10155,3294 10158,3304 10158,3316 10158,3328 10155,3338 10149,3348 10143,3359 10136,3366 10125,3372 10115,3378 10105,3381 10093,3381 10081,3381 10071,3378 10061,3372 10050,3366 10043,3359 10037,3348 10031,3338 10029,3328 10029,3316 10029,3304 10031,3294 10037,3284 10043,3273 10050,3266 10061,3260 10071,3254 10081,3252 10093,3252 L 10093,3252 Z"/>
        <path fill="none" stroke="rgb(128,128,128)" stroke-width="50" stroke-linejoin="round" d="M 10093,3252 C 10105,3252 10115,3254 10125,3260 10136,3266 10143,3273 10149,3284 10155,3294 10158,3304 10158,3316 10158,3328 10155,3338 10149,3348 10143,3359 10136,3366 10125,3372 10115,3378 10105,3381 10093,3381 10081,3381 10071,3378 10061,3372 10050,3366 10043,3359 10037,3348 10031,3338 10029,3328 10029,3316 10029,3304 10031,3294 10037,3284 10043,3273 10050,3266 10061,3260 10071,3254 10081,3252 10093,3252 Z"/>
        <path fill="none" stroke="rgb(128,128,128)" stroke-width="50" stroke-linejoin="round" d="M 9570,3762 C 9782,3874 10018,3874 10230,3762"/>
       </g>
      </g>
      <g class="com.sun.star.drawing.CustomShape">
       <g id="id7">
        <rect class="BoundingBox" stroke="none" fill="none" x="10874" y="2874" width="1253" height="1253"/>
        <path fill="rgb(207,231,245)" stroke="none" d="M 11500,2900 C 11611,2900 11705,2925 11800,2980 11896,3035 11965,3104 12020,3200 12075,3295 12101,3389 12101,3500 12101,3611 12075,3705 12020,3800 11965,3896 11896,3965 11800,4020 11705,4075 11611,4101 11500,4101 11389,4101 11295,4075 11200,4020 11104,3965 11035,3896 10980,3800 10925,3705 10900,3611 10900,3500 10900,3389 10925,3295 10980,3200 11035,3104 11104,3035 11200,2980 11295,2925 11389,2900 11500,2900 L 11500,2900 Z"/>
        <path fill="none" stroke="rgb(128,128,128)" stroke-width="50" stroke-linejoin="round" d="M 11500,2900 C 11611,2900 11705,2925 11800,2980 11896,3035 11965,3104 12020,3200 12075,3295 12101,3389 12101,3500 12101,3611 12075,3705 12020,3800 11965,3896 11896,3965 11800,4020 11705,4075 11611,4101 11500,4101 11389,4101 11295,4075 11200,4020 11104,3965 11035,3896 10980,3800 10925,3705 10900,3611 10900,3500 10900,3389 10925,3295 10980,3200 11035,3104 11104,3035 11200,2980 11295,2925 11389,2900 11500,2900 Z"/>
        <path fill="rgb(166,185,196)" stroke="none" d="M 11305,3252 C 11317,3252 11327,3254 11337,3260 11348,3266 11355,3273 11361,3284 11367,3294 11370,3304 11370,3316 11370,3328 11367,3338 11361,3348 11355,3359 11348,3366 11337,3372 11327,3378 11317,3381 11305,3381 11293,3381 11283,3378 11273,3372 11262,3366 11255,3359 11249,3348 11243,3338 11241,3328 11241,3316 11241,3304 11243,3294 11249,3284 11255,3273 11262,3266 11273,3260 11283,3254 11293,3252 11305,3252 L 11305,3252 Z"/>
        <path fill="none" stroke="rgb(128,128,128)" stroke-width="50" stroke-linejoin="round" d="M 11305,3252 C 11317,3252 11327,3254 11337,3260 11348,3266 11355,3273 11361,3284 11367,3294 11370,3304 11370,3316 11370,3328 11367,3338 11361,3348 11355,3359 11348,3366 11337,3372 11327,3378 11317,3381 11305,3381 11293,3381 11283,3378 11273,3372 11262,3366 11255,3359 11249,3348 11243,3338 11241,3328 11241,3316 11241,3304 11243,3294 11249,3284 11255,3273 11262,3266 11273,3260 11283,3254 11293,3252 11305,3252 Z"/>
        <path fill="rgb(166,185,196)" stroke="none" d="M 11693,3252 C 11705,3252 11715,3254 11725,3260 11736,3266 11743,3273 11749,3284 11755,3294 11758,3304 11758,3316 11758,3328 11755,3338 11749,3348 11743,3359 11736,3366 11725,3372 11715,3378 11705,3381 11693,3381 11681,3381 11671,3378 11661,3372 11650,3366 11643,3359 11637,3348 11631,3338 11629,3328 11629,3316 11629,3304 11631,3294 11637,3284 11643,3273 11650,3266 11661,3260 11671,3254 11681,3252 11693,3252 L 11693,3252 Z"/>
        <path fill="none" stroke="rgb(128,128,128)" stroke-width="50" stroke-linejoin="round" d="M 11693,3252 C 11705,3252 11715,3254 11725,3260 11736,3266 11743,3273 11749,3284 11755,3294 11758,3304 11758,3316 11758,3328 11755,3338 11749,3348 11743,3359 11736,3366 11725,3372 11715,3378 11705,3381 11693,3381 11681,3381 11671,3378 11661,3372 11650,3366 11643,3359 11637,3348 11631,3338 11629,3328 11629,3316 11629,3304 11631,3294 11637,3284 11643,3273 11650,3266 11661,3260 11671,3254 11681,3252 11693,3252 Z"/>
        <path fill="none" stroke="rgb(128,128,128)" stroke-width="50" stroke-linejoin="round" d="M 11170,3762 C 11382,3874 11618,3874 11830,3762"/>
       </g>
      </g>
      <g class="com.sun.star.drawing.CustomShape">
       <g id="id8">
        <rect class="BoundingBox" stroke="none" fill="none" x="12474" y="2874" width="1253" height="1253"/>
        <path fill="rgb(207,231,245)" stroke="none" d="M 13100,2900 C 13211,2900 13305,2925 13400,2980 13496,3035 13565,3104 13620,3200 13675,3295 13701,3389 13701,3500 13701,3611 13675,3705 13620,3800 13565,3896 13496,3965 13400,4020 13305,4075 13211,4101 13100,4101 12989,4101 12895,4075 12800,4020 12704,3965 12635,3896 12580,3800 12525,3705 12500,3611 12500,3500 12500,3389 12525,3295 12580,3200 12635,3104 12704,3035 12800,2980 12895,2925 12989,2900 13100,2900 L 13100,2900 Z"/>
        <path fill="none" stroke="rgb(128,128,128)" stroke-width="50" stroke-linejoin="round" d="M 13100,2900 C 13211,2900 13305,2925 13400,2980 13496,3035 13565,3104 13620,3200 13675,3295 13701,3389 13701,3500 13701,3611 13675,3705 13620,3800 13565,3896 13496,3965 13400,4020 13305,4075 13211,4101 13100,4101 12989,4101 12895,4075 12800,4020 12704,3965 12635,3896 12580,3800 12525,3705 12500,3611 12500,3500 12500,3389 12525,3295 12580,3200 12635,3104 12704,3035 12800,2980 12895,2925 12989,2900 13100,2900 Z"/>
        <path fill="rgb(166,185,196)" stroke="none" d="M 12905,3252 C 12917,3252 12927,3254 12937,3260 12948,3266 12955,3273 12961,3284 12967,3294 12970,3304 12970,3316 12970,3328 12967,3338 12961,3348 12955,3359 12948,3366 12937,3372 12927,3378 12917,3381 12905,3381 12893,3381 12883,3378 12873,3372 12862,3366 12855,3359 12849,3348 12843,3338 12841,3328 12841,3316 12841,3304 12843,3294 12849,3284 12855,3273 12862,3266 12873,3260 12883,3254 12893,3252 12905,3252 L 12905,3252 Z"/>
        <path fill="none" stroke="rgb(128,128,128)" stroke-width="50" stroke-linejoin="round" d="M 12905,3252 C 12917,3252 12927,3254 12937,3260 12948,3266 12955,3273 12961,3284 12967,3294 12970,3304 12970,3316 12970,3328 12967,3338 12961,3348 12955,3359 12948,3366 12937,3372 12927,3378 12917,3381 12905,3381 12893,3381 12883,3378 12873,3372 12862,3366 12855,3359 12849,3348 12843,3338 12841,3328 12841,3316 12841,3304 12843,3294 12849,3284 12855,3273 12862,3266 12873,3260 12883,3254 12893,3252 12905,3252 Z"/>
        <path fill="rgb(166,185,196)" stroke="none" d="M 13293,3252 C 13305,3252 13315,3254 13325,3260 13336,3266 13343,3273 13349,3284 13355,3294 13358,3304 13358,3316 13358,3328 13355,3338 13349,3348 13343,3359 13336,3366 13325,3372 13315,3378 13305,3381 13293,3381 13281,3381 13271,3378 13261,3372 13250,3366 13243,3359 13237,3348 13231,3338 13229,3328 13229,3316 13229,3304 13231,3294 13237,3284 13243,3273 13250,3266 13261,3260 13271,3254 13281,3252 13293,3252 L 13293,3252 Z"/>
        <path fill="none" stroke="rgb(128,128,128)" stroke-width="50" stroke-linejoin="round" d="M 13293,3252 C 13305,3252 13315,3254 13325,3260 13336,3266 13343,3273 13349,3284 13355,3294 13358,3304 13358,3316 13358,3328 13355,3338 13349,3348 13343,3359 13336,3366 13325,3372 13315,3378 13305,3381 13293,3381 13281,3381 13271,3378 13261,3372 13250,3366 13243,3359 13237,3348 13231,3338 13229,3328 13229,3316 13229,3304 13231,3294 13237,3284 13243,3273 13250,3266 13261,3260 13271,3254 13281,3252 13293,3252 Z"/>
        <path fill="none" stroke="rgb(128,128,128)" stroke-width="50" stroke-linejoin="round" d="M 12770,3762 C 12982,3874 13218,3874 13430,3762"/>
       </g>
      </g>
      <g class="com.sun.star.drawing.CustomShape">
       <g id="id9">
        <rect class="BoundingBox" stroke="none" fill="none" x="2775" y="2075" width="1451" height="2251"/>
        <path fill="none" stroke="rgb(128,128,128)" stroke-width="50" stroke-linejoin="round" d="M 3500,4300 L 2800,4300 2800,2100 4200,2100 4200,4300 3500,4300 Z"/>
       </g>
      </g>
      <g class="com.sun.star.drawing.CustomShape">
       <g id="id10">
        <rect class="BoundingBox" stroke="none" fill="none" x="4375" y="2075" width="1451" height="2251"/>
        <path fill="none" stroke="rgb(128,128,128)" stroke-width="50" stroke-linejoin="round" d="M 5100,4300 L 4400,4300 4400,2100 5800,2100 5800,4300 5100,4300 Z"/>
       </g>
      </g>
      <g class="com.sun.star.drawing.CustomShape">
       <g id="id11">
        <rect class="BoundingBox" stroke="none" fill="none" x="9175" y="2075" width="1451" height="2251"/>
        <path fill="none" stroke="rgb(128,128,128)" stroke-width="50" stroke-linejoin="round" d="M 9900,4300 L 9200,4300 9200,2100 10600,2100 10600,4300 9900,4300 Z"/>
       </g>
      </g>
      <g class="com.sun.star.drawing.CustomShape">
       <g id="id12">
        <rect class="BoundingBox" stroke="none" fill="none" x="10775" y="2075" width="1451" height="2251"/>
        <path fill="none" stroke="rgb(128,128,128)" stroke-width="50" stroke-linejoin="round" d="M 11500,4300 L 10800,4300 10800,2100 12200,2100 12200,4300 11500,4300 Z"/>
       </g>
      </g>
      <g class="com.sun.star.drawing.CustomShape">
       <g id="id13">
        <rect class="BoundingBox" stroke="none" fill="none" x="12375" y="2075" width="1451" height="2251"/>
        <path fill="none" stroke="rgb(128,128,128)" stroke-width="50" stroke-linejoin="round" d="M 13100,4300 L 12400,4300 12400,2100 13800,2100 13800,4300 13100,4300 Z"/>
       </g>
      </g>
      <g class="com.sun.star.drawing.LineShape">
       <g id="id14">
        <rect class="BoundingBox" stroke="none" fill="none" x="9900" y="2260" width="1001" height="281"/>
        <path fill="none" stroke="rgb(0,0,0)" stroke-width="50" stroke-linejoin="round" d="M 10161,2400 L 10499,2400"/>
        <path fill="rgb(0,0,0)" stroke="none" d="M 10177,2426 L 10170,2451 10157,2476 10139,2499 10116,2517 10091,2530 10066,2537 10040,2540 10014,2537 9988,2530 9963,2517 9941,2499 9923,2476 9911,2451 9902,2426 9900,2399 9902,2374 9911,2348 9923,2324 9941,2301 9963,2283 9988,2270 10014,2263 10040,2260 10066,2263 10091,2270 10116,2283 10139,2301 10157,2324 10170,2348 10177,2374 10180,2399 10177,2426 Z"/>
        <path fill="rgb(0,0,0)" stroke="none" d="M 10900,2400 L 10480,2260 10480,2540 10900,2400 Z"/>
       </g>
      </g>
      <g class="com.sun.star.drawing.LineShape">
       <g id="id15">
        <rect class="BoundingBox" stroke="none" fill="none" x="11500" y="2260" width="1001" height="281"/>
        <path fill="none" stroke="rgb(0,0,0)" stroke-width="50" stroke-linejoin="round" d="M 11761,2400 L 12099,2400"/>
        <path fill="rgb(0,0,0)" stroke="none" d="M 11777,2426 L 11770,2451 11757,2476 11739,2499 11716,2517 11691,2530 11666,2537 11640,2540 11614,2537 11588,2530 11563,2517 11541,2499 11523,2476 11511,2451 11502,2426 11500,2399 11502,2374 11511,2348 11523,2324 11541,2301 11563,2283 11588,2270 11614,2263 11640,2260 11666,2263 11691,2270 11716,2283 11739,2301 11757,2324 11770,2348 11777,2374 11780,2399 11777,2426 Z"/>
        <path fill="rgb(0,0,0)" stroke="none" d="M 12500,2400 L 12080,2260 12080,2540 12500,2400 Z"/>
       </g>
      </g>
      <g class="com.sun.star.drawing.LineShape">
       <g id="id16">
        <rect class="BoundingBox" stroke="none" fill="none" x="4200" y="2360" width="901" height="281"/>
        <path fill="none" stroke="rgb(0,0,0)" stroke-width="50" stroke-linejoin="round" d="M 4839,2500 L 4601,2500"/>
        <path fill="rgb(0,0,0)" stroke="none" d="M 4823,2474 L 4830,2449 4843,2424 4861,2401 4884,2383 4909,2370 4934,2363 4960,2360 4986,2363 5012,2370 5037,2383 5059,2401 5077,2424 5089,2449 5098,2474 5100,2501 5098,2526 5089,2552 5077,2576 5059,2599 5037,2617 5012,2630 4986,2637 4960,2640 4934,2637 4909,2630 4884,2617 4861,2599 4843,2576 4830,2552 4823,2526 4820,2501 4823,2474 Z"/>
        <path fill="rgb(0,0,0)" stroke="none" d="M 4200,2500 L 4620,2640 4620,2360 4200,2500 Z"/>
       </g>
      </g>
      <g class="com.sun.star.drawing.PolyLineShape">
       <g id="id17">
        <rect class="BoundingBox" stroke="none" fill="none" x="1560" y="2362" width="1941" height="1542"/>
        <path fill="none" stroke="rgb(0,0,0)" stroke-width="50" stroke-linejoin="round" d="M 3239,2503 L 1700,2503 1700,3501"/>
        <path fill="rgb(0,0,0)" stroke="none" d="M 3223,2477 L 3230,2452 3243,2427 3261,2404 3284,2386 3309,2373 3334,2366 3360,2363 3386,2366 3412,2373 3437,2386 3459,2404 3477,2427 3489,2452 3498,2477 3500,2503 3498,2528 3489,2555 3477,2579 3459,2602 3437,2620 3412,2632 3386,2640 3360,2643 3334,2640 3309,2632 3284,2620 3261,2602 3243,2579 3230,2555 3223,2529 3220,2504 3223,2477 Z"/>
        <path fill="rgb(0,0,0)" stroke="none" d="M 1700,3903 L 1840,3483 1560,3483 1700,3903 Z"/>
       </g>
      </g>
      <g class="com.sun.star.drawing.PolyLineShape">
       <g id="id18">
        <rect class="BoundingBox" stroke="none" fill="none" x="13100" y="2260" width="1541" height="1444"/>
        <path fill="none" stroke="rgb(0,0,0)" stroke-width="50" stroke-linejoin="round" d="M 13362,2400 L 14500,2403 14500,3301"/>
        <path fill="rgb(0,0,0)" stroke="none" d="M 13377,2426 L 13370,2451 13357,2476 13339,2499 13316,2517 13291,2530 13266,2537 13240,2540 13214,2537 13188,2529 13163,2517 13141,2499 13123,2476 13111,2451 13102,2425 13100,2399 13103,2374 13111,2348 13123,2324 13141,2301 13163,2283 13189,2270 13215,2263 13240,2260 13266,2263 13291,2271 13317,2283 13340,2301 13357,2324 13370,2348 13377,2375 13380,2400 13377,2426 Z"/>
        <path fill="rgb(0,0,0)" stroke="none" d="M 14500,3702 L 14640,3282 14360,3282 14500,3702 Z"/>
       </g>
      </g>
      <g class="com.sun.star.drawing.CustomShape">
       <g id="id19">
        <rect class="BoundingBox" stroke="none" fill="none" x="6125" y="2125" width="2751" height="2651"/>
        <path fill="none" stroke="rgb(255,0,0)" stroke-width="150" stroke-linejoin="round" d="M 7500,4700 L 6200,4700 6200,2200 8800,2200 8800,4700 7500,4700 Z"/>
       </g>
      </g>
      <g class="com.sun.star.drawing.LineShape">
       <g id="id20">
        <rect class="BoundingBox" stroke="none" fill="none" x="5800" y="2400" width="854" height="1032"/>
        <path fill="none" stroke="rgb(0,0,0)" stroke-width="50" stroke-linejoin="round" d="M 6437,3196 L 6051,2713"/>
        <path fill="rgb(0,0,0)" stroke="none" d="M 6447,3168 L 6471,3158 6499,3152 6528,3151 6556,3158 6582,3170 6603,3185 6622,3204 6635,3225 6646,3250 6652,3278 6652,3306 6645,3334 6633,3360 6619,3382 6600,3400 6579,3414 6553,3424 6526,3430 6497,3430 6469,3424 6444,3412 6422,3396 6403,3378 6390,3356 6380,3332 6374,3304 6373,3275 6380,3247 6391,3222 6407,3200 6425,3182 6447,3168 Z"/>
        <path fill="rgb(0,0,0)" stroke="none" d="M 5800,2400 L 5953,2815 6172,2641 5800,2400 Z"/>
       </g>
      </g>
      <g class="com.sun.star.drawing.LineShape">
       <g id="id21">
        <rect class="BoundingBox" stroke="none" fill="none" x="8440" y="2400" width="761" height="1026"/>
        <path fill="none" stroke="rgb(0,0,0)" stroke-width="50" stroke-linejoin="round" d="M 8650,3186 L 8970,2729"/>
        <path fill="rgb(0,0,0)" stroke="none" d="M 8680,3188 L 8696,3208 8710,3233 8718,3261 8720,3290 8716,3318 8707,3343 8695,3366 8678,3385 8657,3402 8632,3416 8605,3423 8576,3425 8548,3420 8522,3413 8499,3400 8480,3383 8464,3362 8451,3337 8442,3310 8440,3281 8444,3253 8454,3228 8465,3205 8483,3186 8503,3169 8528,3156 8556,3147 8585,3146 8612,3149 8638,3159 8660,3170 8680,3188 Z"/>
        <path fill="rgb(0,0,0)" stroke="none" d="M 9200,2400 L 8844,2664 9074,2824 9200,2400 Z"/>
       </g>
      </g>
      <g class="Group">
       <g class="com.sun.star.drawing.LineShape">
        <g id="id22">
         <rect class="BoundingBox" stroke="none" fill="none" x="1275" y="3878" width="851" height="51"/>
         <path fill="none" stroke="rgb(0,0,0)" stroke-width="50" stroke-linejoin="round" d="M 1300,3903 L 2100,3903"/>
        </g>
       </g>
       <g class="com.sun.star.drawing.LineShape">
        <g id="id23">
         <rect class="BoundingBox" stroke="none" fill="none" x="1375" y="4078" width="651" height="51"/>
         <path fill="none" stroke="rgb(0,0,0)" stroke-width="50" stroke-linejoin="round" d="M 1400,4103 L 2000,4103"/>
        </g>
       </g>
       <g class="com.sun.star.drawing.LineShape">
        <g id="id24">
         <rect class="BoundingBox" stroke="none" fill="none" x="1475" y="4278" width="451" height="51"/>
         <path fill="none" stroke="rgb(0,0,0)" stroke-width="50" stroke-linejoin="round" d="M 1500,4303 L 1900,4303"/>
        </g>
       </g>
      </g>
      <g class="Group">
       <g class="com.sun.star.drawing.LineShape">
        <g id="id25">
         <rect class="BoundingBox" stroke="none" fill="none" x="14075" y="3678" width="851" height="51"/>
         <path fill="none" stroke="rgb(0,0,0)" stroke-width="50" stroke-linejoin="round" d="M 14100,3703 L 14900,3703"/>
        </g>
       </g>
       <g class="com.sun.star.drawing.LineShape">
        <g id="id26">
         <rect class="BoundingBox" stroke="none" fill="none" x="14175" y="3878" width="651" height="51"/>
         <path fill="none" stroke="rgb(0,0,0)" stroke-width="50" stroke-linejoin="round" d="M 14200,3903 L 14800,3903"/>
        </g>
       </g>
       <g class="com.sun.star.drawing.LineShape">
        <g id="id27">
         <rect class="BoundingBox" stroke="none" fill="none" x="14275" y="4078" width="451" height="51"/>
         <path fill="none" stroke="rgb(0,0,0)" stroke-width="50" stroke-linejoin="round" d="M 14300,4103 L 14700,4103"/>
        </g>
       </g>
      </g>
     </g>
    </g>
   </g>
  </g>
 </g>
</svg>