<?xml version="1.0" encoding="UTF-8" standalone="no"?>
<!-- Created with Inkscape (http://www.inkscape.org/) -->

<svg
   xmlns:dc="http://purl.org/dc/elements/1.1/"
   xmlns:cc="http://creativecommons.org/ns#"
   xmlns:rdf="http://www.w3.org/1999/02/22-rdf-syntax-ns#"
   xmlns:svg="http://www.w3.org/2000/svg"
   xmlns="http://www.w3.org/2000/svg"
   xmlns:sodipodi="http://sodipodi.sourceforge.net/DTD/sodipodi-0.dtd"
   xmlns:inkscape="http://www.inkscape.org/namespaces/inkscape"
   version="1.1"
   id="svg5677"
   xml:space="preserve"
   width="557"
   height="373"
   viewBox="0 0 557 373"
   sodipodi:docname="rb_example3.svg"
   inkscape:version="0.92.4 5da689c313, 2019-01-14"><metadata
     id="metadata5683"><rdf:RDF><cc:Work
         rdf:about=""><dc:format>image/svg+xml</dc:format><dc:type
           rdf:resource="http://purl.org/dc/dcmitype/StillImage" /><dc:title></dc:title></cc:Work></rdf:RDF></metadata><defs
     id="defs5681"><clipPath
       clipPathUnits="userSpaceOnUse"
       id="clipPath5695"><path
         d="m 49.072,228.45 c -11.741,0 -21.26,-9.51 -21.26,-21.26 0,-11.74 9.519,-21.26 21.26,-21.26 11.742,0 21.26,9.52 21.26,21.26 0,11.75 -9.518,21.26 -21.26,21.26 z M 0,279.75 H 417.75 V 0 H 0 Z"
         id="path5693"
         inkscape:connector-curvature="0"
         style="clip-rule:evenodd" /></clipPath><clipPath
       clipPathUnits="userSpaceOnUse"
       id="clipPath5705"><path
         d="m 26.372,208.63 c 0,11.75 9.519,21.26 21.26,21.26 11.741,0 21.26,-9.51 21.26,-21.26 0,0 0,0 0,0 0,-11.74 -9.518,-21.26 -21.26,-21.26 -11.741,0 -21.26,9.52 -21.26,21.26 z"
         id="path5703"
         inkscape:connector-curvature="0"
         style="clip-rule:evenodd" /></clipPath><linearGradient
       x1="47.632"
       y1="186.62"
       x2="47.632"
       y2="230.64"
       gradientUnits="userSpaceOnUse"
       spreadMethod="pad"
       id="linearGradient5711"><stop
         style="stop-opacity:1;stop-color:#000000"
         offset="0"
         id="stop5707" /><stop
         style="stop-opacity:1;stop-color:#000000"
         offset="1"
         id="stop5709" /></linearGradient><clipPath
       clipPathUnits="userSpaceOnUse"
       id="clipPath5729"><path
         d="m 114.83,274.33 c -11.75,0 -21.264,-9.52 -21.264,-21.26 0,-11.74 9.514,-21.26 21.264,-21.26 11.74,0 21.26,9.52 21.26,21.26 0,11.74 -9.52,21.26 -21.26,21.26 z M 0,279.75 H 417.75 V 0 H 0 Z"
         id="path5727"
         inkscape:connector-curvature="0"
         style="clip-rule:evenodd" /></clipPath><clipPath
       clipPathUnits="userSpaceOnUse"
       id="clipPath5739"><path
         d="m 92.126,254.51 c 0,11.74 9.514,21.26 21.264,21.26 11.74,0 21.26,-9.52 21.26,-21.26 0,0 0,0 0,0 0,-11.74 -9.52,-21.26 -21.26,-21.26 -11.75,0 -21.264,9.52 -21.264,21.26 z"
         id="path5737"
         inkscape:connector-curvature="0"
         style="clip-rule:evenodd" /></clipPath><linearGradient
       x1="113.39"
       y1="232.5"
       x2="113.39"
       y2="276.51999"
       gradientUnits="userSpaceOnUse"
       spreadMethod="pad"
       id="linearGradient5745"><stop
         style="stop-opacity:1;stop-color:#000000"
         offset="0"
         id="stop5741" /><stop
         style="stop-opacity:1;stop-color:#000000"
         offset="1"
         id="stop5743" /></linearGradient><clipPath
       clipPathUnits="userSpaceOnUse"
       id="clipPath5769"><path
         d="m 178.05,228.45 c -11.74,0 -21.26,-9.51 -21.26,-21.26 0,-11.74 9.52,-21.26 21.26,-21.26 11.74,0 21.26,9.52 21.26,21.26 0,11.75 -9.52,21.26 -21.26,21.26 z M 0,279.75 H 417.75 V 0 H 0 Z"
         id="path5767"
         inkscape:connector-curvature="0"
         style="clip-rule:evenodd" /></clipPath><clipPath
       clipPathUnits="userSpaceOnUse"
       id="clipPath5779"><path
         d="m 155.35,208.63 c 0,11.75 9.52,21.26 21.26,21.26 11.74,0 21.26,-9.51 21.26,-21.26 0,0 0,0 0,0 0,-11.74 -9.52,-21.26 -21.26,-21.26 -11.74,0 -21.26,9.52 -21.26,21.26 z"
         id="path5777"
         inkscape:connector-curvature="0"
         style="clip-rule:evenodd" /></clipPath><linearGradient
       x1="176.61"
       y1="186.62"
       x2="176.61"
       y2="230.64"
       gradientUnits="userSpaceOnUse"
       spreadMethod="pad"
       id="linearGradient5785"><stop
         style="stop-opacity:1;stop-color:#e10000"
         offset="0"
         id="stop5781" /><stop
         style="stop-opacity:1;stop-color:#ff0000"
         offset="1"
         id="stop5783" /></linearGradient><clipPath
       clipPathUnits="userSpaceOnUse"
       id="clipPath5805"><path
         d="m 114.27,171.76 c -11.74,0 -21.261,-9.52 -21.261,-21.26 0,-11.74 9.521,-21.26 21.261,-21.26 11.74,0 21.26,9.52 21.26,21.26 0,11.74 -9.52,21.26 -21.26,21.26 z M 0,279.75 H 417.75 V 0 H 0 Z"
         id="path5803"
         inkscape:connector-curvature="0"
         style="clip-rule:evenodd" /></clipPath><clipPath
       clipPathUnits="userSpaceOnUse"
       id="clipPath5815"><path
         d="m 91.569,151.94 c 0,11.74 9.521,21.26 21.261,21.26 11.74,0 21.26,-9.52 21.26,-21.26 0,0 0,0 0,0 0,-11.74 -9.52,-21.26 -21.26,-21.26 -11.74,0 -21.261,9.52 -21.261,21.26 z"
         id="path5813"
         inkscape:connector-curvature="0"
         style="clip-rule:evenodd" /></clipPath><linearGradient
       x1="112.83"
       y1="129.92999"
       x2="112.83"
       y2="173.95"
       gradientUnits="userSpaceOnUse"
       spreadMethod="pad"
       id="linearGradient5821"><stop
         style="stop-opacity:1;stop-color:#000000"
         offset="0"
         id="stop5817" /><stop
         style="stop-opacity:1;stop-color:#000000"
         offset="1"
         id="stop5819" /></linearGradient><clipPath
       clipPathUnits="userSpaceOnUse"
       id="clipPath5839"><path
         d="m 178.05,122.15 c -11.74,0 -21.26,-9.51 -21.26,-21.26 0,-11.737 9.52,-21.255 21.26,-21.255 11.74,0 21.26,9.518 21.26,21.255 0,11.75 -9.52,21.26 -21.26,21.26 z M 0,279.75 H 417.75 V 0 H 0 Z"
         id="path5837"
         inkscape:connector-curvature="0"
         style="clip-rule:evenodd" /></clipPath><clipPath
       clipPathUnits="userSpaceOnUse"
       id="clipPath5849"><path
         d="m 155.35,102.33 c 0,11.75 9.52,21.26 21.26,21.26 11.74,0 21.26,-9.51 21.26,-21.26 0,0 0,0 0,0 0,-11.737 -9.52,-21.255 -21.26,-21.255 -11.74,0 -21.26,9.518 -21.26,21.255 z"
         id="path5847"
         inkscape:connector-curvature="0"
         style="clip-rule:evenodd" /></clipPath><linearGradient
       x1="176.61"
       y1="80.324997"
       x2="176.61"
       y2="124.34"
       gradientUnits="userSpaceOnUse"
       spreadMethod="pad"
       id="linearGradient5855"><stop
         style="stop-opacity:1;stop-color:#000000"
         offset="0"
         id="stop5851" /><stop
         style="stop-opacity:1;stop-color:#000000"
         offset="1"
         id="stop5853" /></linearGradient><clipPath
       clipPathUnits="userSpaceOnUse"
       id="clipPath5873"><path
         d="m 243.25,171.76 c -11.75,0 -21.26,-9.52 -21.26,-21.26 0,-11.74 9.51,-21.26 21.26,-21.26 11.74,0 21.26,9.52 21.26,21.26 0,11.74 -9.52,21.26 -21.26,21.26 z M 0,279.75 H 417.75 V 0 H 0 Z"
         id="path5871"
         inkscape:connector-curvature="0"
         style="clip-rule:evenodd" /></clipPath><clipPath
       clipPathUnits="userSpaceOnUse"
       id="clipPath5883"><path
         d="m 220.55,151.94 c 0,11.74 9.51,21.26 21.26,21.26 11.74,0 21.26,-9.52 21.26,-21.26 0,0 0,0 0,0 0,-11.74 -9.52,-21.26 -21.26,-21.26 -11.75,0 -21.26,9.52 -21.26,21.26 z"
         id="path5881"
         inkscape:connector-curvature="0"
         style="clip-rule:evenodd" /></clipPath><linearGradient
       x1="241.81"
       y1="129.92999"
       x2="241.81"
       y2="173.95"
       gradientUnits="userSpaceOnUse"
       spreadMethod="pad"
       id="linearGradient5889"><stop
         style="stop-opacity:1;stop-color:#e10000"
         offset="0"
         id="stop5885" /><stop
         style="stop-opacity:1;stop-color:#ff0000"
         offset="1"
         id="stop5887" /></linearGradient><clipPath
       clipPathUnits="userSpaceOnUse"
       id="clipPath5907"><path
         d="m 307.02,122.15 c -11.74,0 -21.26,-9.51 -21.26,-21.26 0,-11.737 9.52,-21.255 21.26,-21.255 11.75,0 21.26,9.518 21.26,21.255 0,11.75 -9.51,21.26 -21.26,21.26 z M 0,279.75 H 417.75 V 0 H 0 Z"
         id="path5905"
         inkscape:connector-curvature="0"
         style="clip-rule:evenodd" /></clipPath><clipPath
       clipPathUnits="userSpaceOnUse"
       id="clipPath5917"><path
         d="m 284.32,102.33 c 0,11.75 9.52,21.26 21.26,21.26 11.75,0 21.26,-9.51 21.26,-21.26 0,0 0,0 0,0 0,-11.737 -9.51,-21.255 -21.26,-21.255 -11.74,0 -21.26,9.518 -21.26,21.255 z"
         id="path5915"
         inkscape:connector-curvature="0"
         style="clip-rule:evenodd" /></clipPath><linearGradient
       x1="305.57999"
       y1="80.324997"
       x2="305.57999"
       y2="124.34"
       gradientUnits="userSpaceOnUse"
       spreadMethod="pad"
       id="linearGradient5923"><stop
         style="stop-opacity:1;stop-color:#000000"
         offset="0"
         id="stop5919" /><stop
         style="stop-opacity:1;stop-color:#000000"
         offset="1"
         id="stop5921" /></linearGradient><clipPath
       clipPathUnits="userSpaceOnUse"
       id="clipPath5973"><path
         d="m 369.39,65.462 c -11.74,0 -21.26,-9.519 -21.26,-21.26 0,-11.742 9.52,-21.26 21.26,-21.26 11.74,0 21.26,9.518 21.26,21.26 0,11.741 -9.52,21.26 -21.26,21.26 z M 0,279.75 H 417.75 V 0 H 0 Z"
         id="path5971"
         inkscape:connector-curvature="0"
         style="clip-rule:evenodd" /></clipPath><clipPath
       clipPathUnits="userSpaceOnUse"
       id="clipPath5983"><path
         d="m 346.69,45.642 c 0,11.741 9.52,21.26 21.26,21.26 11.74,0 21.26,-9.519 21.26,-21.26 0,0 0,0 0,0 0,-11.742 -9.52,-21.26 -21.26,-21.26 -11.74,0 -21.26,9.518 -21.26,21.26 z"
         id="path5981"
         inkscape:connector-curvature="0"
         style="clip-rule:evenodd" /></clipPath><linearGradient
       x1="367.95001"
       y1="23.632"
       x2="367.95001"
       y2="67.652"
       gradientUnits="userSpaceOnUse"
       spreadMethod="pad"
       id="linearGradient5989"><stop
         style="stop-opacity:1;stop-color:#e10000"
         offset="0"
         id="stop5985" /><stop
         style="stop-opacity:1;stop-color:#ff0000"
         offset="1"
         id="stop5987" /></linearGradient></defs><sodipodi:namedview
     pagecolor="#ffffff"
     bordercolor="#666666"
     borderopacity="1"
     objecttolerance="10"
     gridtolerance="10"
     guidetolerance="10"
     inkscape:pageopacity="0"
     inkscape:pageshadow="2"
     inkscape:window-width="1920"
     inkscape:window-height="1031"
     id="namedview5679"
     showgrid="false"
     inkscape:zoom="0.63270777"
     inkscape:cx="-43.923729"
     inkscape:cy="186.5"
     inkscape:window-x="0"
     inkscape:window-y="24"
     inkscape:window-maximized="0"
     inkscape:current-layer="g5685" /><g
     id="g5685"
     inkscape:groupmode="layer"
     inkscape:label="rb_example3"
     transform="matrix(1.3333333,0,0,-1.3333333,0,373)"><path
       d="m 27.812,207.19 c 0,11.75 9.519,21.26 21.26,21.26 11.742,0 21.26,-9.51 21.26,-21.26 0,0 0,0 0,0 0,-11.74 -9.518,-21.26 -21.26,-21.26 -11.741,0 -21.26,9.52 -21.26,21.26 z"
       style="fill:#cdcdcd;fill-opacity:0.49803999;fill-rule:evenodd;stroke:none"
       id="path5687"
       inkscape:connector-curvature="0" /><g
       id="g5689"><g
         id="g5691"
         clip-path="url(#clipPath5695)"><path
           d="m 27.812,207.19 c 0,11.75 9.519,21.26 21.26,21.26 11.742,0 21.26,-9.51 21.26,-21.26 0,0 0,0 0,0 0,-11.74 -9.518,-21.26 -21.26,-21.26 -11.741,0 -21.26,9.52 -21.26,21.26"
           style="fill:none;stroke:#cdcdcd;stroke-width:2.25;stroke-linecap:round;stroke-linejoin:round;stroke-miterlimit:10;stroke-dasharray:none;stroke-opacity:0.49803999"
           id="path5697"
           inkscape:connector-curvature="0" /></g></g><g
       id="g5699"><g
         id="g5701"
         clip-path="url(#clipPath5705)"><path
           d="m 25.622,186.62 h 44.02 v 44.02 h -44.02 z"
           style="fill:url(#linearGradient5711);fill-opacity:1;fill-rule:evenodd;stroke:none"
           id="path5713"
           inkscape:connector-curvature="0" /></g></g><path
       d="m 26.372,208.63 c 0,11.75 9.519,21.26 21.26,21.26 11.742,0 21.26,-9.51 21.26,-21.26 0,0 0,0 0,0 0,-11.74 -9.518,-21.26 -21.26,-21.26 -11.741,0 -21.26,9.52 -21.26,21.26 z"
       style="fill:none;stroke:#000000;stroke-width:2.25;stroke-linecap:round;stroke-linejoin:round;stroke-miterlimit:10;stroke-dasharray:none;stroke-opacity:1"
       id="path5715"
       inkscape:connector-curvature="0" /><text
       transform="matrix(1,0,0,-1,41.55,201.43)"
       style="font-variant:normal;font-weight:normal;font-size:23.99975967px;font-family:CALIBRI;-inkscape-font-specification:CALIBRI;writing-mode:lr-tb;fill:#ffffff;fill-opacity:1;fill-rule:nonzero;stroke:none"
       id="text5719"><tspan
         x="0"
         y="0"
         id="tspan5717">1</tspan></text>
<path
       d="m 93.566,253.07 c 0,11.74 9.514,21.26 21.264,21.26 11.74,0 21.26,-9.52 21.26,-21.26 0,0 0,0 0,0 0,-11.74 -9.52,-21.26 -21.26,-21.26 -11.75,0 -21.264,9.52 -21.264,21.26 z"
       style="fill:#cdcdcd;fill-opacity:0.49803999;fill-rule:evenodd;stroke:none"
       id="path5721"
       inkscape:connector-curvature="0" /><g
       id="g5723"><g
         id="g5725"
         clip-path="url(#clipPath5729)"><path
           d="m 93.566,253.07 c 0,11.74 9.514,21.26 21.264,21.26 11.74,0 21.26,-9.52 21.26,-21.26 0,0 0,0 0,0 0,-11.74 -9.52,-21.26 -21.26,-21.26 -11.75,0 -21.264,9.52 -21.264,21.26"
           style="fill:none;stroke:#cdcdcd;stroke-width:2.25;stroke-linecap:round;stroke-linejoin:round;stroke-miterlimit:10;stroke-dasharray:none;stroke-opacity:0.49803999"
           id="path5731"
           inkscape:connector-curvature="0" /></g></g><g
       id="g5733"><g
         id="g5735"
         clip-path="url(#clipPath5739)"><path
           d="m 91.376,232.5 h 44.02 v 44.02 h -44.02 z"
           style="fill:url(#linearGradient5745);fill-opacity:1;fill-rule:evenodd;stroke:none"
           id="path5747"
           inkscape:connector-curvature="0" /></g></g><path
       d="m 92.126,254.51 c 0,11.74 9.514,21.26 21.264,21.26 11.74,0 21.26,-9.52 21.26,-21.26 0,0 0,0 0,0 0,-11.74 -9.52,-21.26 -21.26,-21.26 -11.75,0 -21.264,9.52 -21.264,21.26 z"
       style="fill:none;stroke:#000000;stroke-width:2.25;stroke-linecap:round;stroke-linejoin:round;stroke-miterlimit:10;stroke-dasharray:none;stroke-opacity:1"
       id="path5749"
       inkscape:connector-curvature="0" /><text
       transform="matrix(1,0,0,-1,107.3,247.31)"
       style="font-variant:normal;font-weight:normal;font-size:23.99975967px;font-family:CALIBRI;-inkscape-font-specification:CALIBRI;writing-mode:lr-tb;fill:#ffffff;fill-opacity:1;fill-rule:nonzero;stroke:none"
       id="text5753"><tspan
         x="0"
         y="0"
         id="tspan5751">2</tspan></text>
<path
       d="M 95.95,242.34 65.068,220.8"
       style="fill:none;stroke:#000000;stroke-width:2.25;stroke-linecap:round;stroke-linejoin:round;stroke-miterlimit:10;stroke-dasharray:none;stroke-opacity:1"
       id="path5755"
       inkscape:connector-curvature="0" /><path
       d="M 32.053,194.17 7.947,171.78"
       style="fill:none;stroke:#000000;stroke-width:2.25;stroke-linecap:round;stroke-linejoin:round;stroke-miterlimit:10;stroke-dasharray:none;stroke-opacity:1"
       id="path5757"
       inkscape:connector-curvature="0" /><path
       d="m 10.569,174.22 c -1.3448,1.45 -3.6084,1.53 -5.0563,0.19 -1.4478,-1.35 -1.5317,-3.61 -0.1873,-5.06 0,0 0,0 0,0 1.3445,-1.45 3.6081,-1.53 5.0556,-0.19 1.448,1.35 1.532,3.61 0.188,5.06 z"
       style="fill:#000000;fill-opacity:1;fill-rule:evenodd;stroke:none"
       id="path5759"
       inkscape:connector-curvature="0" /><path
       d="m 156.79,207.19 c 0,11.75 9.52,21.26 21.26,21.26 11.74,0 21.26,-9.51 21.26,-21.26 0,0 0,0 0,0 0,-11.74 -9.52,-21.26 -21.26,-21.26 -11.74,0 -21.26,9.52 -21.26,21.26 z"
       style="fill:#cdcdcd;fill-opacity:0.49803999;fill-rule:evenodd;stroke:none"
       id="path5761"
       inkscape:connector-curvature="0" /><g
       id="g5763"><g
         id="g5765"
         clip-path="url(#clipPath5769)"><path
           d="m 156.79,207.19 c 0,11.75 9.52,21.26 21.26,21.26 11.74,0 21.26,-9.51 21.26,-21.26 0,0 0,0 0,0 0,-11.74 -9.52,-21.26 -21.26,-21.26 -11.74,0 -21.26,9.52 -21.26,21.26"
           style="fill:none;stroke:#cdcdcd;stroke-width:2.25;stroke-linecap:round;stroke-linejoin:round;stroke-miterlimit:10;stroke-dasharray:none;stroke-opacity:0.49803999"
           id="path5771"
           inkscape:connector-curvature="0" /></g></g><g
       id="g5773"><g
         id="g5775"
         clip-path="url(#clipPath5779)"><path
           d="m 154.6,186.62 h 44.02 v 44.02 H 154.6 Z"
           style="fill:url(#linearGradient5785);fill-opacity:1;fill-rule:evenodd;stroke:none"
           id="path5787"
           inkscape:connector-curvature="0" /></g></g><path
       d="m 155.35,208.63 c 0,11.75 9.52,21.26 21.26,21.26 11.74,0 21.26,-9.51 21.26,-21.26 0,0 0,0 0,0 0,-11.74 -9.52,-21.26 -21.26,-21.26 -11.74,0 -21.26,9.52 -21.26,21.26 z"
       style="fill:none;stroke:#000000;stroke-width:2.25;stroke-linecap:round;stroke-linejoin:round;stroke-miterlimit:10;stroke-dasharray:none;stroke-opacity:1"
       id="path5789"
       inkscape:connector-curvature="0" /><text
       transform="matrix(1,0,0,-1,170.53,201.43)"
       style="font-variant:normal;font-weight:normal;font-size:23.99975967px;font-family:CALIBRI;-inkscape-font-specification:CALIBRI;writing-mode:lr-tb;fill:#ffffff;fill-opacity:1;fill-rule:nonzero;stroke:none"
       id="text5793"><tspan
         x="0"
         y="0"
         id="tspan5791">4</tspan></text>
<path
       d="m 159.4,221.12 -28.81,20.9"
       style="fill:none;stroke:#000000;stroke-width:2.25;stroke-linecap:round;stroke-linejoin:round;stroke-miterlimit:10;stroke-dasharray:none;stroke-opacity:1"
       id="path5795"
       inkscape:connector-curvature="0" /><path
       d="m 93.009,150.5 c 0,11.74 9.521,21.26 21.261,21.26 11.74,0 21.26,-9.52 21.26,-21.26 0,0 0,0 0,0 0,-11.74 -9.52,-21.26 -21.26,-21.26 -11.74,0 -21.261,9.52 -21.261,21.26 z"
       style="fill:#cdcdcd;fill-opacity:0.49803999;fill-rule:evenodd;stroke:none"
       id="path5797"
       inkscape:connector-curvature="0" /><g
       id="g5799"><g
         id="g5801"
         clip-path="url(#clipPath5805)"><path
           d="m 93.009,150.5 c 0,11.74 9.521,21.26 21.261,21.26 11.74,0 21.26,-9.52 21.26,-21.26 0,0 0,0 0,0 0,-11.74 -9.52,-21.26 -21.26,-21.26 -11.74,0 -21.261,9.52 -21.261,21.26"
           style="fill:none;stroke:#cdcdcd;stroke-width:2.25;stroke-linecap:round;stroke-linejoin:round;stroke-miterlimit:10;stroke-dasharray:none;stroke-opacity:0.49803999"
           id="path5807"
           inkscape:connector-curvature="0" /></g></g><g
       id="g5809"><g
         id="g5811"
         clip-path="url(#clipPath5815)"><path
           d="m 90.819,129.93 h 44.02 v 44.02 h -44.02 z"
           style="fill:url(#linearGradient5821);fill-opacity:1;fill-rule:evenodd;stroke:none"
           id="path5823"
           inkscape:connector-curvature="0" /></g></g><path
       d="m 91.569,151.94 c 0,11.74 9.521,21.26 21.261,21.26 11.74,0 21.26,-9.52 21.26,-21.26 0,0 0,0 0,0 0,-11.74 -9.52,-21.26 -21.26,-21.26 -11.74,0 -21.261,9.52 -21.261,21.26 z"
       style="fill:none;stroke:#000000;stroke-width:2.25;stroke-linecap:round;stroke-linejoin:round;stroke-miterlimit:10;stroke-dasharray:none;stroke-opacity:1"
       id="path5825"
       inkscape:connector-curvature="0" /><text
       transform="matrix(1,0,0,-1,106.75,144.74)"
       style="font-variant:normal;font-weight:normal;font-size:23.99975967px;font-family:CALIBRI;-inkscape-font-specification:CALIBRI;writing-mode:lr-tb;fill:#ffffff;fill-opacity:1;fill-rule:nonzero;stroke:none"
       id="text5829"><tspan
         x="0"
         y="0"
         id="tspan5827">3</tspan></text>
<path
       d="m 156.79,100.89 c 0,11.75 9.52,21.26 21.26,21.26 11.74,0 21.26,-9.51 21.26,-21.26 0,0 0,0 0,0 0,-11.737 -9.52,-21.255 -21.26,-21.255 -11.74,0 -21.26,9.518 -21.26,21.255 z"
       style="fill:#cdcdcd;fill-opacity:0.49803999;fill-rule:evenodd;stroke:none"
       id="path5831"
       inkscape:connector-curvature="0" /><g
       id="g5833"><g
         id="g5835"
         clip-path="url(#clipPath5839)"><path
           d="m 156.79,100.89 c 0,11.75 9.52,21.26 21.26,21.26 11.74,0 21.26,-9.51 21.26,-21.26 0,0 0,0 0,0 0,-11.737 -9.52,-21.255 -21.26,-21.255 -11.74,0 -21.26,9.518 -21.26,21.255"
           style="fill:none;stroke:#cdcdcd;stroke-width:2.25;stroke-linecap:round;stroke-linejoin:round;stroke-miterlimit:10;stroke-dasharray:none;stroke-opacity:0.49803999"
           id="path5841"
           inkscape:connector-curvature="0" /></g></g><g
       id="g5843"><g
         id="g5845"
         clip-path="url(#clipPath5849)"><path
           d="m 154.6,80.325 h 44.02 v 44.02 H 154.6 Z"
           style="fill:url(#linearGradient5855);fill-opacity:1;fill-rule:evenodd;stroke:none"
           id="path5857"
           inkscape:connector-curvature="0" /></g></g><path
       d="m 155.35,102.33 c 0,11.75 9.52,21.26 21.26,21.26 11.74,0 21.26,-9.51 21.26,-21.26 0,0 0,0 0,0 0,-11.737 -9.52,-21.255 -21.26,-21.255 -11.74,0 -21.26,9.518 -21.26,21.255 z"
       style="fill:none;stroke:#000000;stroke-width:2.25;stroke-linecap:round;stroke-linejoin:round;stroke-miterlimit:10;stroke-dasharray:none;stroke-opacity:1"
       id="path5859"
       inkscape:connector-curvature="0" /><text
       transform="matrix(1,0,0,-1,170.53,95.135)"
       style="font-variant:normal;font-weight:normal;font-size:23.99975967px;font-family:CALIBRI;-inkscape-font-specification:CALIBRI;writing-mode:lr-tb;fill:#ffffff;fill-opacity:1;fill-rule:nonzero;stroke:none"
       id="text5863"><tspan
         x="0"
         y="0"
         id="tspan5861">5</tspan></text>
<path
       d="m 221.99,150.5 c 0,11.74 9.51,21.26 21.26,21.26 11.74,0 21.26,-9.52 21.26,-21.26 0,0 0,0 0,0 0,-11.74 -9.52,-21.26 -21.26,-21.26 -11.75,0 -21.26,9.52 -21.26,21.26 z"
       style="fill:#cdcdcd;fill-opacity:0.49803999;fill-rule:evenodd;stroke:none"
       id="path5865"
       inkscape:connector-curvature="0" /><g
       id="g5867"><g
         id="g5869"
         clip-path="url(#clipPath5873)"><path
           d="m 221.99,150.5 c 0,11.74 9.51,21.26 21.26,21.26 11.74,0 21.26,-9.52 21.26,-21.26 0,0 0,0 0,0 0,-11.74 -9.52,-21.26 -21.26,-21.26 -11.75,0 -21.26,9.52 -21.26,21.26"
           style="fill:none;stroke:#cdcdcd;stroke-width:2.25;stroke-linecap:round;stroke-linejoin:round;stroke-miterlimit:10;stroke-dasharray:none;stroke-opacity:0.49803999"
           id="path5875"
           inkscape:connector-curvature="0" /></g></g><g
       id="g5877"><g
         id="g5879"
         clip-path="url(#clipPath5883)"><path
           d="m 219.8,129.93 h 44.02 v 44.02 H 219.8 Z"
           style="fill:url(#linearGradient5889);fill-opacity:1;fill-rule:evenodd;stroke:none"
           id="path5891"
           inkscape:connector-curvature="0" /></g></g><path
       d="m 220.55,151.94 c 0,11.74 9.51,21.26 21.26,21.26 11.74,0 21.26,-9.52 21.26,-21.26 0,0 0,0 0,0 0,-11.74 -9.52,-21.26 -21.26,-21.26 -11.75,0 -21.26,9.52 -21.26,21.26 z"
       style="fill:none;stroke:#000000;stroke-width:2.25;stroke-linecap:round;stroke-linejoin:round;stroke-miterlimit:10;stroke-dasharray:none;stroke-opacity:1"
       id="path5893"
       inkscape:connector-curvature="0" /><text
       transform="matrix(1,0,0,-1,235.72,144.74)"
       style="font-variant:normal;font-weight:normal;font-size:23.99975967px;font-family:CALIBRI;-inkscape-font-specification:CALIBRI;writing-mode:lr-tb;fill:#ffffff;fill-opacity:1;fill-rule:nonzero;stroke:none"
       id="text5897"><tspan
         x="0"
         y="0"
         id="tspan5895">6</tspan></text>
<path
       d="m 285.76,100.89 c 0,11.75 9.52,21.26 21.26,21.26 11.75,0 21.26,-9.51 21.26,-21.26 0,0 0,0 0,0 0,-11.737 -9.51,-21.255 -21.26,-21.255 -11.74,0 -21.26,9.518 -21.26,21.255 z"
       style="fill:#cdcdcd;fill-opacity:0.49803999;fill-rule:evenodd;stroke:none"
       id="path5899"
       inkscape:connector-curvature="0" /><g
       id="g5901"><g
         id="g5903"
         clip-path="url(#clipPath5907)"><path
           d="m 285.76,100.89 c 0,11.75 9.52,21.26 21.26,21.26 11.75,0 21.26,-9.51 21.26,-21.26 0,0 0,0 0,0 0,-11.737 -9.51,-21.255 -21.26,-21.255 -11.74,0 -21.26,9.518 -21.26,21.255"
           style="fill:none;stroke:#cdcdcd;stroke-width:2.25;stroke-linecap:round;stroke-linejoin:round;stroke-miterlimit:10;stroke-dasharray:none;stroke-opacity:0.49803999"
           id="path5909"
           inkscape:connector-curvature="0" /></g></g><g
       id="g5911"><g
         id="g5913"
         clip-path="url(#clipPath5917)"><path
           d="m 283.57,80.325 h 44.02 v 44.02 h -44.02 z"
           style="fill:url(#linearGradient5923);fill-opacity:1;fill-rule:evenodd;stroke:none"
           id="path5925"
           inkscape:connector-curvature="0" /></g></g><path
       d="m 284.32,102.33 c 0,11.75 9.52,21.26 21.26,21.26 11.75,0 21.26,-9.51 21.26,-21.26 0,0 0,0 0,0 0,-11.737 -9.51,-21.255 -21.26,-21.255 -11.74,0 -21.26,9.518 -21.26,21.255 z"
       style="fill:none;stroke:#000000;stroke-width:2.25;stroke-linecap:round;stroke-linejoin:round;stroke-miterlimit:10;stroke-dasharray:none;stroke-opacity:1"
       id="path5927"
       inkscape:connector-curvature="0" /><text
       transform="matrix(1,0,0,-1,299.5,95.135)"
       style="font-variant:normal;font-weight:normal;font-size:23.99975967px;font-family:CALIBRI;-inkscape-font-specification:CALIBRI;writing-mode:lr-tb;fill:#ffffff;fill-opacity:1;fill-rule:nonzero;stroke:none"
       id="text5931"><tspan
         x="0"
         y="0"
         id="tspan5929">7</tspan></text>
<path
       d="m 225.76,165.89 -33.11,28.79"
       style="fill:none;stroke:#000000;stroke-width:2.25;stroke-linecap:round;stroke-linejoin:round;stroke-miterlimit:10;stroke-dasharray:none;stroke-opacity:1"
       id="path5933"
       inkscape:connector-curvature="0" /><path
       d="m 128.72,166.07 32,28.44"
       style="fill:none;stroke:#000000;stroke-width:2.25;stroke-linecap:round;stroke-linejoin:round;stroke-miterlimit:10;stroke-dasharray:none;stroke-opacity:1"
       id="path5935"
       inkscape:connector-curvature="0" /><path
       d="m 288.8,115.39 -30.21,23.5"
       style="fill:none;stroke:#000000;stroke-width:2.25;stroke-linecap:round;stroke-linejoin:round;stroke-miterlimit:10;stroke-dasharray:none;stroke-opacity:1"
       id="path5937"
       inkscape:connector-curvature="0" /><path
       d="M 224.89,139.07 193.53,115.21"
       style="fill:none;stroke:#000000;stroke-width:2.25;stroke-linecap:round;stroke-linejoin:round;stroke-miterlimit:10;stroke-dasharray:none;stroke-opacity:1"
       id="path5939"
       inkscape:connector-curvature="0" /><path
       d="M 97.796,136.91 78.813,117.93"
       style="fill:none;stroke:#000000;stroke-width:2.25;stroke-linecap:round;stroke-linejoin:round;stroke-miterlimit:10;stroke-dasharray:none;stroke-opacity:1"
       id="path5941"
       inkscape:connector-curvature="0" /><path
       d="m 81.343,120.45 c -1.397,1.4 -3.662,1.4 -5.06,0 -1.397,-1.39 -1.397,-3.66 0,-5.05 0,0 0,0 0,0 1.398,-1.4 3.663,-1.4 5.06,0 1.397,1.39 1.397,3.66 0,5.05 z"
       style="fill:#000000;fill-opacity:1;fill-rule:evenodd;stroke:none"
       id="path5943"
       inkscape:connector-curvature="0" /><path
       d="M 63.254,194.21 84.482,174.62"
       style="fill:none;stroke:#000000;stroke-width:2.25;stroke-linecap:round;stroke-linejoin:round;stroke-miterlimit:10;stroke-dasharray:none;stroke-opacity:1"
       id="path5945"
       inkscape:connector-curvature="0" /><path
       d="m 81.854,177.04 c -1.34,-1.45 -1.25,-3.71 0.202,-5.05 1.452,-1.34 3.715,-1.25 5.055,0.2 0,0 0,0 0,0 1.34,1.45 1.25,3.72 -0.202,5.06 -1.452,1.34 -3.715,1.25 -5.055,-0.21 z"
       style="fill:#000000;fill-opacity:1;fill-rule:evenodd;stroke:none"
       id="path5947"
       inkscape:connector-curvature="0" /><path
       d="m 161.58,87.302 -20.4,-20.4"
       style="fill:none;stroke:#000000;stroke-width:2.25;stroke-linecap:round;stroke-linejoin:round;stroke-miterlimit:10;stroke-dasharray:none;stroke-opacity:1"
       id="path5949"
       inkscape:connector-curvature="0" /><path
       d="m 143.71,69.431 c -1.4,1.397 -3.67,1.397 -5.06,0 -1.4,-1.397 -1.4,-3.662 0,-5.059 0,0 0,0 0,0 1.39,-1.397 3.66,-1.397 5.06,0 1.39,1.397 1.39,3.662 0,5.059 z"
       style="fill:#000000;fill-opacity:1;fill-rule:evenodd;stroke:none"
       id="path5951"
       inkscape:connector-curvature="0" /><path
       d="M 293.51,84.833 277.24,61.232"
       style="fill:none;stroke:#000000;stroke-width:2.25;stroke-linecap:round;stroke-linejoin:round;stroke-miterlimit:10;stroke-dasharray:none;stroke-opacity:1"
       id="path5953"
       inkscape:connector-curvature="0" /><path
       d="m 279.27,64.177 c -1.63,1.122 -3.85,0.713 -4.98,-0.914 -1.12,-1.626 -0.71,-3.854 0.92,-4.976 0,0 0,0 0,0 1.62,-1.122 3.85,-0.712 4.97,0.914 1.13,1.627 0.72,3.855 -0.91,4.976 z"
       style="fill:#000000;fill-opacity:1;fill-rule:evenodd;stroke:none"
       id="path5955"
       inkscape:connector-curvature="0" /><path
       d="m 191.64,87.302 20.4,-20.4"
       style="fill:none;stroke:#000000;stroke-width:2.25;stroke-linecap:round;stroke-linejoin:round;stroke-miterlimit:10;stroke-dasharray:none;stroke-opacity:1"
       id="path5957"
       inkscape:connector-curvature="0" /><path
       d="m 209.51,69.431 c -1.4,-1.397 -1.4,-3.662 0,-5.059 1.4,-1.397 3.66,-1.397 5.06,0 0,0 0,0 0,0 1.4,1.397 1.4,3.662 0,5.059 -1.4,1.397 -3.66,1.397 -5.06,0 z"
       style="fill:#000000;fill-opacity:1;fill-rule:evenodd;stroke:none"
       id="path5959"
       inkscape:connector-curvature="0" /><path
       d="m 129.16,138.33 17.68,-14.74"
       style="fill:none;stroke:#000000;stroke-width:2.25;stroke-linecap:round;stroke-linejoin:round;stroke-miterlimit:10;stroke-dasharray:none;stroke-opacity:1"
       id="path5961"
       inkscape:connector-curvature="0" /><path
       d="m 144.1,125.88 c -1.27,-1.51 -1.06,-3.77 0.45,-5.03 1.52,-1.27 3.78,-1.06 5.04,0.45 0,0 0,0 0,0 1.27,1.52 1.06,3.78 -0.46,5.04 -1.51,1.27 -3.77,1.06 -5.03,-0.46 z"
       style="fill:#000000;fill-opacity:1;fill-rule:evenodd;stroke:none"
       id="path5963"
       inkscape:connector-curvature="0" /><path
       d="m 348.13,44.202 c 0,11.741 9.52,21.26 21.26,21.26 11.74,0 21.26,-9.519 21.26,-21.26 0,0 0,0 0,0 0,-11.742 -9.52,-21.26 -21.26,-21.26 -11.74,0 -21.26,9.518 -21.26,21.26 z"
       style="fill:#cdcdcd;fill-opacity:0.49803999;fill-rule:evenodd;stroke:none"
       id="path5965"
       inkscape:connector-curvature="0" /><g
       id="g5967"><g
         id="g5969"
         clip-path="url(#clipPath5973)"><path
           d="m 348.13,44.202 c 0,11.741 9.52,21.26 21.26,21.26 11.74,0 21.26,-9.519 21.26,-21.26 0,0 0,0 0,0 0,-11.742 -9.52,-21.26 -21.26,-21.26 -11.74,0 -21.26,9.518 -21.26,21.26"
           style="fill:none;stroke:#cdcdcd;stroke-width:2.25;stroke-linecap:round;stroke-linejoin:round;stroke-miterlimit:10;stroke-dasharray:none;stroke-opacity:0.49803999"
           id="path5975"
           inkscape:connector-curvature="0" /></g></g><g
       id="g5977"><g
         id="g5979"
         clip-path="url(#clipPath5983)"><path
           d="m 345.94,23.632 h 44.02 v 44.02 h -44.02 z"
           style="fill:url(#linearGradient5989);fill-opacity:1;fill-rule:evenodd;stroke:none"
           id="path5991"
           inkscape:connector-curvature="0" /></g></g><path
       d="m 346.69,45.642 c 0,11.741 9.52,21.26 21.26,21.26 11.74,0 21.26,-9.519 21.26,-21.26 0,0 0,0 0,0 0,-11.742 -9.52,-21.26 -21.26,-21.26 -11.74,0 -21.26,9.518 -21.26,21.26 z"
       style="fill:none;stroke:#000000;stroke-width:2.25;stroke-linecap:round;stroke-linejoin:round;stroke-miterlimit:10;stroke-dasharray:none;stroke-opacity:1"
       id="path5993"
       inkscape:connector-curvature="0" /><text
       transform="matrix(1,0,0,-1,361.86,38.442)"
       style="font-variant:normal;font-weight:normal;font-size:23.99975967px;font-family:CALIBRI;-inkscape-font-specification:CALIBRI;writing-mode:lr-tb;fill:#ffffff;fill-opacity:1;fill-rule:nonzero;stroke:none"
       id="text5997"><tspan
         x="0"
         y="0"
         id="tspan5995">8</tspan></text>
<path
       d="M 355.29,28.558 339.6,7.374"
       style="fill:none;stroke:#000000;stroke-width:2.25;stroke-linecap:round;stroke-linejoin:round;stroke-miterlimit:10;stroke-dasharray:none;stroke-opacity:1"
       id="path5999"
       inkscape:connector-curvature="0" /><path
       d="m 341.73,10.249 c -1.59,1.176 -3.83,0.842 -5,-0.7456 -1.18,-1.5876 -0.85,-3.828 0.74,-5.0041 0,0 0,0 0,0 1.59,-1.1761 3.83,-0.8424 5.01,0.7453 1.17,1.5877 0.84,3.8281 -0.75,5.0044 z"
       style="fill:#000000;fill-opacity:1;fill-rule:evenodd;stroke:none"
       id="path6001"
       inkscape:connector-curvature="0" /><path
       d="M 383.43,31.071 410.47,4.5394"
       style="fill:none;stroke:#000000;stroke-width:2.25;stroke-linecap:round;stroke-linejoin:round;stroke-miterlimit:10;stroke-dasharray:none;stroke-opacity:1"
       id="path6003"
       inkscape:connector-curvature="0" /><path
       d="m 407.91,7.045 c -1.38,-1.4102 -1.36,-3.6753 0.05,-5.0591 1.41,-1.38385 3.68,-1.36243 5.06,0.0478 0,0 0,0 0,0 1.38,1.4103 1.36,3.6753 -0.05,5.0591 -1.41,1.3839 -3.67,1.3625 -5.06,-0.0478 z"
       style="fill:#000000;fill-opacity:1;fill-rule:evenodd;stroke:none"
       id="path6005"
       inkscape:connector-curvature="0" /><path
       d="m 352.22,59.943 -30.9,28.091"
       style="fill:none;stroke:#000000;stroke-width:2.25;stroke-linecap:round;stroke-linejoin:round;stroke-miterlimit:10;stroke-dasharray:none;stroke-opacity:1"
       id="path6007"
       inkscape:connector-curvature="0" /></g></svg>