<?xml version="1.0" encoding="UTF-8" standalone="no"?>
<!-- Created by diasvg.py -->
<svg width="17.710cm" height="7.825cm" viewBox="1.093 0.900 18.803 8.725"
 xmlns="http://www.w3.org/2000/svg"
 xmlns:xlink="http://www.w3.org/1999/xlink">
<ellipse cx="3.581" cy="4.694" rx="1.000" ry="1.000" fill="#FFFFFF" stroke="none"  /><ellipse cx="3.581" cy="4.694" rx="1.000" ry="1.000" fill="none" stroke="#FF0000"  stroke-width="0.100" /><ellipse cx="4.775" cy="6.500" rx="0.500" ry="0.500" fill="#FFFFFF" stroke="none"  /><ellipse cx="4.775" cy="6.500" rx="0.500" ry="0.500" fill="none" stroke="#FF0000"  stroke-width="0.100" /><line x1="3.825" y1="7.650" x2="3.825" y2="8.150" stroke="#000000" stroke-width="0.100" />
<line x1="3.325" y1="8.150" x2="4.325" y2="8.150" stroke="#000000" stroke-width="0.100" />
<line x1="3.493" y1="8.400" x2="4.158" y2="8.400" stroke="#000000" stroke-width="0.100" />
<line x1="3.660" y1="8.650" x2="3.990" y2="8.650" stroke="#000000" stroke-width="0.100" />
<line x1="5.857" y1="7.675" x2="5.857" y2="8.175" stroke="#000000" stroke-width="0.100" />
<line x1="5.275" y1="8.175" x2="6.440" y2="8.175" stroke="#000000" stroke-width="0.100" />
<line x1="5.470" y1="8.425" x2="6.245" y2="8.425" stroke="#000000" stroke-width="0.100" />
<line x1="5.665" y1="8.675" x2="6.050" y2="8.675" stroke="#000000" stroke-width="0.100" />
<line x1="4.288" y1="5.401" x2="4.775" y2="6.000" stroke="#000000" stroke-width="0.100" />
<line x1="5.857" y1="7.675" x2="5.129" y2="6.854" stroke="#000000" stroke-width="0.100" />
<line x1="3.825" y1="7.650" x2="4.421" y2="6.854" stroke="#000000" stroke-width="0.100" />
<ellipse cx="5.100" cy="1.950" rx="1.000" ry="1.000" fill="#FFFFFF" stroke="none"  /><ellipse cx="5.100" cy="1.950" rx="1.000" ry="1.000" fill="none" stroke="#000000"  stroke-width="0.100" /><polyline fill="none" stroke="#000000" stroke-width="0.100"  points="4.393,2.657 4.287,2.994 4.688,2.894 4.862,3.319 5.100,2.950 5.463,3.369 5.562,2.894 5.987,3.069 5.807,2.657 "/>
<ellipse cx="7.162" cy="4.625" rx="1.000" ry="1.000" fill="#FFFFFF" stroke="none"  /><ellipse cx="7.162" cy="4.625" rx="1.000" ry="1.000" fill="none" stroke="#000000"  stroke-width="0.100" /><path stroke="#000000" fill="none" stroke-width="0.100"  d ="M 7.169,5.156 A 0.605,0.605 0 0,0 8.100,5.344 "/>
<path stroke="#000000" fill="none" stroke-width="0.100"  d ="M 6.206,5.344 A 0.629,0.629 0 0,0 7.156,5.156 "/>
<line x1="4.393" y1="2.657" x2="3.581" y2="3.694" stroke="#000000" stroke-width="0.100" />
<line x1="5.807" y1="2.657" x2="7.162" y2="3.625" stroke="#000000" stroke-width="0.100" />
<ellipse cx="10.958" cy="5.287" rx="1.000" ry="1.000" fill="#FFFFFF" stroke="none"  /><ellipse cx="10.958" cy="5.287" rx="1.000" ry="1.000" fill="none" stroke="#FF0000"  stroke-width="0.100" /><ellipse cx="11.826" cy="3.419" rx="0.500" ry="0.500" fill="#FFFFFF" stroke="none"  /><ellipse cx="11.826" cy="3.419" rx="0.500" ry="0.500" fill="none" stroke="#FF0000"  stroke-width="0.100" /><line x1="12.276" y1="6.894" x2="12.276" y2="7.394" stroke="#000000" stroke-width="0.100" />
<line x1="11.776" y1="7.394" x2="12.776" y2="7.394" stroke="#000000" stroke-width="0.100" />
<line x1="11.944" y1="7.644" x2="12.609" y2="7.644" stroke="#000000" stroke-width="0.100" />
<line x1="12.111" y1="7.894" x2="12.441" y2="7.894" stroke="#000000" stroke-width="0.100" />
<line x1="13.684" y1="6.769" x2="13.684" y2="7.269" stroke="#000000" stroke-width="0.100" />
<line x1="13.101" y1="7.269" x2="14.266" y2="7.269" stroke="#000000" stroke-width="0.100" />
<line x1="13.297" y1="7.519" x2="14.071" y2="7.519" stroke="#000000" stroke-width="0.100" />
<line x1="13.492" y1="7.769" x2="13.876" y2="7.769" stroke="#000000" stroke-width="0.100" />
<line x1="11.473" y1="3.772" x2="10.958" y2="4.287" stroke="#000000" stroke-width="0.100" />
<line x1="13.684" y1="6.769" x2="12.180" y2="3.772" stroke="#000000" stroke-width="0.100" />
<line x1="12.276" y1="6.894" x2="11.665" y2="5.995" stroke="#000000" stroke-width="0.100" />
<ellipse cx="13.876" cy="1.994" rx="1.000" ry="1.000" fill="#FFFFFF" stroke="none"  /><ellipse cx="13.876" cy="1.994" rx="1.000" ry="1.000" fill="none" stroke="#000000"  stroke-width="0.100" /><polyline fill="none" stroke="#000000" stroke-width="0.100"  points="13.169,2.701 13.064,3.038 13.464,2.938 13.639,3.362 13.876,2.994 14.239,3.413 14.339,2.938 14.764,3.112 14.584,2.701 "/>
<ellipse cx="15.689" cy="4.469" rx="1.000" ry="1.000" fill="#FFFFFF" stroke="none"  /><ellipse cx="15.689" cy="4.469" rx="1.000" ry="1.000" fill="none" stroke="#000000"  stroke-width="0.100" /><path stroke="#000000" fill="none" stroke-width="0.100"  d ="M 15.695,5.000 A 0.605,0.605 0 0,0 16.626,5.188 "/>
<path stroke="#000000" fill="none" stroke-width="0.100"  d ="M 14.733,5.188 A 0.629,0.629 0 0,0 15.683,5.000 "/>
<line x1="13.169" y1="2.701" x2="11.826" y2="2.919" stroke="#000000" stroke-width="0.100" />
<line x1="14.584" y1="2.701" x2="15.689" y2="3.469" stroke="#000000" stroke-width="0.100" />
<line x1="7.756" y1="3.094" x2="9.206" y2="3.094" stroke="#000099" stroke-width="0.100" />
<polygon fill="#000099" stroke="none" stroke-width="0.100" points="9.206,3.344 9.706,3.094 9.206,2.844 "/>
<polygon fill="none" stroke="#000099" stroke-width="0.100"  points="9.206,3.344 9.706,3.094 9.206,2.844 "/>
<polygon fill="#FFFFFF" stroke="none" stroke-width="0.100" points="2.004,5.994 2.826,7.365 1.181,7.365 "/>
<polygon fill="none" stroke="#000099" stroke-width="0.100"  points="2.004,5.994 2.826,7.365 1.181,7.365 "/>
<polygon fill="none" stroke="#000099" stroke-width="0.010"  points="2.004,5.994 2.826,7.365 1.181,7.365 "/>
<line x1="2.004" y1="5.994" x2="2.874" y2="5.401" stroke="#000099" stroke-width="0.100" />
<polygon fill="#FFFFFF" stroke="none" stroke-width="0.100" points="9.785,6.605 10.607,7.975 8.962,7.975 "/>
<polygon fill="none" stroke="#000099" stroke-width="0.100"  points="9.785,6.605 10.607,7.975 8.962,7.975 "/>
<polygon fill="none" stroke="#000099" stroke-width="0.010"  points="9.785,6.605 10.607,7.975 8.962,7.975 "/>
<line x1="9.785" y1="6.605" x2="10.251" y2="5.995" stroke="#000099" stroke-width="0.100" />
<line x1="16.692" y1="3.118" x2="18.142" y2="3.118" stroke="#000099" stroke-width="0.100" />
<polygon fill="#000099" stroke="none" stroke-width="0.100" points="18.142,3.368 18.642,3.118 18.142,2.868 "/>
<polygon fill="none" stroke="#000099" stroke-width="0.100"  points="18.142,3.368 18.642,3.118 18.142,2.868 "/>
</svg>