<?xml version="1.0" encoding="UTF-8" standalone="no"?>
<!-- Created with Inkscape (http://www.inkscape.org/) -->

<svg
   xmlns:dc="http://purl.org/dc/elements/1.1/"
   xmlns:cc="http://creativecommons.org/ns#"
   xmlns:rdf="http://www.w3.org/1999/02/22-rdf-syntax-ns#"
   xmlns:svg="http://www.w3.org/2000/svg"
   xmlns="http://www.w3.org/2000/svg"
   xmlns:sodipodi="http://sodipodi.sourceforge.net/DTD/sodipodi-0.dtd"
   xmlns:inkscape="http://www.inkscape.org/namespaces/inkscape"
   version="1.1"
   id="svg4802"
   xml:space="preserve"
   width="557"
   height="373"
   viewBox="0 0 557 373"
   sodipodi:docname="rb_example2.svg"
   inkscape:version="0.92.4 5da689c313, 2019-01-14"><metadata
     id="metadata4808"><rdf:RDF><cc:Work
         rdf:about=""><dc:format>image/svg+xml</dc:format><dc:type
           rdf:resource="http://purl.org/dc/dcmitype/StillImage" /><dc:title></dc:title></cc:Work></rdf:RDF></metadata><defs
     id="defs4806"><clipPath
       clipPathUnits="userSpaceOnUse"
       id="clipPath4820"><path
         d="m 49.072,228.45 c -11.741,0 -21.26,-9.51 -21.26,-21.26 0,-11.74 9.519,-21.26 21.26,-21.26 11.742,0 21.26,9.52 21.26,21.26 0,11.75 -9.518,21.26 -21.26,21.26 z M 0,279.75 H 417.75 V 0 H 0 Z"
         id="path4818"
         inkscape:connector-curvature="0"
         style="clip-rule:evenodd" /></clipPath><clipPath
       clipPathUnits="userSpaceOnUse"
       id="clipPath4830"><path
         d="m 26.372,208.63 c 0,11.75 9.519,21.26 21.26,21.26 11.741,0 21.26,-9.51 21.26,-21.26 0,0 0,0 0,0 0,-11.74 -9.518,-21.26 -21.26,-21.26 -11.741,0 -21.26,9.52 -21.26,21.26 z"
         id="path4828"
         inkscape:connector-curvature="0"
         style="clip-rule:evenodd" /></clipPath><linearGradient
       x1="47.632"
       y1="186.62"
       x2="47.632"
       y2="230.64"
       gradientUnits="userSpaceOnUse"
       spreadMethod="pad"
       id="linearGradient4836"><stop
         style="stop-opacity:1;stop-color:#000000"
         offset="0"
         id="stop4832" /><stop
         style="stop-opacity:1;stop-color:#000000"
         offset="1"
         id="stop4834" /></linearGradient><clipPath
       clipPathUnits="userSpaceOnUse"
       id="clipPath4854"><path
         d="m 114.83,275.74 c -11.75,0 -21.264,-9.51 -21.264,-21.26 0,-11.74 9.514,-21.26 21.264,-21.26 11.74,0 21.26,9.52 21.26,21.26 0,11.75 -9.52,21.26 -21.26,21.26 z M 0,279.75 H 417.75 V 0 H 0 Z"
         id="path4852"
         inkscape:connector-curvature="0"
         style="clip-rule:evenodd" /></clipPath><clipPath
       clipPathUnits="userSpaceOnUse"
       id="clipPath4864"><path
         d="m 92.126,255.92 c 0,11.75 9.514,21.26 21.264,21.26 11.74,0 21.26,-9.51 21.26,-21.26 0,0 0,0 0,0 0,-11.74 -9.52,-21.26 -21.26,-21.26 -11.75,0 -21.264,9.52 -21.264,21.26 z"
         id="path4862"
         inkscape:connector-curvature="0"
         style="clip-rule:evenodd" /></clipPath><linearGradient
       x1="113.39"
       y1="233.91"
       x2="113.39"
       y2="277.92999"
       gradientUnits="userSpaceOnUse"
       spreadMethod="pad"
       id="linearGradient4870"><stop
         style="stop-opacity:1;stop-color:#000000"
         offset="0"
         id="stop4866" /><stop
         style="stop-opacity:1;stop-color:#000000"
         offset="1"
         id="stop4868" /></linearGradient><clipPath
       clipPathUnits="userSpaceOnUse"
       id="clipPath4894"><path
         d="m 178.05,228.45 c -11.74,0 -21.26,-9.51 -21.26,-21.26 0,-11.74 9.52,-21.26 21.26,-21.26 11.74,0 21.26,9.52 21.26,21.26 0,11.75 -9.52,21.26 -21.26,21.26 z M 0,279.75 H 417.75 V 0 H 0 Z"
         id="path4892"
         inkscape:connector-curvature="0"
         style="clip-rule:evenodd" /></clipPath><clipPath
       clipPathUnits="userSpaceOnUse"
       id="clipPath4904"><path
         d="m 155.35,208.63 c 0,11.75 9.52,21.26 21.26,21.26 11.74,0 21.26,-9.51 21.26,-21.26 0,0 0,0 0,0 0,-11.74 -9.52,-21.26 -21.26,-21.26 -11.74,0 -21.26,9.52 -21.26,21.26 z"
         id="path4902"
         inkscape:connector-curvature="0"
         style="clip-rule:evenodd" /></clipPath><linearGradient
       x1="176.61"
       y1="186.62"
       x2="176.61"
       y2="230.64"
       gradientUnits="userSpaceOnUse"
       spreadMethod="pad"
       id="linearGradient4910"><stop
         style="stop-opacity:1;stop-color:#e10000"
         offset="0"
         id="stop4906" /><stop
         style="stop-opacity:1;stop-color:#ff0000"
         offset="1"
         id="stop4908" /></linearGradient><clipPath
       clipPathUnits="userSpaceOnUse"
       id="clipPath4930"><path
         d="m 114.27,171.76 c -11.74,0 -21.261,-9.52 -21.261,-21.26 0,-11.74 9.521,-21.26 21.261,-21.26 11.74,0 21.26,9.52 21.26,21.26 0,11.74 -9.52,21.26 -21.26,21.26 z M 0,279.75 H 417.75 V 0 H 0 Z"
         id="path4928"
         inkscape:connector-curvature="0"
         style="clip-rule:evenodd" /></clipPath><clipPath
       clipPathUnits="userSpaceOnUse"
       id="clipPath4940"><path
         d="m 91.569,151.94 c 0,11.74 9.521,21.26 21.261,21.26 11.74,0 21.26,-9.52 21.26,-21.26 0,0 0,0 0,0 0,-11.74 -9.52,-21.26 -21.26,-21.26 -11.74,0 -21.261,9.52 -21.261,21.26 z"
         id="path4938"
         inkscape:connector-curvature="0"
         style="clip-rule:evenodd" /></clipPath><linearGradient
       x1="112.83"
       y1="129.92999"
       x2="112.83"
       y2="173.95"
       gradientUnits="userSpaceOnUse"
       spreadMethod="pad"
       id="linearGradient4946"><stop
         style="stop-opacity:1;stop-color:#000000"
         offset="0"
         id="stop4942" /><stop
         style="stop-opacity:1;stop-color:#000000"
         offset="1"
         id="stop4944" /></linearGradient><clipPath
       clipPathUnits="userSpaceOnUse"
       id="clipPath4964"><path
         d="m 178.05,122.15 c -11.74,0 -21.26,-9.51 -21.26,-21.26 0,-11.737 9.52,-21.255 21.26,-21.255 11.74,0 21.26,9.518 21.26,21.255 0,11.75 -9.52,21.26 -21.26,21.26 z M 0,279.75 H 417.75 V 0 H 0 Z"
         id="path4962"
         inkscape:connector-curvature="0"
         style="clip-rule:evenodd" /></clipPath><clipPath
       clipPathUnits="userSpaceOnUse"
       id="clipPath4974"><path
         d="m 155.35,102.33 c 0,11.75 9.52,21.26 21.26,21.26 11.74,0 21.26,-9.51 21.26,-21.26 0,0 0,0 0,0 0,-11.737 -9.52,-21.255 -21.26,-21.255 -11.74,0 -21.26,9.518 -21.26,21.255 z"
         id="path4972"
         inkscape:connector-curvature="0"
         style="clip-rule:evenodd" /></clipPath><linearGradient
       x1="176.61"
       y1="80.324997"
       x2="176.61"
       y2="124.34"
       gradientUnits="userSpaceOnUse"
       spreadMethod="pad"
       id="linearGradient4980"><stop
         style="stop-opacity:1;stop-color:#e10000"
         offset="0"
         id="stop4976" /><stop
         style="stop-opacity:1;stop-color:#ff0000"
         offset="1"
         id="stop4978" /></linearGradient><clipPath
       clipPathUnits="userSpaceOnUse"
       id="clipPath4998"><path
         d="m 243.25,171.76 c -11.75,0 -21.26,-9.52 -21.26,-21.26 0,-11.74 9.51,-21.26 21.26,-21.26 11.74,0 21.26,9.52 21.26,21.26 0,11.74 -9.52,21.26 -21.26,21.26 z M 0,279.75 H 417.75 V 0 H 0 Z"
         id="path4996"
         inkscape:connector-curvature="0"
         style="clip-rule:evenodd" /></clipPath><clipPath
       clipPathUnits="userSpaceOnUse"
       id="clipPath5008"><path
         d="m 220.55,151.94 c 0,11.74 9.51,21.26 21.26,21.26 11.74,0 21.26,-9.52 21.26,-21.26 0,0 0,0 0,0 0,-11.74 -9.52,-21.26 -21.26,-21.26 -11.75,0 -21.26,9.52 -21.26,21.26 z"
         id="path5006"
         inkscape:connector-curvature="0"
         style="clip-rule:evenodd" /></clipPath><linearGradient
       x1="241.81"
       y1="129.92999"
       x2="241.81"
       y2="173.95"
       gradientUnits="userSpaceOnUse"
       spreadMethod="pad"
       id="linearGradient5014"><stop
         style="stop-opacity:1;stop-color:#000000"
         offset="0"
         id="stop5010" /><stop
         style="stop-opacity:1;stop-color:#000000"
         offset="1"
         id="stop5012" /></linearGradient><clipPath
       clipPathUnits="userSpaceOnUse"
       id="clipPath5032"><path
         d="m 307.02,122.15 c -11.74,0 -21.26,-9.51 -21.26,-21.26 0,-11.737 9.52,-21.255 21.26,-21.255 11.75,0 21.26,9.518 21.26,21.255 0,11.75 -9.51,21.26 -21.26,21.26 z M 0,279.75 H 417.75 V 0 H 0 Z"
         id="path5030"
         inkscape:connector-curvature="0"
         style="clip-rule:evenodd" /></clipPath><clipPath
       clipPathUnits="userSpaceOnUse"
       id="clipPath5042"><path
         d="m 284.32,102.33 c 0,11.75 9.52,21.26 21.26,21.26 11.75,0 21.26,-9.51 21.26,-21.26 0,0 0,0 0,0 0,-11.737 -9.51,-21.255 -21.26,-21.255 -11.74,0 -21.26,9.518 -21.26,21.255 z"
         id="path5040"
         inkscape:connector-curvature="0"
         style="clip-rule:evenodd" /></clipPath><linearGradient
       x1="305.57999"
       y1="80.324997"
       x2="305.57999"
       y2="124.34"
       gradientUnits="userSpaceOnUse"
       spreadMethod="pad"
       id="linearGradient5048"><stop
         style="stop-opacity:1;stop-color:#e10000"
         offset="0"
         id="stop5044" /><stop
         style="stop-opacity:1;stop-color:#ff0000"
         offset="1"
         id="stop5046" /></linearGradient><clipPath
       clipPathUnits="userSpaceOnUse"
       id="clipPath5098"><path
         d="m 369.39,65.462 c -11.74,0 -21.26,-9.519 -21.26,-21.26 0,-11.742 9.52,-21.26 21.26,-21.26 11.74,0 21.26,9.518 21.26,21.26 0,11.741 -9.52,21.26 -21.26,21.26 z M 0,279.75 H 417.75 V 0 H 0 Z"
         id="path5096"
         inkscape:connector-curvature="0"
         style="clip-rule:evenodd" /></clipPath><clipPath
       clipPathUnits="userSpaceOnUse"
       id="clipPath5108"><path
         d="m 346.69,45.642 c 0,11.741 9.52,21.26 21.26,21.26 11.74,0 21.26,-9.519 21.26,-21.26 0,0 0,0 0,0 0,-11.742 -9.52,-21.26 -21.26,-21.26 -11.74,0 -21.26,9.518 -21.26,21.26 z"
         id="path5106"
         inkscape:connector-curvature="0"
         style="clip-rule:evenodd" /></clipPath><linearGradient
       x1="367.95001"
       y1="23.632"
       x2="367.95001"
       y2="67.652"
       gradientUnits="userSpaceOnUse"
       spreadMethod="pad"
       id="linearGradient5114"><stop
         style="stop-opacity:1;stop-color:#e10000"
         offset="0"
         id="stop5110" /><stop
         style="stop-opacity:1;stop-color:#ff0000"
         offset="1"
         id="stop5112" /></linearGradient></defs><sodipodi:namedview
     pagecolor="#ffffff"
     bordercolor="#666666"
     borderopacity="1"
     objecttolerance="10"
     gridtolerance="10"
     guidetolerance="10"
     inkscape:pageopacity="0"
     inkscape:pageshadow="2"
     inkscape:window-width="1920"
     inkscape:window-height="1031"
     id="namedview4804"
     showgrid="false"
     inkscape:zoom="0.63270777"
     inkscape:cx="-43.923729"
     inkscape:cy="186.5"
     inkscape:window-x="0"
     inkscape:window-y="24"
     inkscape:window-maximized="0"
     inkscape:current-layer="g4810" /><g
     id="g4810"
     inkscape:groupmode="layer"
     inkscape:label="rb_example2"
     transform="matrix(1.3333333,0,0,-1.3333333,0,373)"><path
       d="m 27.812,207.19 c 0,11.75 9.519,21.26 21.26,21.26 11.742,0 21.26,-9.51 21.26,-21.26 0,0 0,0 0,0 0,-11.74 -9.518,-21.26 -21.26,-21.26 -11.741,0 -21.26,9.52 -21.26,21.26 z"
       style="fill:#cdcdcd;fill-opacity:0.49803999;fill-rule:evenodd;stroke:none"
       id="path4812"
       inkscape:connector-curvature="0" /><g
       id="g4814"><g
         id="g4816"
         clip-path="url(#clipPath4820)"><path
           d="m 27.812,207.19 c 0,11.75 9.519,21.26 21.26,21.26 11.742,0 21.26,-9.51 21.26,-21.26 0,0 0,0 0,0 0,-11.74 -9.518,-21.26 -21.26,-21.26 -11.741,0 -21.26,9.52 -21.26,21.26"
           style="fill:none;stroke:#cdcdcd;stroke-width:2.25;stroke-linecap:round;stroke-linejoin:round;stroke-miterlimit:10;stroke-dasharray:none;stroke-opacity:0.49803999"
           id="path4822"
           inkscape:connector-curvature="0" /></g></g><g
       id="g4824"><g
         id="g4826"
         clip-path="url(#clipPath4830)"><path
           d="m 25.622,186.62 h 44.02 v 44.02 h -44.02 z"
           style="fill:url(#linearGradient4836);fill-opacity:1;fill-rule:evenodd;stroke:none"
           id="path4838"
           inkscape:connector-curvature="0" /></g></g><path
       d="m 26.372,208.63 c 0,11.75 9.519,21.26 21.26,21.26 11.742,0 21.26,-9.51 21.26,-21.26 0,0 0,0 0,0 0,-11.74 -9.518,-21.26 -21.26,-21.26 -11.741,0 -21.26,9.52 -21.26,21.26 z"
       style="fill:none;stroke:#000000;stroke-width:2.25;stroke-linecap:round;stroke-linejoin:round;stroke-miterlimit:10;stroke-dasharray:none;stroke-opacity:1"
       id="path4840"
       inkscape:connector-curvature="0" /><text
       transform="matrix(1,0,0,-1,41.55,201.43)"
       style="font-variant:normal;font-weight:normal;font-size:23.99975967px;font-family:CALIBRI;-inkscape-font-specification:CALIBRI;writing-mode:lr-tb;fill:#ffffff;fill-opacity:1;fill-rule:nonzero;stroke:none"
       id="text4844"><tspan
         x="0"
         y="0"
         id="tspan4842">1</tspan></text>
<path
       d="m 93.566,254.48 c 0,11.75 9.514,21.26 21.264,21.26 11.74,0 21.26,-9.51 21.26,-21.26 0,0 0,0 0,0 0,-11.74 -9.52,-21.26 -21.26,-21.26 -11.75,0 -21.264,9.52 -21.264,21.26 z"
       style="fill:#cdcdcd;fill-opacity:0.49803999;fill-rule:evenodd;stroke:none"
       id="path4846"
       inkscape:connector-curvature="0" /><g
       id="g4848"><g
         id="g4850"
         clip-path="url(#clipPath4854)"><path
           d="m 93.566,254.48 c 0,11.75 9.514,21.26 21.264,21.26 11.74,0 21.26,-9.51 21.26,-21.26 0,0 0,0 0,0 0,-11.74 -9.52,-21.26 -21.26,-21.26 -11.75,0 -21.264,9.52 -21.264,21.26"
           style="fill:none;stroke:#cdcdcd;stroke-width:2.25;stroke-linecap:round;stroke-linejoin:round;stroke-miterlimit:10;stroke-dasharray:none;stroke-opacity:0.49803999"
           id="path4856"
           inkscape:connector-curvature="0" /></g></g><g
       id="g4858"><g
         id="g4860"
         clip-path="url(#clipPath4864)"><path
           d="m 91.376,233.91 h 44.02 v 44.02 h -44.02 z"
           style="fill:url(#linearGradient4870);fill-opacity:1;fill-rule:evenodd;stroke:none"
           id="path4872"
           inkscape:connector-curvature="0" /></g></g><path
       d="m 92.126,255.92 c 0,11.75 9.514,21.26 21.264,21.26 11.74,0 21.26,-9.51 21.26,-21.26 0,0 0,0 0,0 0,-11.74 -9.52,-21.26 -21.26,-21.26 -11.75,0 -21.264,9.52 -21.264,21.26 z"
       style="fill:none;stroke:#000000;stroke-width:2.25;stroke-linecap:round;stroke-linejoin:round;stroke-miterlimit:10;stroke-dasharray:none;stroke-opacity:1"
       id="path4874"
       inkscape:connector-curvature="0" /><text
       transform="matrix(1,0,0,-1,107.3,248.72)"
       style="font-variant:normal;font-weight:normal;font-size:23.99975967px;font-family:CALIBRI;-inkscape-font-specification:CALIBRI;writing-mode:lr-tb;fill:#ffffff;fill-opacity:1;fill-rule:nonzero;stroke:none"
       id="text4878"><tspan
         x="0"
         y="0"
         id="tspan4876">2</tspan></text>
<path
       d="M 96.126,243.51 64.892,221.05"
       style="fill:none;stroke:#000000;stroke-width:2.25;stroke-linecap:round;stroke-linejoin:round;stroke-miterlimit:10;stroke-dasharray:none;stroke-opacity:1"
       id="path4880"
       inkscape:connector-curvature="0" /><path
       d="M 32.053,194.17 7.947,171.78"
       style="fill:none;stroke:#000000;stroke-width:2.25;stroke-linecap:round;stroke-linejoin:round;stroke-miterlimit:10;stroke-dasharray:none;stroke-opacity:1"
       id="path4882"
       inkscape:connector-curvature="0" /><path
       d="m 10.569,174.22 c -1.3448,1.45 -3.6084,1.53 -5.0563,0.19 -1.4478,-1.35 -1.5317,-3.61 -0.1873,-5.06 0,0 0,0 0,0 1.3445,-1.45 3.6081,-1.53 5.0556,-0.19 1.448,1.35 1.532,3.61 0.188,5.06 z"
       style="fill:#000000;fill-opacity:1;fill-rule:evenodd;stroke:none"
       id="path4884"
       inkscape:connector-curvature="0" /><path
       d="m 156.79,207.19 c 0,11.75 9.52,21.26 21.26,21.26 11.74,0 21.26,-9.51 21.26,-21.26 0,0 0,0 0,0 0,-11.74 -9.52,-21.26 -21.26,-21.26 -11.74,0 -21.26,9.52 -21.26,21.26 z"
       style="fill:#cdcdcd;fill-opacity:0.49803999;fill-rule:evenodd;stroke:none"
       id="path4886"
       inkscape:connector-curvature="0" /><g
       id="g4888"><g
         id="g4890"
         clip-path="url(#clipPath4894)"><path
           d="m 156.79,207.19 c 0,11.75 9.52,21.26 21.26,21.26 11.74,0 21.26,-9.51 21.26,-21.26 0,0 0,0 0,0 0,-11.74 -9.52,-21.26 -21.26,-21.26 -11.74,0 -21.26,9.52 -21.26,21.26"
           style="fill:none;stroke:#cdcdcd;stroke-width:2.25;stroke-linecap:round;stroke-linejoin:round;stroke-miterlimit:10;stroke-dasharray:none;stroke-opacity:0.49803999"
           id="path4896"
           inkscape:connector-curvature="0" /></g></g><g
       id="g4898"><g
         id="g4900"
         clip-path="url(#clipPath4904)"><path
           d="m 154.6,186.62 h 44.02 v 44.02 H 154.6 Z"
           style="fill:url(#linearGradient4910);fill-opacity:1;fill-rule:evenodd;stroke:none"
           id="path4912"
           inkscape:connector-curvature="0" /></g></g><path
       d="m 155.35,208.63 c 0,11.75 9.52,21.26 21.26,21.26 11.74,0 21.26,-9.51 21.26,-21.26 0,0 0,0 0,0 0,-11.74 -9.52,-21.26 -21.26,-21.26 -11.74,0 -21.26,9.52 -21.26,21.26 z"
       style="fill:none;stroke:#000000;stroke-width:2.25;stroke-linecap:round;stroke-linejoin:round;stroke-miterlimit:10;stroke-dasharray:none;stroke-opacity:1"
       id="path4914"
       inkscape:connector-curvature="0" /><text
       transform="matrix(1,0,0,-1,170.53,201.43)"
       style="font-variant:normal;font-weight:normal;font-size:23.99975967px;font-family:CALIBRI;-inkscape-font-specification:CALIBRI;writing-mode:lr-tb;fill:#ffffff;fill-opacity:1;fill-rule:nonzero;stroke:none"
       id="text4918"><tspan
         x="0"
         y="0"
         id="tspan4916">4</tspan></text>
<path
       d="m 159.58,221.37 -29.17,21.82"
       style="fill:none;stroke:#000000;stroke-width:2.25;stroke-linecap:round;stroke-linejoin:round;stroke-miterlimit:10;stroke-dasharray:none;stroke-opacity:1"
       id="path4920"
       inkscape:connector-curvature="0" /><path
       d="m 93.009,150.5 c 0,11.74 9.521,21.26 21.261,21.26 11.74,0 21.26,-9.52 21.26,-21.26 0,0 0,0 0,0 0,-11.74 -9.52,-21.26 -21.26,-21.26 -11.74,0 -21.261,9.52 -21.261,21.26 z"
       style="fill:#cdcdcd;fill-opacity:0.49803999;fill-rule:evenodd;stroke:none"
       id="path4922"
       inkscape:connector-curvature="0" /><g
       id="g4924"><g
         id="g4926"
         clip-path="url(#clipPath4930)"><path
           d="m 93.009,150.5 c 0,11.74 9.521,21.26 21.261,21.26 11.74,0 21.26,-9.52 21.26,-21.26 0,0 0,0 0,0 0,-11.74 -9.52,-21.26 -21.26,-21.26 -11.74,0 -21.261,9.52 -21.261,21.26"
           style="fill:none;stroke:#cdcdcd;stroke-width:2.25;stroke-linecap:round;stroke-linejoin:round;stroke-miterlimit:10;stroke-dasharray:none;stroke-opacity:0.49803999"
           id="path4932"
           inkscape:connector-curvature="0" /></g></g><g
       id="g4934"><g
         id="g4936"
         clip-path="url(#clipPath4940)"><path
           d="m 90.819,129.93 h 44.02 v 44.02 h -44.02 z"
           style="fill:url(#linearGradient4946);fill-opacity:1;fill-rule:evenodd;stroke:none"
           id="path4948"
           inkscape:connector-curvature="0" /></g></g><path
       d="m 91.569,151.94 c 0,11.74 9.521,21.26 21.261,21.26 11.74,0 21.26,-9.52 21.26,-21.26 0,0 0,0 0,0 0,-11.74 -9.52,-21.26 -21.26,-21.26 -11.74,0 -21.261,9.52 -21.261,21.26 z"
       style="fill:none;stroke:#000000;stroke-width:2.25;stroke-linecap:round;stroke-linejoin:round;stroke-miterlimit:10;stroke-dasharray:none;stroke-opacity:1"
       id="path4950"
       inkscape:connector-curvature="0" /><text
       transform="matrix(1,0,0,-1,106.75,144.74)"
       style="font-variant:normal;font-weight:normal;font-size:23.99975967px;font-family:CALIBRI;-inkscape-font-specification:CALIBRI;writing-mode:lr-tb;fill:#ffffff;fill-opacity:1;fill-rule:nonzero;stroke:none"
       id="text4954"><tspan
         x="0"
         y="0"
         id="tspan4952">3</tspan></text>
<path
       d="m 156.79,100.89 c 0,11.75 9.52,21.26 21.26,21.26 11.74,0 21.26,-9.51 21.26,-21.26 0,0 0,0 0,0 0,-11.737 -9.52,-21.255 -21.26,-21.255 -11.74,0 -21.26,9.518 -21.26,21.255 z"
       style="fill:#cdcdcd;fill-opacity:0.49803999;fill-rule:evenodd;stroke:none"
       id="path4956"
       inkscape:connector-curvature="0" /><g
       id="g4958"><g
         id="g4960"
         clip-path="url(#clipPath4964)"><path
           d="m 156.79,100.89 c 0,11.75 9.52,21.26 21.26,21.26 11.74,0 21.26,-9.51 21.26,-21.26 0,0 0,0 0,0 0,-11.737 -9.52,-21.255 -21.26,-21.255 -11.74,0 -21.26,9.518 -21.26,21.255"
           style="fill:none;stroke:#cdcdcd;stroke-width:2.25;stroke-linecap:round;stroke-linejoin:round;stroke-miterlimit:10;stroke-dasharray:none;stroke-opacity:0.49803999"
           id="path4966"
           inkscape:connector-curvature="0" /></g></g><g
       id="g4968"><g
         id="g4970"
         clip-path="url(#clipPath4974)"><path
           d="m 154.6,80.325 h 44.02 v 44.02 H 154.6 Z"
           style="fill:url(#linearGradient4980);fill-opacity:1;fill-rule:evenodd;stroke:none"
           id="path4982"
           inkscape:connector-curvature="0" /></g></g><path
       d="m 155.35,102.33 c 0,11.75 9.52,21.26 21.26,21.26 11.74,0 21.26,-9.51 21.26,-21.26 0,0 0,0 0,0 0,-11.737 -9.52,-21.255 -21.26,-21.255 -11.74,0 -21.26,9.518 -21.26,21.255 z"
       style="fill:none;stroke:#000000;stroke-width:2.25;stroke-linecap:round;stroke-linejoin:round;stroke-miterlimit:10;stroke-dasharray:none;stroke-opacity:1"
       id="path4984"
       inkscape:connector-curvature="0" /><text
       transform="matrix(1,0,0,-1,170.53,95.135)"
       style="font-variant:normal;font-weight:normal;font-size:23.99975967px;font-family:CALIBRI;-inkscape-font-specification:CALIBRI;writing-mode:lr-tb;fill:#ffffff;fill-opacity:1;fill-rule:nonzero;stroke:none"
       id="text4988"><tspan
         x="0"
         y="0"
         id="tspan4986">5</tspan></text>
<path
       d="m 221.99,150.5 c 0,11.74 9.51,21.26 21.26,21.26 11.74,0 21.26,-9.52 21.26,-21.26 0,0 0,0 0,0 0,-11.74 -9.52,-21.26 -21.26,-21.26 -11.75,0 -21.26,9.52 -21.26,21.26 z"
       style="fill:#cdcdcd;fill-opacity:0.49803999;fill-rule:evenodd;stroke:none"
       id="path4990"
       inkscape:connector-curvature="0" /><g
       id="g4992"><g
         id="g4994"
         clip-path="url(#clipPath4998)"><path
           d="m 221.99,150.5 c 0,11.74 9.51,21.26 21.26,21.26 11.74,0 21.26,-9.52 21.26,-21.26 0,0 0,0 0,0 0,-11.74 -9.52,-21.26 -21.26,-21.26 -11.75,0 -21.26,9.52 -21.26,21.26"
           style="fill:none;stroke:#cdcdcd;stroke-width:2.25;stroke-linecap:round;stroke-linejoin:round;stroke-miterlimit:10;stroke-dasharray:none;stroke-opacity:0.49803999"
           id="path5000"
           inkscape:connector-curvature="0" /></g></g><g
       id="g5002"><g
         id="g5004"
         clip-path="url(#clipPath5008)"><path
           d="m 219.8,129.93 h 44.02 v 44.02 H 219.8 Z"
           style="fill:url(#linearGradient5014);fill-opacity:1;fill-rule:evenodd;stroke:none"
           id="path5016"
           inkscape:connector-curvature="0" /></g></g><path
       d="m 220.55,151.94 c 0,11.74 9.51,21.26 21.26,21.26 11.74,0 21.26,-9.52 21.26,-21.26 0,0 0,0 0,0 0,-11.74 -9.52,-21.26 -21.26,-21.26 -11.75,0 -21.26,9.52 -21.26,21.26 z"
       style="fill:none;stroke:#000000;stroke-width:2.25;stroke-linecap:round;stroke-linejoin:round;stroke-miterlimit:10;stroke-dasharray:none;stroke-opacity:1"
       id="path5018"
       inkscape:connector-curvature="0" /><text
       transform="matrix(1,0,0,-1,235.72,144.74)"
       style="font-variant:normal;font-weight:normal;font-size:23.99975967px;font-family:CALIBRI;-inkscape-font-specification:CALIBRI;writing-mode:lr-tb;fill:#ffffff;fill-opacity:1;fill-rule:nonzero;stroke:none"
       id="text5022"><tspan
         x="0"
         y="0"
         id="tspan5020">6</tspan></text>
<path
       d="m 285.76,100.89 c 0,11.75 9.52,21.26 21.26,21.26 11.75,0 21.26,-9.51 21.26,-21.26 0,0 0,0 0,0 0,-11.737 -9.51,-21.255 -21.26,-21.255 -11.74,0 -21.26,9.518 -21.26,21.255 z"
       style="fill:#cdcdcd;fill-opacity:0.49803999;fill-rule:evenodd;stroke:none"
       id="path5024"
       inkscape:connector-curvature="0" /><g
       id="g5026"><g
         id="g5028"
         clip-path="url(#clipPath5032)"><path
           d="m 285.76,100.89 c 0,11.75 9.52,21.26 21.26,21.26 11.75,0 21.26,-9.51 21.26,-21.26 0,0 0,0 0,0 0,-11.737 -9.51,-21.255 -21.26,-21.255 -11.74,0 -21.26,9.518 -21.26,21.255"
           style="fill:none;stroke:#cdcdcd;stroke-width:2.25;stroke-linecap:round;stroke-linejoin:round;stroke-miterlimit:10;stroke-dasharray:none;stroke-opacity:0.49803999"
           id="path5034"
           inkscape:connector-curvature="0" /></g></g><g
       id="g5036"><g
         id="g5038"
         clip-path="url(#clipPath5042)"><path
           d="m 283.57,80.325 h 44.02 v 44.02 h -44.02 z"
           style="fill:url(#linearGradient5048);fill-opacity:1;fill-rule:evenodd;stroke:none"
           id="path5050"
           inkscape:connector-curvature="0" /></g></g><path
       d="m 284.32,102.33 c 0,11.75 9.52,21.26 21.26,21.26 11.75,0 21.26,-9.51 21.26,-21.26 0,0 0,0 0,0 0,-11.737 -9.51,-21.255 -21.26,-21.255 -11.74,0 -21.26,9.518 -21.26,21.255 z"
       style="fill:none;stroke:#000000;stroke-width:2.25;stroke-linecap:round;stroke-linejoin:round;stroke-miterlimit:10;stroke-dasharray:none;stroke-opacity:1"
       id="path5052"
       inkscape:connector-curvature="0" /><text
       transform="matrix(1,0,0,-1,299.5,95.135)"
       style="font-variant:normal;font-weight:normal;font-size:23.99975967px;font-family:CALIBRI;-inkscape-font-specification:CALIBRI;writing-mode:lr-tb;fill:#ffffff;fill-opacity:1;fill-rule:nonzero;stroke:none"
       id="text5056"><tspan
         x="0"
         y="0"
         id="tspan5054">7</tspan></text>
<path
       d="m 225.76,165.89 -33.11,28.79"
       style="fill:none;stroke:#000000;stroke-width:2.25;stroke-linecap:round;stroke-linejoin:round;stroke-miterlimit:10;stroke-dasharray:none;stroke-opacity:1"
       id="path5058"
       inkscape:connector-curvature="0" /><path
       d="m 128.72,166.07 32,28.44"
       style="fill:none;stroke:#000000;stroke-width:2.25;stroke-linecap:round;stroke-linejoin:round;stroke-miterlimit:10;stroke-dasharray:none;stroke-opacity:1"
       id="path5060"
       inkscape:connector-curvature="0" /><path
       d="m 288.8,115.39 -30.21,23.5"
       style="fill:none;stroke:#000000;stroke-width:2.25;stroke-linecap:round;stroke-linejoin:round;stroke-miterlimit:10;stroke-dasharray:none;stroke-opacity:1"
       id="path5062"
       inkscape:connector-curvature="0" /><path
       d="M 224.89,139.07 193.53,115.21"
       style="fill:none;stroke:#000000;stroke-width:2.25;stroke-linecap:round;stroke-linejoin:round;stroke-miterlimit:10;stroke-dasharray:none;stroke-opacity:1"
       id="path5064"
       inkscape:connector-curvature="0" /><path
       d="M 97.796,136.91 78.813,117.93"
       style="fill:none;stroke:#000000;stroke-width:2.25;stroke-linecap:round;stroke-linejoin:round;stroke-miterlimit:10;stroke-dasharray:none;stroke-opacity:1"
       id="path5066"
       inkscape:connector-curvature="0" /><path
       d="m 81.343,120.45 c -1.397,1.4 -3.662,1.4 -5.06,0 -1.397,-1.39 -1.397,-3.66 0,-5.05 0,0 0,0 0,0 1.398,-1.4 3.663,-1.4 5.06,0 1.397,1.39 1.397,3.66 0,5.05 z"
       style="fill:#000000;fill-opacity:1;fill-rule:evenodd;stroke:none"
       id="path5068"
       inkscape:connector-curvature="0" /><path
       d="M 63.254,194.21 84.482,174.62"
       style="fill:none;stroke:#000000;stroke-width:2.25;stroke-linecap:round;stroke-linejoin:round;stroke-miterlimit:10;stroke-dasharray:none;stroke-opacity:1"
       id="path5070"
       inkscape:connector-curvature="0" /><path
       d="m 81.854,177.04 c -1.34,-1.45 -1.25,-3.71 0.202,-5.05 1.452,-1.34 3.715,-1.25 5.055,0.2 0,0 0,0 0,0 1.34,1.45 1.25,3.72 -0.202,5.06 -1.452,1.34 -3.715,1.25 -5.055,-0.21 z"
       style="fill:#000000;fill-opacity:1;fill-rule:evenodd;stroke:none"
       id="path5072"
       inkscape:connector-curvature="0" /><path
       d="m 161.58,87.302 -20.4,-20.4"
       style="fill:none;stroke:#000000;stroke-width:2.25;stroke-linecap:round;stroke-linejoin:round;stroke-miterlimit:10;stroke-dasharray:none;stroke-opacity:1"
       id="path5074"
       inkscape:connector-curvature="0" /><path
       d="m 143.71,69.431 c -1.4,1.397 -3.67,1.397 -5.06,0 -1.4,-1.397 -1.4,-3.662 0,-5.059 0,0 0,0 0,0 1.39,-1.397 3.66,-1.397 5.06,0 1.39,1.397 1.39,3.662 0,5.059 z"
       style="fill:#000000;fill-opacity:1;fill-rule:evenodd;stroke:none"
       id="path5076"
       inkscape:connector-curvature="0" /><path
       d="M 293.51,84.833 277.24,61.232"
       style="fill:none;stroke:#000000;stroke-width:2.25;stroke-linecap:round;stroke-linejoin:round;stroke-miterlimit:10;stroke-dasharray:none;stroke-opacity:1"
       id="path5078"
       inkscape:connector-curvature="0" /><path
       d="m 279.27,64.177 c -1.63,1.122 -3.85,0.713 -4.98,-0.914 -1.12,-1.626 -0.71,-3.854 0.92,-4.976 0,0 0,0 0,0 1.62,-1.122 3.85,-0.712 4.97,0.914 1.13,1.627 0.72,3.855 -0.91,4.976 z"
       style="fill:#000000;fill-opacity:1;fill-rule:evenodd;stroke:none"
       id="path5080"
       inkscape:connector-curvature="0" /><path
       d="m 191.64,87.302 20.4,-20.4"
       style="fill:none;stroke:#000000;stroke-width:2.25;stroke-linecap:round;stroke-linejoin:round;stroke-miterlimit:10;stroke-dasharray:none;stroke-opacity:1"
       id="path5082"
       inkscape:connector-curvature="0" /><path
       d="m 209.51,69.431 c -1.4,-1.397 -1.4,-3.662 0,-5.059 1.4,-1.397 3.66,-1.397 5.06,0 0,0 0,0 0,0 1.4,1.397 1.4,3.662 0,5.059 -1.4,1.397 -3.66,1.397 -5.06,0 z"
       style="fill:#000000;fill-opacity:1;fill-rule:evenodd;stroke:none"
       id="path5084"
       inkscape:connector-curvature="0" /><path
       d="m 129.16,138.33 17.68,-14.74"
       style="fill:none;stroke:#000000;stroke-width:2.25;stroke-linecap:round;stroke-linejoin:round;stroke-miterlimit:10;stroke-dasharray:none;stroke-opacity:1"
       id="path5086"
       inkscape:connector-curvature="0" /><path
       d="m 144.1,125.88 c -1.27,-1.51 -1.06,-3.77 0.45,-5.03 1.52,-1.27 3.78,-1.06 5.04,0.45 0,0 0,0 0,0 1.27,1.52 1.06,3.78 -0.46,5.04 -1.51,1.27 -3.77,1.06 -5.03,-0.46 z"
       style="fill:#000000;fill-opacity:1;fill-rule:evenodd;stroke:none"
       id="path5088"
       inkscape:connector-curvature="0" /><path
       d="m 348.13,44.202 c 0,11.741 9.52,21.26 21.26,21.26 11.74,0 21.26,-9.519 21.26,-21.26 0,0 0,0 0,0 0,-11.742 -9.52,-21.26 -21.26,-21.26 -11.74,0 -21.26,9.518 -21.26,21.26 z"
       style="fill:#cdcdcd;fill-opacity:0.49803999;fill-rule:evenodd;stroke:none"
       id="path5090"
       inkscape:connector-curvature="0" /><g
       id="g5092"><g
         id="g5094"
         clip-path="url(#clipPath5098)"><path
           d="m 348.13,44.202 c 0,11.741 9.52,21.26 21.26,21.26 11.74,0 21.26,-9.519 21.26,-21.26 0,0 0,0 0,0 0,-11.742 -9.52,-21.26 -21.26,-21.26 -11.74,0 -21.26,9.518 -21.26,21.26"
           style="fill:none;stroke:#cdcdcd;stroke-width:2.25;stroke-linecap:round;stroke-linejoin:round;stroke-miterlimit:10;stroke-dasharray:none;stroke-opacity:0.49803999"
           id="path5100"
           inkscape:connector-curvature="0" /></g></g><g
       id="g5102"><g
         id="g5104"
         clip-path="url(#clipPath5108)"><path
           d="m 345.94,23.632 h 44.02 v 44.02 h -44.02 z"
           style="fill:url(#linearGradient5114);fill-opacity:1;fill-rule:evenodd;stroke:none"
           id="path5116"
           inkscape:connector-curvature="0" /></g></g><path
       d="m 346.69,45.642 c 0,11.741 9.52,21.26 21.26,21.26 11.74,0 21.26,-9.519 21.26,-21.26 0,0 0,0 0,0 0,-11.742 -9.52,-21.26 -21.26,-21.26 -11.74,0 -21.26,9.518 -21.26,21.26 z"
       style="fill:none;stroke:#000000;stroke-width:2.25;stroke-linecap:round;stroke-linejoin:round;stroke-miterlimit:10;stroke-dasharray:none;stroke-opacity:1"
       id="path5118"
       inkscape:connector-curvature="0" /><text
       transform="matrix(1,0,0,-1,361.86,38.442)"
       style="font-variant:normal;font-weight:normal;font-size:23.99975967px;font-family:CALIBRI;-inkscape-font-specification:CALIBRI;writing-mode:lr-tb;fill:#ffffff;fill-opacity:1;fill-rule:nonzero;stroke:none"
       id="text5122"><tspan
         x="0"
         y="0"
         id="tspan5120">8</tspan></text>
<path
       d="M 355.29,28.558 339.6,7.374"
       style="fill:none;stroke:#000000;stroke-width:2.25;stroke-linecap:round;stroke-linejoin:round;stroke-miterlimit:10;stroke-dasharray:none;stroke-opacity:1"
       id="path5124"
       inkscape:connector-curvature="0" /><path
       d="m 341.73,10.249 c -1.59,1.176 -3.83,0.842 -5,-0.7456 -1.18,-1.5876 -0.85,-3.828 0.74,-5.0041 0,0 0,0 0,0 1.59,-1.1761 3.83,-0.8424 5.01,0.7453 1.17,1.5877 0.84,3.8281 -0.75,5.0044 z"
       style="fill:#000000;fill-opacity:1;fill-rule:evenodd;stroke:none"
       id="path5126"
       inkscape:connector-curvature="0" /><path
       d="M 383.43,31.071 410.47,4.5394"
       style="fill:none;stroke:#000000;stroke-width:2.25;stroke-linecap:round;stroke-linejoin:round;stroke-miterlimit:10;stroke-dasharray:none;stroke-opacity:1"
       id="path5128"
       inkscape:connector-curvature="0" /><path
       d="m 407.91,7.045 c -1.38,-1.4102 -1.36,-3.6753 0.05,-5.0591 1.41,-1.38385 3.68,-1.36243 5.06,0.0478 0,0 0,0 0,0 1.38,1.4103 1.36,3.6753 -0.05,5.0591 -1.41,1.3839 -3.67,1.3625 -5.06,-0.0478 z"
       style="fill:#000000;fill-opacity:1;fill-rule:evenodd;stroke:none"
       id="path5130"
       inkscape:connector-curvature="0" /><path
       d="m 352.22,59.943 -30.9,28.091"
       style="fill:none;stroke:#000000;stroke-width:2.25;stroke-linecap:round;stroke-linejoin:round;stroke-miterlimit:10;stroke-dasharray:none;stroke-opacity:1"
       id="path5132"
       inkscape:connector-curvature="0" /></g></svg>