<?xml version="1.0" encoding="UTF-8" standalone="no"?>
<!-- Created with Inkscape (http://www.inkscape.org/) -->

<svg
   xmlns:dc="http://purl.org/dc/elements/1.1/"
   xmlns:cc="http://creativecommons.org/ns#"
   xmlns:rdf="http://www.w3.org/1999/02/22-rdf-syntax-ns#"
   xmlns:svg="http://www.w3.org/2000/svg"
   xmlns="http://www.w3.org/2000/svg"
   xmlns:sodipodi="http://sodipodi.sourceforge.net/DTD/sodipodi-0.dtd"
   xmlns:inkscape="http://www.inkscape.org/namespaces/inkscape"
   version="1.1"
   id="svg6552"
   xml:space="preserve"
   width="661"
   height="326"
   viewBox="0 0 661 326"
   sodipodi:docname="rb_example4.svg"
   inkscape:version="0.92.4 5da689c313, 2019-01-14"><metadata
     id="metadata6558"><rdf:RDF><cc:Work
         rdf:about=""><dc:format>image/svg+xml</dc:format><dc:type
           rdf:resource="http://purl.org/dc/dcmitype/StillImage" /><dc:title></dc:title></cc:Work></rdf:RDF></metadata><defs
     id="defs6556"><clipPath
       clipPathUnits="userSpaceOnUse"
       id="clipPath6570"><path
         d="m 49.072,126.59 c -11.741,0 -21.26,-9.52 -21.26,-21.26 0,-11.742 9.519,-21.26 21.26,-21.26 11.742,0 21.26,9.518 21.26,21.26 0,11.74 -9.518,21.26 -21.26,21.26 z M 0,244.5 H 495.75 V 0 H 0 Z"
         id="path6568"
         inkscape:connector-curvature="0"
         style="clip-rule:evenodd" /></clipPath><clipPath
       clipPathUnits="userSpaceOnUse"
       id="clipPath6580"><path
         d="m 26.372,106.77 c 0,11.74 9.519,21.26 21.26,21.26 11.741,0 21.26,-9.52 21.26,-21.26 0,0 0,0 0,0 0,-11.742 -9.518,-21.26 -21.26,-21.26 -11.741,0 -21.26,9.518 -21.26,21.26 z"
         id="path6578"
         inkscape:connector-curvature="0"
         style="clip-rule:evenodd" /></clipPath><linearGradient
       x1="47.632"
       y1="84.760002"
       x2="47.632"
       y2="128.78"
       gradientUnits="userSpaceOnUse"
       spreadMethod="pad"
       id="linearGradient6586"><stop
         style="stop-opacity:1;stop-color:#000000"
         offset="0"
         id="stop6582" /><stop
         style="stop-opacity:1;stop-color:#000000"
         offset="1"
         id="stop6584" /></linearGradient><clipPath
       clipPathUnits="userSpaceOnUse"
       id="clipPath6604"><path
         d="m 114.27,176.2 c -11.74,0 -21.261,-9.52 -21.261,-21.26 0,-11.75 9.521,-21.26 21.261,-21.26 11.74,0 21.26,9.51 21.26,21.26 0,11.74 -9.52,21.26 -21.26,21.26 z M 0,244.5 H 495.75 V 0 H 0 Z"
         id="path6602"
         inkscape:connector-curvature="0"
         style="clip-rule:evenodd" /></clipPath><clipPath
       clipPathUnits="userSpaceOnUse"
       id="clipPath6614"><path
         d="m 91.569,156.38 c 0,11.74 9.521,21.26 21.261,21.26 11.74,0 21.26,-9.52 21.26,-21.26 0,0 0,0 0,0 0,-11.75 -9.52,-21.26 -21.26,-21.26 -11.74,0 -21.261,9.51 -21.261,21.26 z"
         id="path6612"
         inkscape:connector-curvature="0"
         style="clip-rule:evenodd" /></clipPath><linearGradient
       x1="112.83"
       y1="134.37"
       x2="112.83"
       y2="178.39"
       gradientUnits="userSpaceOnUse"
       spreadMethod="pad"
       id="linearGradient6620"><stop
         style="stop-opacity:1;stop-color:#e10000"
         offset="0"
         id="stop6616" /><stop
         style="stop-opacity:1;stop-color:#ff0000"
         offset="1"
         id="stop6618" /></linearGradient><clipPath
       clipPathUnits="userSpaceOnUse"
       id="clipPath6644"><path
         d="m 221.12,237.66 c -11.74,0 -21.25,-9.52 -21.25,-21.26 0,-11.74 9.51,-21.26 21.26,-21.26 11.74,0 21.25,9.52 21.25,21.26 0,11.74 -9.51,21.26 -21.26,21.26 z M 0,244.5 H 495.75 V 0 H 0 Z"
         id="path6642"
         inkscape:connector-curvature="0"
         style="clip-rule:evenodd" /></clipPath><clipPath
       clipPathUnits="userSpaceOnUse"
       id="clipPath6654"><path
         d="m 198.43,217.84 c 0,11.74 9.51,21.26 21.25,21.26 11.75,0 21.26,-9.52 21.26,-21.26 0,0 0,0 0,0 0,-11.74 -9.51,-21.26 -21.25,-21.26 -11.75,0 -21.26,9.52 -21.26,21.26 z"
         id="path6652"
         inkscape:connector-curvature="0"
         style="clip-rule:evenodd" /></clipPath><linearGradient
       x1="219.69"
       y1="195.83"
       x2="219.69"
       y2="239.85001"
       gradientUnits="userSpaceOnUse"
       spreadMethod="pad"
       id="linearGradient6660"><stop
         style="stop-opacity:1;stop-color:#000000"
         offset="0"
         id="stop6656" /><stop
         style="stop-opacity:1;stop-color:#000000"
         offset="1"
         id="stop6658" /></linearGradient><clipPath
       clipPathUnits="userSpaceOnUse"
       id="clipPath6680"><path
         d="m 169.54,127.3 c -11.74,0 -21.26,-9.52 -21.26,-21.26 v 0 c 0,-11.743 9.52,-21.261 21.26,-21.261 11.75,0 21.26,9.518 21.26,21.261 0,11.74 -9.51,21.26 -21.26,21.26 z M 0,244.5 H 495.75 V 0 H 0 Z"
         id="path6678"
         inkscape:connector-curvature="0"
         style="clip-rule:evenodd" /></clipPath><clipPath
       clipPathUnits="userSpaceOnUse"
       id="clipPath6690"><path
         d="m 146.84,107.48 c 0,11.74 9.52,21.26 21.26,21.26 11.75,0 21.26,-9.52 21.26,-21.26 0,0 0,0 0,0 0,-11.743 -9.51,-21.262 -21.26,-21.262 -11.74,0 -21.26,9.519 -21.26,21.262 z"
         id="path6688"
         inkscape:connector-curvature="0"
         style="clip-rule:evenodd" /></clipPath><linearGradient
       x1="168.10001"
       y1="85.469002"
       x2="168.10001"
       y2="129.49001"
       gradientUnits="userSpaceOnUse"
       spreadMethod="pad"
       id="linearGradient6696"><stop
         style="stop-opacity:1;stop-color:#000000"
         offset="0"
         id="stop6692" /><stop
         style="stop-opacity:1;stop-color:#000000"
         offset="1"
         id="stop6694" /></linearGradient><clipPath
       clipPathUnits="userSpaceOnUse"
       id="clipPath6714"><path
         d="m 256,122.34 c -11.74,0 -21.26,-9.52 -21.26,-21.26 0,-11.744 9.52,-21.262 21.26,-21.262 11.74,0 21.26,9.518 21.26,21.262 0,11.74 -9.52,21.26 -21.26,21.26 z M 0,244.5 H 495.75 V 0 H 0 Z"
         id="path6712"
         inkscape:connector-curvature="0"
         style="clip-rule:evenodd" /></clipPath><clipPath
       clipPathUnits="userSpaceOnUse"
       id="clipPath6724"><path
         d="m 233.3,102.52 c 0,11.74 9.52,21.26 21.26,21.26 11.74,0 21.26,-9.52 21.26,-21.26 0,0 0,0 0,0 0,-11.744 -9.52,-21.262 -21.26,-21.262 -11.74,0 -21.26,9.518 -21.26,21.262 z"
         id="path6722"
         inkscape:connector-curvature="0"
         style="clip-rule:evenodd" /></clipPath><linearGradient
       x1="254.56"
       y1="80.508003"
       x2="254.56"
       y2="124.53"
       gradientUnits="userSpaceOnUse"
       spreadMethod="pad"
       id="linearGradient6730"><stop
         style="stop-opacity:1;stop-color:#000000"
         offset="0"
         id="stop6726" /><stop
         style="stop-opacity:1;stop-color:#000000"
         offset="1"
         id="stop6728" /></linearGradient><clipPath
       clipPathUnits="userSpaceOnUse"
       id="clipPath6748"><path
         d="m 321.2,171.94 c -11.74,0 -21.26,-9.51 -21.26,-21.26 0,-11.74 9.52,-21.26 21.26,-21.26 11.74,0 21.26,9.52 21.26,21.26 0,11.75 -9.52,21.26 -21.26,21.26 z M 0,244.5 H 495.75 V 0 H 0 Z"
         id="path6746"
         inkscape:connector-curvature="0"
         style="clip-rule:evenodd" /></clipPath><clipPath
       clipPathUnits="userSpaceOnUse"
       id="clipPath6758"><path
         d="m 298.5,152.12 c 0,11.75 9.52,21.26 21.26,21.26 11.74,0 21.26,-9.51 21.26,-21.26 0,0 0,0 0,0 0,-11.74 -9.52,-21.26 -21.26,-21.26 -11.74,0 -21.26,9.52 -21.26,21.26 z"
         id="path6756"
         inkscape:connector-curvature="0"
         style="clip-rule:evenodd" /></clipPath><linearGradient
       x1="319.76001"
       y1="130.11"
       x2="319.76001"
       y2="174.13"
       gradientUnits="userSpaceOnUse"
       spreadMethod="pad"
       id="linearGradient6764"><stop
         style="stop-opacity:1;stop-color:#e10000"
         offset="0"
         id="stop6760" /><stop
         style="stop-opacity:1;stop-color:#ff0000"
         offset="1"
         id="stop6762" /></linearGradient><clipPath
       clipPathUnits="userSpaceOnUse"
       id="clipPath6782"><path
         d="m 384.98,122.34 c -11.74,0 -21.26,-9.52 -21.26,-21.26 0,-11.744 9.52,-21.262 21.26,-21.262 11.74,0 21.26,9.518 21.26,21.262 0,11.74 -9.52,21.26 -21.26,21.26 z M 0,244.5 H 495.75 V 0 H 0 Z"
         id="path6780"
         inkscape:connector-curvature="0"
         style="clip-rule:evenodd" /></clipPath><clipPath
       clipPathUnits="userSpaceOnUse"
       id="clipPath6792"><path
         d="m 362.28,102.52 c 0,11.74 9.52,21.26 21.26,21.26 11.74,0 21.26,-9.52 21.26,-21.26 0,0 0,0 0,0 0,-11.744 -9.52,-21.262 -21.26,-21.262 -11.74,0 -21.26,9.518 -21.26,21.262 z"
         id="path6790"
         inkscape:connector-curvature="0"
         style="clip-rule:evenodd" /></clipPath><linearGradient
       x1="383.54001"
       y1="80.508003"
       x2="383.54001"
       y2="124.53"
       gradientUnits="userSpaceOnUse"
       spreadMethod="pad"
       id="linearGradient6798"><stop
         style="stop-opacity:1;stop-color:#000000"
         offset="0"
         id="stop6794" /><stop
         style="stop-opacity:1;stop-color:#000000"
         offset="1"
         id="stop6796" /></linearGradient><clipPath
       clipPathUnits="userSpaceOnUse"
       id="clipPath6846"><path
         d="m 447.34,65.645 c -11.74,0 -21.26,-9.519 -21.26,-21.26 0,-11.742 9.52,-21.26 21.26,-21.26 11.74,0 21.26,9.518 21.26,21.26 0,11.741 -9.52,21.26 -21.26,21.26 z M 0,244.5 H 495.75 V 0 H 0 Z"
         id="path6844"
         inkscape:connector-curvature="0"
         style="clip-rule:evenodd" /></clipPath><clipPath
       clipPathUnits="userSpaceOnUse"
       id="clipPath6856"><path
         d="m 424.64,45.825 c 0,11.741 9.52,21.26 21.26,21.26 11.74,0 21.26,-9.519 21.26,-21.26 0,0 0,0 0,0 0,-11.742 -9.52,-21.26 -21.26,-21.26 -11.74,0 -21.26,9.518 -21.26,21.26 z"
         id="path6854"
         inkscape:connector-curvature="0"
         style="clip-rule:evenodd" /></clipPath><linearGradient
       x1="445.89999"
       y1="23.815001"
       x2="445.89999"
       y2="67.834999"
       gradientUnits="userSpaceOnUse"
       spreadMethod="pad"
       id="linearGradient6862"><stop
         style="stop-opacity:1;stop-color:#e10000"
         offset="0"
         id="stop6858" /><stop
         style="stop-opacity:1;stop-color:#ff0000"
         offset="1"
         id="stop6860" /></linearGradient></defs><sodipodi:namedview
     pagecolor="#ffffff"
     bordercolor="#666666"
     borderopacity="1"
     objecttolerance="10"
     gridtolerance="10"
     guidetolerance="10"
     inkscape:pageopacity="0"
     inkscape:pageshadow="2"
     inkscape:window-width="1920"
     inkscape:window-height="1031"
     id="namedview6554"
     showgrid="false"
     inkscape:zoom="0.6913767"
     inkscape:cx="35.436543"
     inkscape:cy="163"
     inkscape:window-x="0"
     inkscape:window-y="24"
     inkscape:window-maximized="0"
     inkscape:current-layer="g6560" /><g
     id="g6560"
     inkscape:groupmode="layer"
     inkscape:label="rb_example4"
     transform="matrix(1.3333333,0,0,-1.3333333,0,326)"><path
       d="m 27.812,105.33 c 0,11.74 9.519,21.26 21.26,21.26 11.742,0 21.26,-9.52 21.26,-21.26 0,0 0,0 0,0 0,-11.742 -9.518,-21.26 -21.26,-21.26 -11.741,0 -21.26,9.518 -21.26,21.26 z"
       style="fill:#cdcdcd;fill-opacity:0.49803999;fill-rule:evenodd;stroke:none"
       id="path6562"
       inkscape:connector-curvature="0" /><g
       id="g6564"><g
         id="g6566"
         clip-path="url(#clipPath6570)"><path
           d="m 27.812,105.33 c 0,11.74 9.519,21.26 21.26,21.26 11.742,0 21.26,-9.52 21.26,-21.26 0,0 0,0 0,0 0,-11.742 -9.518,-21.26 -21.26,-21.26 -11.741,0 -21.26,9.518 -21.26,21.26"
           style="fill:none;stroke:#cdcdcd;stroke-width:2.25;stroke-linecap:round;stroke-linejoin:round;stroke-miterlimit:10;stroke-dasharray:none;stroke-opacity:0.49803999"
           id="path6572"
           inkscape:connector-curvature="0" /></g></g><g
       id="g6574"><g
         id="g6576"
         clip-path="url(#clipPath6580)"><path
           d="m 25.622,84.76 h 44.02 v 44.02 h -44.02 z"
           style="fill:url(#linearGradient6586);fill-opacity:1;fill-rule:evenodd;stroke:none"
           id="path6588"
           inkscape:connector-curvature="0" /></g></g><path
       d="m 26.372,106.77 c 0,11.74 9.519,21.26 21.26,21.26 11.742,0 21.26,-9.52 21.26,-21.26 0,0 0,0 0,0 0,-11.742 -9.518,-21.26 -21.26,-21.26 -11.741,0 -21.26,9.518 -21.26,21.26 z"
       style="fill:none;stroke:#000000;stroke-width:2.25;stroke-linecap:round;stroke-linejoin:round;stroke-miterlimit:10;stroke-dasharray:none;stroke-opacity:1"
       id="path6590"
       inkscape:connector-curvature="0" /><text
       transform="matrix(1,0,0,-1,41.55,99.57)"
       style="font-variant:normal;font-weight:normal;font-size:23.99975967px;font-family:CALIBRI;-inkscape-font-specification:CALIBRI;writing-mode:lr-tb;fill:#ffffff;fill-opacity:1;fill-rule:nonzero;stroke:none"
       id="text6594"><tspan
         x="0"
         y="0"
         id="tspan6592">1</tspan></text>
<path
       d="m 93.009,154.94 c 0,11.74 9.521,21.26 21.261,21.26 11.74,0 21.26,-9.52 21.26,-21.26 0,0 0,0 0,0 0,-11.75 -9.52,-21.26 -21.26,-21.26 -11.74,0 -21.261,9.51 -21.261,21.26 z"
       style="fill:#cdcdcd;fill-opacity:0.49803999;fill-rule:evenodd;stroke:none"
       id="path6596"
       inkscape:connector-curvature="0" /><g
       id="g6598"><g
         id="g6600"
         clip-path="url(#clipPath6604)"><path
           d="m 93.009,154.94 c 0,11.74 9.521,21.26 21.261,21.26 11.74,0 21.26,-9.52 21.26,-21.26 0,0 0,0 0,0 0,-11.75 -9.52,-21.26 -21.26,-21.26 -11.74,0 -21.261,9.51 -21.261,21.26"
           style="fill:none;stroke:#cdcdcd;stroke-width:2.25;stroke-linecap:round;stroke-linejoin:round;stroke-miterlimit:10;stroke-dasharray:none;stroke-opacity:0.49803999"
           id="path6606"
           inkscape:connector-curvature="0" /></g></g><g
       id="g6608"><g
         id="g6610"
         clip-path="url(#clipPath6614)"><path
           d="m 90.819,134.37 h 44.02 v 44.02 h -44.02 z"
           style="fill:url(#linearGradient6620);fill-opacity:1;fill-rule:evenodd;stroke:none"
           id="path6622"
           inkscape:connector-curvature="0" /></g></g><path
       d="m 91.569,156.38 c 0,11.74 9.521,21.26 21.261,21.26 11.74,0 21.26,-9.52 21.26,-21.26 0,0 0,0 0,0 0,-11.75 -9.52,-21.26 -21.26,-21.26 -11.74,0 -21.261,9.51 -21.261,21.26 z"
       style="fill:none;stroke:#000000;stroke-width:2.25;stroke-linecap:round;stroke-linejoin:round;stroke-miterlimit:10;stroke-dasharray:none;stroke-opacity:1"
       id="path6624"
       inkscape:connector-curvature="0" /><text
       transform="matrix(1,0,0,-1,106.75,149.18)"
       style="font-variant:normal;font-weight:normal;font-size:23.99975967px;font-family:CALIBRI;-inkscape-font-specification:CALIBRI;writing-mode:lr-tb;fill:#ffffff;fill-opacity:1;fill-rule:nonzero;stroke:none"
       id="text6628"><tspan
         x="0"
         y="0"
         id="tspan6626">2</tspan></text>
<path
       d="M 95.91,143.5 64.551,119.64"
       style="fill:none;stroke:#000000;stroke-width:2.25;stroke-linecap:round;stroke-linejoin:round;stroke-miterlimit:10;stroke-dasharray:none;stroke-opacity:1"
       id="path6630"
       inkscape:connector-curvature="0" /><path
       d="M 32.053,92.303 7.947,69.919"
       style="fill:none;stroke:#000000;stroke-width:2.25;stroke-linecap:round;stroke-linejoin:round;stroke-miterlimit:10;stroke-dasharray:none;stroke-opacity:1"
       id="path6632"
       inkscape:connector-curvature="0" /><path
       d="M 10.569,72.354 C 9.2242,73.801 6.9606,73.885 5.5127,72.541 4.0649,71.196 3.981,68.933 5.3254,67.485 c 0,0 0,0 0,0 1.3445,-1.448 3.6081,-1.532 5.0556,-0.187 1.448,1.344 1.532,3.608 0.188,5.056 z"
       style="fill:#000000;fill-opacity:1;fill-rule:evenodd;stroke:none"
       id="path6634"
       inkscape:connector-curvature="0" /><path
       d="m 199.87,216.4 c 0,11.74 9.51,21.26 21.25,21.26 11.75,0 21.26,-9.52 21.26,-21.26 0,0 0,0 0,0 0,-11.74 -9.51,-21.26 -21.25,-21.26 -11.75,0 -21.26,9.52 -21.26,21.26 z"
       style="fill:#cdcdcd;fill-opacity:0.49803999;fill-rule:evenodd;stroke:none"
       id="path6636"
       inkscape:connector-curvature="0" /><g
       id="g6638"><g
         id="g6640"
         clip-path="url(#clipPath6644)"><path
           d="m 199.87,216.4 c 0,11.74 9.51,21.26 21.25,21.26 11.75,0 21.26,-9.52 21.26,-21.26 0,0 0,0 0,0 0,-11.74 -9.51,-21.26 -21.25,-21.26 -11.75,0 -21.26,9.52 -21.26,21.26"
           style="fill:none;stroke:#cdcdcd;stroke-width:2.25;stroke-linecap:round;stroke-linejoin:round;stroke-miterlimit:10;stroke-dasharray:none;stroke-opacity:0.49803999"
           id="path6646"
           inkscape:connector-curvature="0" /></g></g><g
       id="g6648"><g
         id="g6650"
         clip-path="url(#clipPath6654)"><path
           d="m 197.68,195.83 h 44.02 v 44.02 h -44.02 z"
           style="fill:url(#linearGradient6660);fill-opacity:1;fill-rule:evenodd;stroke:none"
           id="path6662"
           inkscape:connector-curvature="0" /></g></g><path
       d="m 198.43,217.84 c 0,11.74 9.51,21.26 21.26,21.26 11.74,0 21.25,-9.52 21.25,-21.26 0,0 0,0 0,0 0,-11.74 -9.51,-21.26 -21.25,-21.26 -11.75,0 -21.26,9.52 -21.26,21.26 z"
       style="fill:none;stroke:#000000;stroke-width:2.25;stroke-linecap:round;stroke-linejoin:round;stroke-miterlimit:10;stroke-dasharray:none;stroke-opacity:1"
       id="path6664"
       inkscape:connector-curvature="0" /><text
       transform="matrix(1,0,0,-1,213.6,210.64)"
       style="font-variant:normal;font-weight:normal;font-size:23.99975967px;font-family:CALIBRI;-inkscape-font-specification:CALIBRI;writing-mode:lr-tb;fill:#ffffff;fill-opacity:1;fill-rule:nonzero;stroke:none"
       id="text6668"><tspan
         x="0"
         y="0"
         id="tspan6666">4</tspan></text>
<path
       d="m 201.26,207.24 -70,-40.26"
       style="fill:none;stroke:#000000;stroke-width:2.25;stroke-linecap:round;stroke-linejoin:round;stroke-miterlimit:10;stroke-dasharray:none;stroke-opacity:1"
       id="path6670"
       inkscape:connector-curvature="0" /><path
       d="m 148.28,106.04 c 0,11.74 9.52,21.26 21.26,21.26 11.75,0 21.26,-9.52 21.26,-21.26 0,0 0,0 0,0 0,-11.743 -9.51,-21.261 -21.26,-21.261 -11.74,0 -21.26,9.518 -21.26,21.261 z"
       style="fill:#cdcdcd;fill-opacity:0.49803999;fill-rule:evenodd;stroke:none"
       id="path6672"
       inkscape:connector-curvature="0" /><g
       id="g6674"><g
         id="g6676"
         clip-path="url(#clipPath6680)"><path
           d="m 148.28,106.04 c 0,11.74 9.52,21.26 21.26,21.26 11.75,0 21.26,-9.52 21.26,-21.26 0,0 0,0 0,0 0,-11.743 -9.51,-21.261 -21.26,-21.261 -11.74,0 -21.26,9.518 -21.26,21.261"
           style="fill:none;stroke:#cdcdcd;stroke-width:2.25;stroke-linecap:round;stroke-linejoin:round;stroke-miterlimit:10;stroke-dasharray:none;stroke-opacity:0.49803999"
           id="path6682"
           inkscape:connector-curvature="0" /></g></g><g
       id="g6684"><g
         id="g6686"
         clip-path="url(#clipPath6690)"><path
           d="m 146.09,85.469 h 44.02 v 44.02 h -44.02 z"
           style="fill:url(#linearGradient6696);fill-opacity:1;fill-rule:evenodd;stroke:none"
           id="path6698"
           inkscape:connector-curvature="0" /></g></g><path
       d="m 146.84,107.48 c 0,11.74 9.52,21.26 21.26,21.26 11.75,0 21.26,-9.52 21.26,-21.26 0,0 0,0 0,0 0,-11.743 -9.51,-21.261 -21.26,-21.261 -11.74,-10e-4 -21.26,9.518 -21.26,21.261 z"
       style="fill:none;stroke:#000000;stroke-width:2.25;stroke-linecap:round;stroke-linejoin:round;stroke-miterlimit:10;stroke-dasharray:none;stroke-opacity:1"
       id="path6700"
       inkscape:connector-curvature="0" /><text
       transform="matrix(1,0,0,-1,162.02,100.28)"
       style="font-variant:normal;font-weight:normal;font-size:23.99975967px;font-family:CALIBRI;-inkscape-font-specification:CALIBRI;writing-mode:lr-tb;fill:#ffffff;fill-opacity:1;fill-rule:nonzero;stroke:none"
       id="text6704"><tspan
         x="0"
         y="0"
         id="tspan6702">3</tspan></text>
<path
       d="m 234.74,101.08 c 0,11.74 9.52,21.26 21.26,21.26 11.74,0 21.26,-9.52 21.26,-21.26 0,0 0,0 0,0 0,-11.744 -9.52,-21.262 -21.26,-21.262 -11.74,0 -21.26,9.518 -21.26,21.262 z"
       style="fill:#cdcdcd;fill-opacity:0.49803999;fill-rule:evenodd;stroke:none"
       id="path6706"
       inkscape:connector-curvature="0" /><g
       id="g6708"><g
         id="g6710"
         clip-path="url(#clipPath6714)"><path
           d="m 234.74,101.08 c 0,11.74 9.52,21.26 21.26,21.26 11.74,0 21.26,-9.52 21.26,-21.26 0,0 0,0 0,0 0,-11.744 -9.52,-21.262 -21.26,-21.262 -11.74,0 -21.26,9.518 -21.26,21.262"
           style="fill:none;stroke:#cdcdcd;stroke-width:2.25;stroke-linecap:round;stroke-linejoin:round;stroke-miterlimit:10;stroke-dasharray:none;stroke-opacity:0.49803999"
           id="path6716"
           inkscape:connector-curvature="0" /></g></g><g
       id="g6718"><g
         id="g6720"
         clip-path="url(#clipPath6724)"><path
           d="m 232.55,80.508 h 44.02 v 44.02 h -44.02 z"
           style="fill:url(#linearGradient6730);fill-opacity:1;fill-rule:evenodd;stroke:none"
           id="path6732"
           inkscape:connector-curvature="0" /></g></g><path
       d="m 233.3,102.52 c 0,11.74 9.52,21.26 21.26,21.26 11.74,0 21.26,-9.52 21.26,-21.26 0,0 0,0 0,0 0,-11.744 -9.52,-21.262 -21.26,-21.262 -11.74,0 -21.26,9.518 -21.26,21.262 z"
       style="fill:none;stroke:#000000;stroke-width:2.25;stroke-linecap:round;stroke-linejoin:round;stroke-miterlimit:10;stroke-dasharray:none;stroke-opacity:1"
       id="path6734"
       inkscape:connector-curvature="0" /><text
       transform="matrix(1,0,0,-1,248.48,95.318)"
       style="font-variant:normal;font-weight:normal;font-size:23.99975967px;font-family:CALIBRI;-inkscape-font-specification:CALIBRI;writing-mode:lr-tb;fill:#ffffff;fill-opacity:1;fill-rule:nonzero;stroke:none"
       id="text6738"><tspan
         x="0"
         y="0"
         id="tspan6736">5</tspan></text>
<path
       d="m 299.94,150.68 c 0,11.75 9.52,21.26 21.26,21.26 11.74,0 21.26,-9.51 21.26,-21.26 0,0 0,0 0,0 0,-11.74 -9.52,-21.26 -21.26,-21.26 -11.74,0 -21.26,9.52 -21.26,21.26 z"
       style="fill:#cdcdcd;fill-opacity:0.49803999;fill-rule:evenodd;stroke:none"
       id="path6740"
       inkscape:connector-curvature="0" /><g
       id="g6742"><g
         id="g6744"
         clip-path="url(#clipPath6748)"><path
           d="m 299.94,150.68 c 0,11.75 9.52,21.26 21.26,21.26 11.74,0 21.26,-9.51 21.26,-21.26 0,0 0,0 0,0 0,-11.74 -9.52,-21.26 -21.26,-21.26 -11.74,0 -21.26,9.52 -21.26,21.26"
           style="fill:none;stroke:#cdcdcd;stroke-width:2.25;stroke-linecap:round;stroke-linejoin:round;stroke-miterlimit:10;stroke-dasharray:none;stroke-opacity:0.49803999"
           id="path6750"
           inkscape:connector-curvature="0" /></g></g><g
       id="g6752"><g
         id="g6754"
         clip-path="url(#clipPath6758)"><path
           d="m 297.75,130.11 h 44.02 v 44.02 h -44.02 z"
           style="fill:url(#linearGradient6764);fill-opacity:1;fill-rule:evenodd;stroke:none"
           id="path6766"
           inkscape:connector-curvature="0" /></g></g><path
       d="m 298.5,152.12 c 0,11.75 9.52,21.26 21.26,21.26 11.74,0 21.26,-9.51 21.26,-21.26 0,0 0,0 0,0 0,-11.74 -9.52,-21.26 -21.26,-21.26 -11.74,0 -21.26,9.52 -21.26,21.26 z"
       style="fill:none;stroke:#000000;stroke-width:2.25;stroke-linecap:round;stroke-linejoin:round;stroke-miterlimit:10;stroke-dasharray:none;stroke-opacity:1"
       id="path6768"
       inkscape:connector-curvature="0" /><text
       transform="matrix(1,0,0,-1,313.68,144.92)"
       style="font-variant:normal;font-weight:normal;font-size:23.99975967px;font-family:CALIBRI;-inkscape-font-specification:CALIBRI;writing-mode:lr-tb;fill:#ffffff;fill-opacity:1;fill-rule:nonzero;stroke:none"
       id="text6772"><tspan
         x="0"
         y="0"
         id="tspan6770">6</tspan></text>
<path
       d="m 363.72,101.08 c 0,11.74 9.52,21.26 21.26,21.26 11.74,0 21.26,-9.52 21.26,-21.26 0,0 0,0 0,0 0,-11.744 -9.52,-21.262 -21.26,-21.262 -11.74,0 -21.26,9.518 -21.26,21.262 z"
       style="fill:#cdcdcd;fill-opacity:0.49803999;fill-rule:evenodd;stroke:none"
       id="path6774"
       inkscape:connector-curvature="0" /><g
       id="g6776"><g
         id="g6778"
         clip-path="url(#clipPath6782)"><path
           d="m 363.72,101.08 c 0,11.74 9.52,21.26 21.26,21.26 11.74,0 21.26,-9.52 21.26,-21.26 0,0 0,0 0,0 0,-11.744 -9.52,-21.262 -21.26,-21.262 -11.74,0 -21.26,9.518 -21.26,21.262"
           style="fill:none;stroke:#cdcdcd;stroke-width:2.25;stroke-linecap:round;stroke-linejoin:round;stroke-miterlimit:10;stroke-dasharray:none;stroke-opacity:0.49803999"
           id="path6784"
           inkscape:connector-curvature="0" /></g></g><g
       id="g6786"><g
         id="g6788"
         clip-path="url(#clipPath6792)"><path
           d="m 361.53,80.508 h 44.02 v 44.02 h -44.02 z"
           style="fill:url(#linearGradient6798);fill-opacity:1;fill-rule:evenodd;stroke:none"
           id="path6800"
           inkscape:connector-curvature="0" /></g></g><path
       d="m 362.28,102.52 c 0,11.74 9.52,21.26 21.26,21.26 11.74,0 21.26,-9.52 21.26,-21.26 0,0 0,0 0,0 0,-11.744 -9.52,-21.262 -21.26,-21.262 -11.74,0 -21.26,9.518 -21.26,21.262 z"
       style="fill:none;stroke:#000000;stroke-width:2.25;stroke-linecap:round;stroke-linejoin:round;stroke-miterlimit:10;stroke-dasharray:none;stroke-opacity:1"
       id="path6802"
       inkscape:connector-curvature="0" /><text
       transform="matrix(1,0,0,-1,377.46,95.318)"
       style="font-variant:normal;font-weight:normal;font-size:23.99975967px;font-family:CALIBRI;-inkscape-font-specification:CALIBRI;writing-mode:lr-tb;fill:#ffffff;fill-opacity:1;fill-rule:nonzero;stroke:none"
       id="text6806"><tspan
         x="0"
         y="0"
         id="tspan6804">7</tspan></text>
<path
       d="m 301.99,163.79 -64.53,42.38"
       style="fill:none;stroke:#000000;stroke-width:2.25;stroke-linecap:round;stroke-linejoin:round;stroke-miterlimit:10;stroke-dasharray:none;stroke-opacity:1"
       id="path6808"
       inkscape:connector-curvature="0" /><path
       d="m 366.76,115.57 -30.22,23.5"
       style="fill:none;stroke:#000000;stroke-width:2.25;stroke-linecap:round;stroke-linejoin:round;stroke-miterlimit:10;stroke-dasharray:none;stroke-opacity:1"
       id="path6810"
       inkscape:connector-curvature="0" /><path
       d="M 302.84,139.25 271.48,115.39"
       style="fill:none;stroke:#000000;stroke-width:2.25;stroke-linecap:round;stroke-linejoin:round;stroke-miterlimit:10;stroke-dasharray:none;stroke-opacity:1"
       id="path6812"
       inkscape:connector-curvature="0" /><path
       d="M 153.07,92.445 134.09,73.463"
       style="fill:none;stroke:#000000;stroke-width:2.25;stroke-linecap:round;stroke-linejoin:round;stroke-miterlimit:10;stroke-dasharray:none;stroke-opacity:1"
       id="path6814"
       inkscape:connector-curvature="0" /><path
       d="m 136.62,75.992 c -1.4,1.397 -3.66,1.397 -5.06,0 -1.4,-1.397 -1.4,-3.662 0,-5.059 0,0 0,0 0,0 1.4,-1.397 3.66,-1.397 5.06,0 1.4,1.397 1.4,3.662 0,5.059 z"
       style="fill:#000000;fill-opacity:1;fill-rule:evenodd;stroke:none"
       id="path6816"
       inkscape:connector-curvature="0" /><path
       d="M 63.254,92.35 84.482,72.754"
       style="fill:none;stroke:#000000;stroke-width:2.25;stroke-linecap:round;stroke-linejoin:round;stroke-miterlimit:10;stroke-dasharray:none;stroke-opacity:1"
       id="path6818"
       inkscape:connector-curvature="0" /><path
       d="m 81.854,75.18 c -1.34,-1.451 -1.25,-3.715 0.202,-5.055 1.452,-1.34 3.715,-1.249 5.055,0.202 0,0 0,0 0,0 1.34,1.452 1.25,3.716 -0.202,5.056 -1.452,1.34 -3.715,1.249 -5.055,-0.203 z"
       style="fill:#000000;fill-opacity:1;fill-rule:evenodd;stroke:none"
       id="path6820"
       inkscape:connector-curvature="0" /><path
       d="m 239.53,87.485 -20.4,-20.4"
       style="fill:none;stroke:#000000;stroke-width:2.25;stroke-linecap:round;stroke-linejoin:round;stroke-miterlimit:10;stroke-dasharray:none;stroke-opacity:1"
       id="path6822"
       inkscape:connector-curvature="0" /><path
       d="m 221.66,69.614 c -1.4,1.397 -3.66,1.397 -5.06,0 -1.4,-1.397 -1.4,-3.662 0,-5.059 0,0 0,0 0,0 1.4,-1.397 3.66,-1.397 5.06,0 1.39,1.397 1.39,3.662 0,5.059 z"
       style="fill:#000000;fill-opacity:1;fill-rule:evenodd;stroke:none"
       id="path6824"
       inkscape:connector-curvature="0" /><path
       d="M 371.47,85.016 355.19,61.415"
       style="fill:none;stroke:#000000;stroke-width:2.25;stroke-linecap:round;stroke-linejoin:round;stroke-miterlimit:10;stroke-dasharray:none;stroke-opacity:1"
       id="path6826"
       inkscape:connector-curvature="0" /><path
       d="m 357.22,64.36 c -1.62,1.122 -3.85,0.713 -4.97,-0.914 -1.13,-1.626 -0.72,-3.854 0.91,-4.976 0,0 0,0 0,0 1.63,-1.121 3.85,-0.712 4.98,0.914 1.12,1.627 0.71,3.855 -0.92,4.976 z"
       style="fill:#000000;fill-opacity:1;fill-rule:evenodd;stroke:none"
       id="path6828"
       inkscape:connector-curvature="0" /><path
       d="m 269.59,87.485 20.4,-20.4"
       style="fill:none;stroke:#000000;stroke-width:2.25;stroke-linecap:round;stroke-linejoin:round;stroke-miterlimit:10;stroke-dasharray:none;stroke-opacity:1"
       id="path6830"
       inkscape:connector-curvature="0" /><path
       d="m 287.46,69.614 c -1.39,-1.397 -1.39,-3.662 0,-5.059 1.4,-1.397 3.67,-1.397 5.06,0 0,0 0,0 0,0 1.4,1.397 1.4,3.662 0,5.059 -1.39,1.397 -3.66,1.397 -5.06,0 z"
       style="fill:#000000;fill-opacity:1;fill-rule:evenodd;stroke:none"
       id="path6832"
       inkscape:connector-curvature="0" /><path
       d="M 184.44,93.868 202.12,79.132"
       style="fill:none;stroke:#000000;stroke-width:2.25;stroke-linecap:round;stroke-linejoin:round;stroke-miterlimit:10;stroke-dasharray:none;stroke-opacity:1"
       id="path6834"
       inkscape:connector-curvature="0" /><path
       d="m 199.37,81.422 c -1.26,-1.518 -1.06,-3.774 0.46,-5.038 1.52,-1.265 3.77,-1.06 5.04,0.458 0,0 0,0 0,0 1.26,1.517 1.06,3.773 -0.46,5.038 -1.52,1.265 -3.77,1.06 -5.04,-0.458 z"
       style="fill:#000000;fill-opacity:1;fill-rule:evenodd;stroke:none"
       id="path6836"
       inkscape:connector-curvature="0" /><path
       d="m 426.08,44.385 c 0,11.741 9.52,21.26 21.26,21.26 11.74,0 21.26,-9.519 21.26,-21.26 0,0 0,0 0,0 0,-11.742 -9.52,-21.26 -21.26,-21.26 -11.74,0 -21.26,9.518 -21.26,21.26 z"
       style="fill:#cdcdcd;fill-opacity:0.49803999;fill-rule:evenodd;stroke:none"
       id="path6838"
       inkscape:connector-curvature="0" /><g
       id="g6840"><g
         id="g6842"
         clip-path="url(#clipPath6846)"><path
           d="m 426.08,44.385 c 0,11.741 9.52,21.26 21.26,21.26 11.74,0 21.26,-9.519 21.26,-21.26 0,0 0,0 0,0 0,-11.742 -9.52,-21.26 -21.26,-21.26 -11.74,0 -21.26,9.518 -21.26,21.26"
           style="fill:none;stroke:#cdcdcd;stroke-width:2.25;stroke-linecap:round;stroke-linejoin:round;stroke-miterlimit:10;stroke-dasharray:none;stroke-opacity:0.49803999"
           id="path6848"
           inkscape:connector-curvature="0" /></g></g><g
       id="g6850"><g
         id="g6852"
         clip-path="url(#clipPath6856)"><path
           d="m 423.89,23.815 h 44.02 v 44.02 h -44.02 z"
           style="fill:url(#linearGradient6862);fill-opacity:1;fill-rule:evenodd;stroke:none"
           id="path6864"
           inkscape:connector-curvature="0" /></g></g><path
       d="m 424.64,45.825 c 0,11.741 9.52,21.26 21.26,21.26 11.74,0 21.26,-9.519 21.26,-21.26 0,0 0,0 0,0 0,-11.742 -9.52,-21.26 -21.26,-21.26 -11.74,0 -21.26,9.518 -21.26,21.26 z"
       style="fill:none;stroke:#000000;stroke-width:2.25;stroke-linecap:round;stroke-linejoin:round;stroke-miterlimit:10;stroke-dasharray:none;stroke-opacity:1"
       id="path6866"
       inkscape:connector-curvature="0" /><text
       transform="matrix(1,0,0,-1,439.82,38.625)"
       style="font-variant:normal;font-weight:normal;font-size:23.99975967px;font-family:CALIBRI;-inkscape-font-specification:CALIBRI;writing-mode:lr-tb;fill:#ffffff;fill-opacity:1;fill-rule:nonzero;stroke:none"
       id="text6870"><tspan
         x="0"
         y="0"
         id="tspan6868">8</tspan></text>
<path
       d="M 433.25,28.741 417.55,7.5571"
       style="fill:none;stroke:#000000;stroke-width:2.25;stroke-linecap:round;stroke-linejoin:round;stroke-miterlimit:10;stroke-dasharray:none;stroke-opacity:1"
       id="path6872"
       inkscape:connector-curvature="0" /><path
       d="m 419.68,10.432 c -1.58,1.176 -3.83,0.842 -5,-0.7455 -1.18,-1.5877 -0.84,-3.8281 0.74,-5.0042 0,0 0,0 0,0 1.59,-1.176 3.83,-0.8423 5.01,0.7454 1.17,1.5876 0.84,3.8281 -0.75,5.0043 z"
       style="fill:#000000;fill-opacity:1;fill-rule:evenodd;stroke:none"
       id="path6874"
       inkscape:connector-curvature="0" /><path
       d="M 461.38,31.254 488.42,4.7224"
       style="fill:none;stroke:#000000;stroke-width:2.25;stroke-linecap:round;stroke-linejoin:round;stroke-miterlimit:10;stroke-dasharray:none;stroke-opacity:1"
       id="path6876"
       inkscape:connector-curvature="0" /><path
       d="m 485.87,7.2281 c -1.39,-1.4103 -1.37,-3.6753 0.04,-5.0591 1.41,-1.38387 3.68,-1.36245 5.06,0.0478 0,0 0,0 0,0 1.39,1.4103 1.37,3.6753 -0.04,5.0591 -1.42,1.3839 -3.68,1.3624 -5.06,-0.0478 z"
       style="fill:#000000;fill-opacity:1;fill-rule:evenodd;stroke:none"
       id="path6878"
       inkscape:connector-curvature="0" /><path
       d="m 430.17,60.126 -30.9,28.091"
       style="fill:none;stroke:#000000;stroke-width:2.25;stroke-linecap:round;stroke-linejoin:round;stroke-miterlimit:10;stroke-dasharray:none;stroke-opacity:1"
       id="path6880"
       inkscape:connector-curvature="0" /><path
       d="m 152.18,121.56 -23.43,20.73"
       style="fill:none;stroke:#000000;stroke-width:2.25;stroke-linecap:round;stroke-linejoin:round;stroke-miterlimit:10;stroke-dasharray:none;stroke-opacity:1"
       id="path6882"
       inkscape:connector-curvature="0" /></g></svg>