<?xml version="1.0" encoding="UTF-8" standalone="no"?>
<!-- Created with Inkscape (http://www.inkscape.org/) -->

<svg
   xmlns:dc="http://purl.org/dc/elements/1.1/"
   xmlns:cc="http://creativecommons.org/ns#"
   xmlns:rdf="http://www.w3.org/1999/02/22-rdf-syntax-ns#"
   xmlns:svg="http://www.w3.org/2000/svg"
   xmlns="http://www.w3.org/2000/svg"
   xmlns:sodipodi="http://sodipodi.sourceforge.net/DTD/sodipodi-0.dtd"
   xmlns:inkscape="http://www.inkscape.org/namespaces/inkscape"
   width="175.34889mm"
   height="128.33173mm"
   viewBox="0 0 175.34889 128.33173"
   version="1.1"
   id="svg8"
   inkscape:version="0.92.1 r15371"
   sodipodi:docname="fp-deltas.svg">
  <defs
     id="defs2" />
  <sodipodi:namedview
     id="base"
     pagecolor="#ffffff"
     bordercolor="#666666"
     borderopacity="1.0"
     inkscape:pageopacity="0.0"
     inkscape:pageshadow="2"
     inkscape:zoom="5.6"
     inkscape:cx="524.11543"
     inkscape:cy="416.34385"
     inkscape:document-units="mm"
     inkscape:current-layer="g3972"
     showgrid="false"
     fit-margin-top="0"
     fit-margin-left="0"
     fit-margin-right="0"
     fit-margin-bottom="0"
     inkscape:window-width="1920"
     inkscape:window-height="1033"
     inkscape:window-x="-4"
     inkscape:window-y="-4"
     inkscape:window-maximized="1" />
  <metadata
     id="metadata5">
    <rdf:RDF>
      <cc:Work
         rdf:about="">
        <dc:format>image/svg+xml</dc:format>
        <dc:type
           rdf:resource="http://purl.org/dc/dcmitype/StillImage" />
        <dc:title></dc:title>
      </cc:Work>
    </rdf:RDF>
  </metadata>
  <g
     inkscape:label="Layer 1"
     inkscape:groupmode="layer"
     id="layer1"
     transform="translate(-258.48757,-27.122295)">
    <g
       transform="matrix(0.35277777,0,0,-0.35277777,248.2515,157.00625)"
       inkscape:label="deltas"
       id="g3972">
      <path
         d="m 75.6,38.4 h 3.15 m 439.55,0 h -3.15"
         style="fill:none;stroke:#000000;stroke-width:0.5;stroke-linecap:butt;stroke-linejoin:miter;stroke-miterlimit:3.79999995;stroke-dasharray:none;stroke-opacity:1"
         id="path3976"
         inkscape:connector-curvature="0" />
      <g
         id="g3978">
        <text
           transform="matrix(1,0,0,-1,61.7282,34.4)"
           style="font-variant:normal;font-weight:normal;font-size:12px;font-family:Helvetica;-inkscape-font-specification:Helvetica;writing-mode:lr-tb;fill:#000000;fill-opacity:1;fill-rule:nonzero;stroke:none"
           id="text3982">
          <tspan
             x="0"
             y="0"
             id="tspan3980">0</tspan>
        </text>
      </g>
      <path
         d="m 75.6,70.9 h 3.15 m 439.55,0 h -3.15"
         style="fill:none;stroke:#000000;stroke-width:0.5;stroke-linecap:butt;stroke-linejoin:miter;stroke-miterlimit:3.79999995;stroke-dasharray:none;stroke-opacity:1"
         id="path3984"
         inkscape:connector-curvature="0" />
      <g
         id="g3986">
        <text
           transform="matrix(1,0,0,-1,37.7169,66.9)"
           style="font-variant:normal;font-weight:normal;font-size:12px;font-family:Helvetica;-inkscape-font-specification:Helvetica;writing-mode:lr-tb;fill:#000000;fill-opacity:1;fill-rule:nonzero;stroke:none"
           id="text3990">
          <tspan
             x="0 6.6719999 13.344 17.34 24.011999"
             y="0"
             sodipodi:role="line"
             id="tspan3988">2e-07</tspan>
        </text>
      </g>
      <path
         d="m 75.6,103.45 h 3.15 m 439.55,0 h -3.15"
         style="fill:none;stroke:#000000;stroke-width:0.5;stroke-linecap:butt;stroke-linejoin:miter;stroke-miterlimit:3.79999995;stroke-dasharray:none;stroke-opacity:1"
         id="path3992"
         inkscape:connector-curvature="0" />
      <g
         id="g3994">
        <text
           transform="matrix(1,0,0,-1,37.7169,99.45)"
           style="font-variant:normal;font-weight:normal;font-size:12px;font-family:Helvetica;-inkscape-font-specification:Helvetica;writing-mode:lr-tb;fill:#000000;fill-opacity:1;fill-rule:nonzero;stroke:none"
           id="text3998">
          <tspan
             x="0 6.6719999 13.344 17.34 24.011999"
             y="0"
             sodipodi:role="line"
             id="tspan3996">4e-07</tspan>
        </text>
      </g>
      <path
         d="m 75.6,135.95 h 3.15 m 439.55,0 h -3.15"
         style="fill:none;stroke:#000000;stroke-width:0.5;stroke-linecap:butt;stroke-linejoin:miter;stroke-miterlimit:3.79999995;stroke-dasharray:none;stroke-opacity:1"
         id="path4000"
         inkscape:connector-curvature="0" />
      <g
         id="g4002">
        <text
           transform="matrix(1,0,0,-1,37.7169,131.95)"
           style="font-variant:normal;font-weight:normal;font-size:12px;font-family:Helvetica;-inkscape-font-specification:Helvetica;writing-mode:lr-tb;fill:#000000;fill-opacity:1;fill-rule:nonzero;stroke:none"
           id="text4006">
          <tspan
             x="0 6.6719999 13.344 17.34 24.011999"
             y="0"
             sodipodi:role="line"
             id="tspan4004">6e-07</tspan>
        </text>
      </g>
      <path
         d="m 75.6,168.45 h 3.15 m 439.55,0 h -3.15"
         style="fill:none;stroke:#000000;stroke-width:0.5;stroke-linecap:butt;stroke-linejoin:miter;stroke-miterlimit:3.79999995;stroke-dasharray:none;stroke-opacity:1"
         id="path4008"
         inkscape:connector-curvature="0" />
      <g
         id="g4010">
        <text
           transform="matrix(1,0,0,-1,37.7169,164.45)"
           style="font-variant:normal;font-weight:normal;font-size:12px;font-family:Helvetica;-inkscape-font-specification:Helvetica;writing-mode:lr-tb;fill:#000000;fill-opacity:1;fill-rule:nonzero;stroke:none"
           id="text4014">
          <tspan
             x="0 6.6719999 13.344 17.34 24.011999"
             y="0"
             sodipodi:role="line"
             id="tspan4012">8e-07</tspan>
        </text>
      </g>
      <path
         d="m 75.6,201 h 3.15 m 439.55,0 h -3.15"
         style="fill:none;stroke:#000000;stroke-width:0.5;stroke-linecap:butt;stroke-linejoin:miter;stroke-miterlimit:3.79999995;stroke-dasharray:none;stroke-opacity:1"
         id="path4016"
         inkscape:connector-curvature="0" />
      <g
         id="g4018">
        <text
           transform="matrix(1,0,0,-1,37.7169,197)"
           style="font-variant:normal;font-weight:normal;font-size:12px;font-family:Helvetica;-inkscape-font-specification:Helvetica;writing-mode:lr-tb;fill:#000000;fill-opacity:1;fill-rule:nonzero;stroke:none"
           id="text4022">
          <tspan
             x="0 6.6719999 13.344 17.34 24.011999"
             y="0"
             sodipodi:role="line"
             id="tspan4020">1e-06</tspan>
        </text>
      </g>
      <path
         d="m 75.6,233.5 h 3.15 m 439.55,0 h -3.15"
         style="fill:none;stroke:#000000;stroke-width:0.5;stroke-linecap:butt;stroke-linejoin:miter;stroke-miterlimit:3.79999995;stroke-dasharray:none;stroke-opacity:1"
         id="path4024"
         inkscape:connector-curvature="0" />
      <g
         id="g4026">
        <text
           transform="matrix(1,0,0,-1,27.709,229.5)"
           style="font-variant:normal;font-weight:normal;font-size:12px;font-family:Helvetica;-inkscape-font-specification:Helvetica;writing-mode:lr-tb;fill:#000000;fill-opacity:1;fill-rule:nonzero;stroke:none"
           id="text4030">
          <tspan
             x="0 6.6719999 10.008 16.68 23.351999 27.348 34.02"
             y="0"
             sodipodi:role="line"
             id="tspan4028">1.2e-06</tspan>
        </text>
      </g>
      <path
         d="m 75.6,266 h 3.15 m 439.55,0 h -3.15"
         style="fill:none;stroke:#000000;stroke-width:0.5;stroke-linecap:butt;stroke-linejoin:miter;stroke-miterlimit:3.79999995;stroke-dasharray:none;stroke-opacity:1"
         id="path4032"
         inkscape:connector-curvature="0" />
      <g
         id="g4034">
        <text
           transform="matrix(1,0,0,-1,27.709,262)"
           style="font-variant:normal;font-weight:normal;font-size:12px;font-family:Helvetica;-inkscape-font-specification:Helvetica;writing-mode:lr-tb;fill:#000000;fill-opacity:1;fill-rule:nonzero;stroke:none"
           id="text4038">
          <tspan
             x="0 6.6719999 10.008 16.68 23.351999 27.348 34.02"
             y="0"
             sodipodi:role="line"
             id="tspan4036">1.4e-06</tspan>
        </text>
      </g>
      <path
         d="m 75.6,298.5 h 3.15 m 439.55,0 h -3.15"
         style="fill:none;stroke:#000000;stroke-width:0.5;stroke-linecap:butt;stroke-linejoin:miter;stroke-miterlimit:3.79999995;stroke-dasharray:none;stroke-opacity:1"
         id="path4040"
         inkscape:connector-curvature="0" />
      <g
         id="g4042">
        <text
           transform="matrix(1,0,0,-1,27.709,294.5)"
           style="font-variant:normal;font-weight:normal;font-size:12px;font-family:Helvetica;-inkscape-font-specification:Helvetica;writing-mode:lr-tb;fill:#000000;fill-opacity:1;fill-rule:nonzero;stroke:none"
           id="text4046">
          <tspan
             x="0 6.6719999 10.008 16.68 23.351999 27.348 34.02"
             y="0"
             sodipodi:role="line"
             id="tspan4044">1.6e-06</tspan>
        </text>
      </g>
      <path
         d="m 75.6,331.05 h 3.15 m 439.55,0 h -3.15"
         style="fill:none;stroke:#000000;stroke-width:0.5;stroke-linecap:butt;stroke-linejoin:miter;stroke-miterlimit:3.79999995;stroke-dasharray:none;stroke-opacity:1"
         id="path4048"
         inkscape:connector-curvature="0" />
      <g
         id="g4050">
        <text
           transform="matrix(1,0,0,-1,27.709,327.05)"
           style="font-variant:normal;font-weight:normal;font-size:12px;font-family:Helvetica;-inkscape-font-specification:Helvetica;writing-mode:lr-tb;fill:#000000;fill-opacity:1;fill-rule:nonzero;stroke:none"
           id="text4054">
          <tspan
             x="0 6.6719999 10.008 16.68 23.351999 27.348 34.02"
             y="0"
             sodipodi:role="line"
             id="tspan4052">1.8e-06</tspan>
        </text>
      </g>
      <path
         d="m 75.6,363.55 h 3.15 m 439.55,0 h -3.15"
         style="fill:none;stroke:#000000;stroke-width:0.5;stroke-linecap:butt;stroke-linejoin:miter;stroke-miterlimit:3.79999995;stroke-dasharray:none;stroke-opacity:1"
         id="path4056"
         inkscape:connector-curvature="0" />
      <g
         id="g4058">
        <text
           transform="matrix(1,0,0,-1,37.7169,359.55)"
           style="font-variant:normal;font-weight:normal;font-size:12px;font-family:Helvetica;-inkscape-font-specification:Helvetica;writing-mode:lr-tb;fill:#000000;fill-opacity:1;fill-rule:nonzero;stroke:none"
           id="text4062">
          <tspan
             x="0 6.6719999 13.344 17.34 24.011999"
             y="0"
             sodipodi:role="line"
             id="tspan4060">2e-06</tspan>
        </text>
      </g>
      <path
         d="m 75.4,38.4 v 3.15 m 0,322 v -3.15"
         style="fill:none;stroke:#000000;stroke-width:0.5;stroke-linecap:butt;stroke-linejoin:miter;stroke-miterlimit:3.79999995;stroke-dasharray:none;stroke-opacity:1"
         id="path4064"
         inkscape:connector-curvature="0" />
      <g
         id="g4066">
        <text
           transform="matrix(1,0,0,-1,73.7321,22.4)"
           style="font-variant:normal;font-weight:normal;font-size:12px;font-family:Helvetica;-inkscape-font-specification:Helvetica;writing-mode:lr-tb;fill:#000000;fill-opacity:1;fill-rule:nonzero;stroke:none"
           id="text4070">
          <tspan
             x="0"
             y="0"
             id="tspan4068">0</tspan>
        </text>
      </g>
      <path
         d="m 119.65,38.4 v 3.15 m 0,322 v -3.15"
         style="fill:none;stroke:#000000;stroke-width:0.5;stroke-linecap:butt;stroke-linejoin:miter;stroke-miterlimit:3.79999995;stroke-dasharray:none;stroke-opacity:1"
         id="path4072"
         inkscape:connector-curvature="0" />
      <g
         id="g4074">
        <text
           transform="matrix(1,0,0,-1,117.982,22.4)"
           style="font-variant:normal;font-weight:normal;font-size:12px;font-family:Helvetica;-inkscape-font-specification:Helvetica;writing-mode:lr-tb;fill:#000000;fill-opacity:1;fill-rule:nonzero;stroke:none"
           id="text4078">
          <tspan
             x="0"
             y="0"
             id="tspan4076">2</tspan>
        </text>
      </g>
      <path
         d="m 163.95,38.4 v 3.15 m 0,322 v -3.15"
         style="fill:none;stroke:#000000;stroke-width:0.5;stroke-linecap:butt;stroke-linejoin:miter;stroke-miterlimit:3.79999995;stroke-dasharray:none;stroke-opacity:1"
         id="path4080"
         inkscape:connector-curvature="0" />
      <g
         id="g4082">
        <text
           transform="matrix(1,0,0,-1,162.282,22.4)"
           style="font-variant:normal;font-weight:normal;font-size:12px;font-family:Helvetica;-inkscape-font-specification:Helvetica;writing-mode:lr-tb;fill:#000000;fill-opacity:1;fill-rule:nonzero;stroke:none"
           id="text4086">
          <tspan
             x="0"
             y="0"
             id="tspan4084">4</tspan>
        </text>
      </g>
      <path
         d="m 208.25,38.4 v 3.15 m 0,322 v -3.15"
         style="fill:none;stroke:#000000;stroke-width:0.5;stroke-linecap:butt;stroke-linejoin:miter;stroke-miterlimit:3.79999995;stroke-dasharray:none;stroke-opacity:1"
         id="path4088"
         inkscape:connector-curvature="0" />
      <g
         id="g4090">
        <text
           transform="matrix(1,0,0,-1,206.582,22.4)"
           style="font-variant:normal;font-weight:normal;font-size:12px;font-family:Helvetica;-inkscape-font-specification:Helvetica;writing-mode:lr-tb;fill:#000000;fill-opacity:1;fill-rule:nonzero;stroke:none"
           id="text4094">
          <tspan
             x="0"
             y="0"
             id="tspan4092">6</tspan>
        </text>
      </g>
      <path
         d="m 252.55,38.4 v 3.15 m 0,322 v -3.15"
         style="fill:none;stroke:#000000;stroke-width:0.5;stroke-linecap:butt;stroke-linejoin:miter;stroke-miterlimit:3.79999995;stroke-dasharray:none;stroke-opacity:1"
         id="path4096"
         inkscape:connector-curvature="0" />
      <g
         id="g4098">
        <text
           transform="matrix(1,0,0,-1,250.882,22.4)"
           style="font-variant:normal;font-weight:normal;font-size:12px;font-family:Helvetica;-inkscape-font-specification:Helvetica;writing-mode:lr-tb;fill:#000000;fill-opacity:1;fill-rule:nonzero;stroke:none"
           id="text4102">
          <tspan
             x="0"
             y="0"
             id="tspan4100">8</tspan>
        </text>
      </g>
      <path
         d="m 296.85,38.4 v 3.15 m 0,322 v -3.15"
         style="fill:none;stroke:#000000;stroke-width:0.5;stroke-linecap:butt;stroke-linejoin:miter;stroke-miterlimit:3.79999995;stroke-dasharray:none;stroke-opacity:1"
         id="path4104"
         inkscape:connector-curvature="0" />
      <g
         id="g4106">
        <text
           transform="matrix(1,0,0,-1,291.846,22.4)"
           style="font-variant:normal;font-weight:normal;font-size:12px;font-family:Helvetica;-inkscape-font-specification:Helvetica;writing-mode:lr-tb;fill:#000000;fill-opacity:1;fill-rule:nonzero;stroke:none"
           id="text4110">
          <tspan
             x="0 6.6719999"
             y="0"
             sodipodi:role="line"
             id="tspan4108">10</tspan>
        </text>
      </g>
      <path
         d="m 341.15,38.4 v 3.15 m 0,322 v -3.15"
         style="fill:none;stroke:#000000;stroke-width:0.5;stroke-linecap:butt;stroke-linejoin:miter;stroke-miterlimit:3.79999995;stroke-dasharray:none;stroke-opacity:1"
         id="path4112"
         inkscape:connector-curvature="0" />
      <g
         id="g4114">
        <text
           transform="matrix(1,0,0,-1,336.146,22.4)"
           style="font-variant:normal;font-weight:normal;font-size:12px;font-family:Helvetica;-inkscape-font-specification:Helvetica;writing-mode:lr-tb;fill:#000000;fill-opacity:1;fill-rule:nonzero;stroke:none"
           id="text4118">
          <tspan
             x="0 6.6719999"
             y="0"
             sodipodi:role="line"
             id="tspan4116">12</tspan>
        </text>
      </g>
      <path
         d="m 385.4,38.4 v 3.15 m 0,322 v -3.15"
         style="fill:none;stroke:#000000;stroke-width:0.5;stroke-linecap:butt;stroke-linejoin:miter;stroke-miterlimit:3.79999995;stroke-dasharray:none;stroke-opacity:1"
         id="path4120"
         inkscape:connector-curvature="0" />
      <g
         id="g4122">
        <text
           transform="matrix(1,0,0,-1,380.396,22.4)"
           style="font-variant:normal;font-weight:normal;font-size:12px;font-family:Helvetica;-inkscape-font-specification:Helvetica;writing-mode:lr-tb;fill:#000000;fill-opacity:1;fill-rule:nonzero;stroke:none"
           id="text4126">
          <tspan
             x="0 6.6719999"
             y="0"
             sodipodi:role="line"
             id="tspan4124">14</tspan>
        </text>
      </g>
      <path
         d="m 429.7,38.4 v 3.15 m 0,322 v -3.15"
         style="fill:none;stroke:#000000;stroke-width:0.5;stroke-linecap:butt;stroke-linejoin:miter;stroke-miterlimit:3.79999995;stroke-dasharray:none;stroke-opacity:1"
         id="path4128"
         inkscape:connector-curvature="0" />
      <g
         id="g4130">
        <text
           transform="matrix(1,0,0,-1,424.696,22.4)"
           style="font-variant:normal;font-weight:normal;font-size:12px;font-family:Helvetica;-inkscape-font-specification:Helvetica;writing-mode:lr-tb;fill:#000000;fill-opacity:1;fill-rule:nonzero;stroke:none"
           id="text4134">
          <tspan
             x="0 6.6719999"
             y="0"
             sodipodi:role="line"
             id="tspan4132">16</tspan>
        </text>
      </g>
      <path
         d="m 474,38.4 v 3.15 m 0,322 v -3.15"
         style="fill:none;stroke:#000000;stroke-width:0.5;stroke-linecap:butt;stroke-linejoin:miter;stroke-miterlimit:3.79999995;stroke-dasharray:none;stroke-opacity:1"
         id="path4136"
         inkscape:connector-curvature="0" />
      <g
         id="g4138">
        <text
           transform="matrix(1,0,0,-1,468.996,22.4)"
           style="font-variant:normal;font-weight:normal;font-size:12px;font-family:Helvetica;-inkscape-font-specification:Helvetica;writing-mode:lr-tb;fill:#000000;fill-opacity:1;fill-rule:nonzero;stroke:none"
           id="text4142">
          <tspan
             x="0 6.6719999"
             y="0"
             sodipodi:role="line"
             id="tspan4140">18</tspan>
        </text>
      </g>
      <path
         d="m 518.3,38.4 v 3.15 m 0,322 v -3.15"
         style="fill:none;stroke:#000000;stroke-width:0.5;stroke-linecap:butt;stroke-linejoin:miter;stroke-miterlimit:3.79999995;stroke-dasharray:none;stroke-opacity:1"
         id="path4144"
         inkscape:connector-curvature="0" />
      <g
         id="g4146">
        <text
           transform="matrix(1,0,0,-1,513.296,22.4)"
           style="font-variant:normal;font-weight:normal;font-size:12px;font-family:Helvetica;-inkscape-font-specification:Helvetica;writing-mode:lr-tb;fill:#000000;fill-opacity:1;fill-rule:nonzero;stroke:none"
           id="text4150">
          <tspan
             x="0 6.6719999"
             y="0"
             sodipodi:role="line"
             id="tspan4148">20</tspan>
        </text>
      </g>
      <path
         d="M 75.6,38.4 H 518.3"
         style="fill:none;stroke:#000000;stroke-width:0.125;stroke-linecap:butt;stroke-linejoin:miter;stroke-miterlimit:3.79999995;stroke-dasharray:0.5, 1;stroke-dashoffset:0;stroke-opacity:1"
         id="path4152"
         inkscape:connector-curvature="0" />
      <path
         d="M 75.6,38.4 H 518.3 V 363.55 H 75.6 Z"
         style="fill:none;stroke:#000000;stroke-width:0.5;stroke-linecap:butt;stroke-linejoin:miter;stroke-miterlimit:3.79999995;stroke-dasharray:none;stroke-opacity:1"
         id="path4154"
         inkscape:connector-curvature="0" />
      <g
         id="g4156">
        <text
           transform="matrix(1,0,0,-1,293.95,4.4)"
           style="font-variant:normal;font-weight:normal;font-size:12px;font-family:Helvetica;-inkscape-font-specification:Helvetica;writing-mode:lr-tb;fill:#000000;fill-opacity:1;fill-rule:nonzero;stroke:none"
           id="text4162">
          <tspan
             x="0"
             y="0"
             id="tspan4158">x</tspan>
          <tspan
             x="137.455 146.119 152.791 155.455 158.791"
             sodipodi:role="line"
             id="tspan4160"
             y="-347.20001">Delta</tspan>
        </text>
        <text
           transform="matrix(1,0,0,-1,459.4128,348)"
           style="font-variant:normal;font-weight:normal;font-size:9.60000038px;font-family:Helvetica;-inkscape-font-specification:Helvetica;writing-mode:lr-tb;fill:#000000;fill-opacity:1;fill-rule:nonzero;stroke:none"
           id="text4166">
          <tspan
             x="0"
             y="0"
             id="tspan4164" />
        </text>
      </g>
      <path
         d="M 471.95,354.4 H 503.9 M 75.6,38.55 h 0.1 l 0.15,0.15 h 0.1 L 76.1,39 h 0.55 l 0.15,0.6 h 1.3 l 0.1,1.2 h 2.65 l 0.1,2.45 h 5.4 l 0.1,4.85 H 97.4 l 0.15,9.7 h 22.05 l 0.15,19.35"
         style="fill:none;stroke:#0000ff;stroke-width:0.25;stroke-linecap:butt;stroke-linejoin:miter;stroke-miterlimit:3.79999995;stroke-dasharray:none;stroke-opacity:1"
         id="path4168"
         inkscape:connector-curvature="0" />
      <path
         d="m 119.75,77.15 h 44.1 l 0.1,38.75 h 88.5 l 0.15,77.55 h 74.9"
         style="fill:none;stroke:#0000ff;stroke-width:0.25;stroke-linecap:butt;stroke-linejoin:miter;stroke-miterlimit:3.79999995;stroke-dasharray:none;stroke-opacity:1"
         id="path4170"
         inkscape:connector-curvature="0" />
      <path
         d="m 327.5,193.45 h 102.2 l 0.1,155.05 h 88.5"
         style="fill:none;stroke:#0000ff;stroke-width:0.25;stroke-linecap:butt;stroke-linejoin:miter;stroke-miterlimit:3.79999995;stroke-dasharray:none;stroke-opacity:1"
         id="path4172"
         inkscape:connector-curvature="0" />
      <g
         id="g4174">
        <text
           transform="matrix(1,0,0,-1,433.546,339.6)"
           style="font-variant:normal;font-weight:normal;font-size:12px;font-family:Helvetica;-inkscape-font-specification:Helvetica;writing-mode:lr-tb;fill:#000000;fill-opacity:1;fill-rule:nonzero;stroke:none"
           id="text4178">
          <tspan
             x="0"
             sodipodi:role="line"
             id="tspan4176"
             y="0">delta</tspan>
        </text>
        <text
           transform="matrix(1,0,0,-1,461.5538,336)"
           style="font-variant:normal;font-weight:normal;font-size:9.60000038px;font-family:Helvetica;-inkscape-font-specification:Helvetica;writing-mode:lr-tb;fill:#000000;fill-opacity:1;fill-rule:nonzero;stroke:none"
           id="text4182">
          <tspan
             x="0"
             y="0"
             id="tspan4180" />
        </text>
      </g>
      <path
         d="M 471.95,342.4 H 503.9 M 75.6,53.55 l 0.1,-5.3 0.15,4.75 0.1,-3 0.15,7.6 0.1,-2.8 0.1,-2.1 0.15,-1.6 0.1,-1.3 0.1,-1.05 0.15,8.6 0.1,-1.45 0.15,-1.25 0.1,-1.1 0.1,-0.95 0.15,-0.85 0.1,-0.75 0.15,-0.65 0.1,-0.6 0.1,-0.55 0.15,-0.5 0.1,-0.45 0.1,9 0.15,-0.75 0.1,-0.7 0.15,-0.65 0.1,-0.6 0.1,-0.55 0.15,-0.55 0.1,-0.45 0.15,-0.5 0.1,-0.4 0.1,-0.4 0.15,-0.4 0.1,-0.35 0.1,-0.35 0.15,-0.3 0.1,-0.3 0.15,-0.3 0.1,-0.3 0.1,-0.25 0.15,-0.25 0.1,-0.25 0.15,-0.2 0.1,-0.25 0.1,9.4 0.15,-0.4 0.1,-0.4 0.1,-0.35 0.15,-0.35 0.1,-0.35 0.15,-0.35 0.1,-0.3 0.1,-0.3 0.15,-0.3 0.1,-0.3 0.15,-0.25 0.2,-0.5 0.25,-0.5 0.25,-0.45 0.25,-0.45 0.2,-0.4 0.25,-0.35 0.25,-0.4 0.25,-0.3 0.25,-0.35 0.2,-0.3 0.25,-0.3 0.25,-0.25 0.25,-0.25 0.2,-0.25 0.25,-0.25 0.25,-0.25 0.1,-0.1 0.15,-0.1 0.1,9.6 0.1,-0.25 0.15,-0.2 0.1,-0.2 0.15,-0.15 0.1,-0.2 0.25,-0.4 0.25,-0.35 0.2,-0.3 0.25,-0.35 0.25,-0.3 0.25,-0.3 0.2,-0.3 0.25,-0.3 0.25,-0.25 0.25,-0.3 0.2,-0.25 0.25,-0.25 0.25,-0.2 0.25,-0.25 0.25,-0.25 0.2,-0.2 0.25,-0.2 0.25,-0.2 0.25,-0.2 0.2,-0.2 0.25,-0.2 0.25,-0.15"
         style="fill:none;stroke:#ff0000;stroke-width:0.25;stroke-linecap:butt;stroke-linejoin:miter;stroke-miterlimit:3.79999995;stroke-dasharray:none;stroke-opacity:1"
         id="path4184"
         inkscape:connector-curvature="0" />
      <path
         d="m 92.3,51.1 0.25,-0.2 0.2,-0.15 0.25,-0.2 0.25,-0.15 0.25,-0.15 0.25,-0.15 0.2,-0.15 0.25,-0.15 0.25,-0.15 0.25,-0.15 0.45,-0.25 0.5,-0.25 0.45,-0.25 0.5,-0.25 0.1,-0.05 0.15,-0.05 0.1,-0.05 0.1,-0.05 0.15,-0.05 0.1,-0.05 0.1,-0.05 0.15,9.6 0.25,-0.2 0.2,-0.2 0.25,-0.2 0.25,-0.2 0.5,-0.35 0.45,-0.35 0.5,-0.35 0.45,-0.35 0.5,-0.3 0.45,-0.35 0.5,-0.3 0.45,-0.25 0.5,-0.3 0.45,-0.25 0.5,-0.25 0.45,-0.25 0.5,-0.25 0.5,-0.25 0.45,-0.2 0.5,-0.25 0.45,-0.2 0.5,-0.2 0.45,-0.2 0.5,-0.2 0.45,-0.2 0.5,-0.2 0.45,-0.15 0.5,-0.2 0.45,-0.15 0.5,-0.15 0.5,-0.2 0.45,-0.15 0.5,-0.15 0.45,-0.15 0.5,-0.15 0.45,-0.1 0.5,-0.15 0.45,-0.15 0.5,-0.1 0.45,-0.15 0.5,-0.1 0.5,-0.15 0.45,-0.1 0.5,-0.15 0.45,-0.1 0.5,-0.1 0.45,-0.1 0.5,-0.1 0.1,-0.05 0.15,9.65 0.1,-0.05 0.1,-0.05 0.15,-0.05 0.1,-0.05 0.1,-0.05 0.15,-0.05 0.25,-0.1 0.2,-0.1 0.25,-0.1 0.25,-0.1 0.45,-0.2 0.5,-0.2 0.5,-0.15 0.45,-0.2 0.5,-0.15 0.45,-0.2 0.5,-0.15 0.45,-0.15 0.5,-0.2 0.45,-0.15 0.5,-0.15 0.45,-0.15 0.5,-0.15 0.5,-0.15 0.45,-0.15 0.5,-0.15 0.95,-0.3 0.95,-0.25 0.95,-0.25 0.95,-0.25 0.95,-0.25 0.95,-0.25"
         style="fill:none;stroke:#ff0000;stroke-width:0.25;stroke-linecap:butt;stroke-linejoin:miter;stroke-miterlimit:3.79999995;stroke-dasharray:none;stroke-opacity:1"
         id="path4186"
         inkscape:connector-curvature="0" />
      <path
         d="m 134.75,52.85 0.95,-0.2 0.95,-0.25 0.95,-0.2 0.95,-0.2 0.95,-0.2 1,-0.2 0.95,-0.2 0.95,-0.2 0.95,-0.15 0.95,-0.2 0.95,-0.15 0.95,-0.2 0.95,-0.15 0.95,-0.15 0.95,-0.15 0.95,-0.15 0.95,-0.15 1,-0.15 0.95,-0.1 0.95,-0.15 0.95,-0.15 0.95,-0.1 0.95,-0.15 0.95,-0.1 0.95,-0.15 0.95,-0.1 0.95,-0.1 0.95,-0.15 0.95,-0.1 1,-0.1 h 0.2 l 0.15,-0.05 h 0.1 l 0.1,9.7 0.15,-0.05 h 0.1 l 0.15,-0.05 0.2,-0.05 0.25,-0.05 0.25,-0.05 0.25,-0.05 0.45,-0.1 0.5,-0.1 0.45,-0.1 0.5,-0.1 0.95,-0.2 0.95,-0.2 0.95,-0.15 0.95,-0.2 0.95,-0.15 0.95,-0.2 0.95,-0.15 1,-0.2 0.95,-0.15 0.95,-0.15 0.95,-0.15 0.95,-0.15 0.95,-0.2 0.95,-0.15 0.95,-0.1 0.95,-0.15 0.95,-0.15 0.95,-0.15 0.95,-0.15 0.95,-0.1 1,-0.15 0.95,-0.15 0.95,-0.1 0.95,-0.15 0.95,-0.1 0.95,-0.15 0.95,-0.1 0.95,-0.1 0.95,-0.15 0.95,-0.1 0.95,-0.1 0.95,-0.1 1,-0.15 0.95,-0.1 0.95,-0.1 0.95,-0.1 0.95,-0.1 0.95,-0.1 0.95,-0.1 0.95,-0.1 0.95,-0.1 0.95,-0.1 0.95,-0.1 0.95,-0.05 1,-0.1 0.95,-0.1 0.95,-0.1 0.95,-0.05 1.9,-0.2 1.9,-0.15 1.9,-0.15 1.9,-0.2 1.95,-0.15 1.9,-0.15 1.9,-0.15 1.9,-0.1 1.9,-0.15 1.9,-0.15"
         style="fill:none;stroke:#ff0000;stroke-width:0.25;stroke-linecap:butt;stroke-linejoin:miter;stroke-miterlimit:3.79999995;stroke-dasharray:none;stroke-opacity:1"
         id="path4188"
         inkscape:connector-curvature="0" />
      <path
         d="m 232.05,49.35 1.95,-0.15 1.9,-0.1 1.9,-0.15 1.9,-0.1 1.9,-0.1 1.9,-0.15 1.95,-0.1 1.9,-0.1 1.9,-0.15 1.9,-0.1 h 0.7 l 0.25,-0.05 h 0.35 l 0.15,9.7 0.1,-0.05 h 0.25 l 0.1,-0.05 0.5,-0.05 0.45,-0.05 0.5,-0.05 0.45,-0.05 0.95,-0.1 1,-0.1 0.95,-0.1 0.95,-0.1 1.9,-0.15 1.9,-0.2 1.9,-0.2 1.9,-0.2 1.95,-0.15 1.9,-0.2 1.9,-0.15 1.9,-0.15 1.9,-0.2 1.9,-0.15 1.95,-0.15 1.9,-0.15 1.9,-0.15 1.9,-0.15 1.9,-0.15 1.9,-0.15 1.95,-0.15 1.9,-0.15 1.9,-0.1 1.9,-0.15 1.9,-0.15 1.9,-0.1 1.9,-0.15 1.95,-0.1 1.9,-0.15 1.9,-0.1 1.9,-0.15 1.9,-0.1 1.9,-0.1 1.95,-0.15 1.9,-0.1 1.9,-0.1 1.9,-0.1 1.9,-0.1 1.9,-0.15 1.95,-0.1 1.9,-0.1 1.9,-0.1 1.9,-0.1 1.9,-0.1 1.9,-0.1 1.95,-0.05 1.9,-0.1 1.9,-0.1 1.9,-0.1 1.9,-0.1 1.9,-0.1 1.95,-0.05 1.9,-0.1 1.9,-0.1 1.9,-0.05 1.9,-0.1 1.9,-0.1 1.95,-0.05 1.9,-0.1 1.9,-0.05 1.9,-0.1 1.9,-0.05 1.9,-0.1 1.95,-0.05 1.9,-0.1 1.9,-0.05 1.9,-0.1 1.9,-0.05 3.85,-0.15 3.8,-0.15 3.8,-0.1 3.85,-0.15 3.8,-0.1 3.8,-0.15 3.8,-0.1 3.85,-0.15 3.8,-0.1 3.8,-0.1"
         style="fill:none;stroke:#ff0000;stroke-width:0.25;stroke-linecap:butt;stroke-linejoin:miter;stroke-miterlimit:3.79999995;stroke-dasharray:none;stroke-opacity:1"
         id="path4190"
         inkscape:connector-curvature="0" />
      <path
         d="m 419.05,48.4 3.85,-0.1 3.8,-0.15 h 1.45 l 0.45,-0.05 h 1.1 l 0.1,9.7 0.15,-0.05 h 0.55 l 1,-0.05 0.95,-0.05 0.95,-0.05 0.95,-0.05 1.9,-0.1 1.9,-0.1 1.9,-0.1 1.9,-0.1 3.85,-0.2 3.8,-0.2 3.8,-0.2 3.85,-0.15 3.8,-0.2 3.8,-0.15 3.85,-0.2 3.8,-0.15 3.8,-0.15 3.85,-0.2 3.8,-0.15 3.8,-0.15 3.85,-0.15 3.8,-0.15 3.8,-0.15 3.85,-0.15 3.8,-0.15 3.8,-0.1 3.85,-0.15 3.8,-0.15"
         style="fill:none;stroke:#ff0000;stroke-width:0.25;stroke-linecap:butt;stroke-linejoin:miter;stroke-miterlimit:3.79999995;stroke-dasharray:none;stroke-opacity:1"
         id="path4192"
         inkscape:connector-curvature="0" />
      <path
         d="M 75.6,38.4 H 518.3 V 363.55 H 75.6 Z"
         style="fill:none;stroke:#000000;stroke-width:0.5;stroke-linecap:butt;stroke-linejoin:miter;stroke-miterlimit:3.79999995;stroke-dasharray:none;stroke-opacity:1"
         id="path4194"
         inkscape:connector-curvature="0" />
    </g>
  </g>
</svg>
