<?xml version="1.0" encoding="UTF-8" standalone="no"?>
<!-- Created with Inkscape (http://www.inkscape.org/) -->

<svg
   xmlns:dc="http://purl.org/dc/elements/1.1/"
   xmlns:cc="http://creativecommons.org/ns#"
   xmlns:rdf="http://www.w3.org/1999/02/22-rdf-syntax-ns#"
   xmlns:svg="http://www.w3.org/2000/svg"
   xmlns="http://www.w3.org/2000/svg"
   xmlns:sodipodi="http://sodipodi.sourceforge.net/DTD/sodipodi-0.dtd"
   xmlns:inkscape="http://www.inkscape.org/namespaces/inkscape"
   width="177.20781mm"
   height="128.33173mm"
   viewBox="0 0 177.20781 128.33173"
   version="1.1"
   id="svg8"
   inkscape:version="0.92.1 r15371"
   sodipodi:docname="ft-density.svg">
  <defs
     id="defs2" />
  <sodipodi:namedview
     id="base"
     pagecolor="#ffffff"
     bordercolor="#666666"
     borderopacity="1.0"
     inkscape:pageopacity="0.0"
     inkscape:pageshadow="2"
     inkscape:zoom="0.49497475"
     inkscape:cx="-117.95888"
     inkscape:cy="257.05017"
     inkscape:document-units="mm"
     inkscape:current-layer="layer1"
     showgrid="false"
     fit-margin-top="0"
     fit-margin-left="0"
     fit-margin-right="0"
     fit-margin-bottom="0"
     inkscape:window-width="1920"
     inkscape:window-height="1033"
     inkscape:window-x="-4"
     inkscape:window-y="-4"
     inkscape:window-maximized="1" />
  <metadata
     id="metadata5">
    <rdf:RDF>
      <cc:Work
         rdf:about="">
        <dc:format>image/svg+xml</dc:format>
        <dc:type
           rdf:resource="http://purl.org/dc/dcmitype/StillImage" />
        <dc:title></dc:title>
      </cc:Work>
    </rdf:RDF>
  </metadata>
  <g
     inkscape:label="Layer 1"
     inkscape:groupmode="layer"
     id="layer1"
     transform="translate(-163.8842,-15.875805)">
    <g
       transform="matrix(0.35277777,0,0,-0.35277777,156.66737,145.75976)"
       inkscape:label="density"
       id="g3688">
      <g
         transform="scale(0.1)"
         id="g3690">
        <path
           inkscape:connector-curvature="0"
           id="path3692"
           style="fill:none;stroke:#000000;stroke-width:5;stroke-linecap:butt;stroke-linejoin:miter;stroke-miterlimit:3.79999995;stroke-dasharray:none;stroke-opacity:1"
           d="m 612,384 h 31.5 m 4539.5,0 h -31.5" />
        <g
           transform="scale(10)"
           id="g3694">
          <text
             id="text3698"
             style="font-variant:normal;font-weight:normal;font-size:12px;font-family:Helvetica;-inkscape-font-specification:Helvetica;writing-mode:lr-tb;fill:#000000;fill-opacity:1;fill-rule:nonzero;stroke:none"
             transform="matrix(1,0,0,-1,47.3282,34.4)">
            <tspan
               id="tspan3696"
               y="0"
               x="0">0</tspan>
          </text>
        </g>
        <path
           inkscape:connector-curvature="0"
           id="path3700"
           style="fill:none;stroke:#000000;stroke-width:5;stroke-linecap:butt;stroke-linejoin:miter;stroke-miterlimit:3.79999995;stroke-dasharray:none;stroke-opacity:1"
           d="m 612,790.5 h 31.5 m 4539.5,0 h -31.5" />
        <g
           transform="scale(10)"
           id="g3702">
          <text
             id="text3706"
             style="font-variant:normal;font-weight:normal;font-size:12px;font-family:Helvetica;-inkscape-font-specification:Helvetica;writing-mode:lr-tb;fill:#000000;fill-opacity:1;fill-rule:nonzero;stroke:none"
             transform="matrix(1,0,0,-1,20.3048,75.05)">
            <tspan
               id="tspan3704"
               sodipodi:role="line"
               y="0"
               x="0 6.6719999 13.344 20.351999 27.024">1e+07</tspan>
          </text>
        </g>
        <path
           inkscape:connector-curvature="0"
           id="path3708"
           style="fill:none;stroke:#000000;stroke-width:5;stroke-linecap:butt;stroke-linejoin:miter;stroke-miterlimit:3.79999995;stroke-dasharray:none;stroke-opacity:1"
           d="m 612,1197 h 31.5 m 4539.5,0 h -31.5" />
        <g
           transform="scale(10)"
           id="g3710">
          <text
             id="text3714"
             style="font-variant:normal;font-weight:normal;font-size:12px;font-family:Helvetica;-inkscape-font-specification:Helvetica;writing-mode:lr-tb;fill:#000000;fill-opacity:1;fill-rule:nonzero;stroke:none"
             transform="matrix(1,0,0,-1,20.3048,115.7)">
            <tspan
               id="tspan3712"
               sodipodi:role="line"
               y="0"
               x="0 6.6719999 13.344 20.351999 27.024">2e+07</tspan>
          </text>
        </g>
        <path
           inkscape:connector-curvature="0"
           id="path3716"
           style="fill:none;stroke:#000000;stroke-width:5;stroke-linecap:butt;stroke-linejoin:miter;stroke-miterlimit:3.79999995;stroke-dasharray:none;stroke-opacity:1"
           d="m 612,1603.5 h 31.5 m 4539.5,0 h -31.5" />
        <g
           transform="scale(10)"
           id="g3718">
          <text
             id="text3722"
             style="font-variant:normal;font-weight:normal;font-size:12px;font-family:Helvetica;-inkscape-font-specification:Helvetica;writing-mode:lr-tb;fill:#000000;fill-opacity:1;fill-rule:nonzero;stroke:none"
             transform="matrix(1,0,0,-1,20.3048,156.35)">
            <tspan
               id="tspan3720"
               sodipodi:role="line"
               y="0"
               x="0 6.6719999 13.344 20.351999 27.024">3e+07</tspan>
          </text>
        </g>
        <path
           inkscape:connector-curvature="0"
           id="path3724"
           style="fill:none;stroke:#000000;stroke-width:5;stroke-linecap:butt;stroke-linejoin:miter;stroke-miterlimit:3.79999995;stroke-dasharray:none;stroke-opacity:1"
           d="m 612,2010 h 31.5 m 4539.5,0 h -31.5" />
        <g
           transform="scale(10)"
           id="g3726">
          <text
             id="text3730"
             style="font-variant:normal;font-weight:normal;font-size:12px;font-family:Helvetica;-inkscape-font-specification:Helvetica;writing-mode:lr-tb;fill:#000000;fill-opacity:1;fill-rule:nonzero;stroke:none"
             transform="matrix(1,0,0,-1,20.3048,197)">
            <tspan
               id="tspan3728"
               sodipodi:role="line"
               y="0"
               x="0 6.6719999 13.344 20.351999 27.024">4e+07</tspan>
          </text>
        </g>
        <path
           inkscape:connector-curvature="0"
           id="path3732"
           style="fill:none;stroke:#000000;stroke-width:5;stroke-linecap:butt;stroke-linejoin:miter;stroke-miterlimit:3.79999995;stroke-dasharray:none;stroke-opacity:1"
           d="m 612,2416 h 31.5 m 4539.5,0 h -31.5" />
        <g
           transform="scale(10)"
           id="g3734">
          <text
             id="text3738"
             style="font-variant:normal;font-weight:normal;font-size:12px;font-family:Helvetica;-inkscape-font-specification:Helvetica;writing-mode:lr-tb;fill:#000000;fill-opacity:1;fill-rule:nonzero;stroke:none"
             transform="matrix(1,0,0,-1,20.3048,237.6)">
            <tspan
               id="tspan3736"
               sodipodi:role="line"
               y="0"
               x="0 6.6719999 13.344 20.351999 27.024">5e+07</tspan>
          </text>
        </g>
        <path
           inkscape:connector-curvature="0"
           id="path3740"
           style="fill:none;stroke:#000000;stroke-width:5;stroke-linecap:butt;stroke-linejoin:miter;stroke-miterlimit:3.79999995;stroke-dasharray:none;stroke-opacity:1"
           d="m 612,2822.5 h 31.5 m 4539.5,0 h -31.5" />
        <g
           transform="scale(10)"
           id="g3742">
          <text
             id="text3746"
             style="font-variant:normal;font-weight:normal;font-size:12px;font-family:Helvetica;-inkscape-font-specification:Helvetica;writing-mode:lr-tb;fill:#000000;fill-opacity:1;fill-rule:nonzero;stroke:none"
             transform="matrix(1,0,0,-1,20.3048,278.25)">
            <tspan
               id="tspan3744"
               sodipodi:role="line"
               y="0"
               x="0 6.6719999 13.344 20.351999 27.024">6e+07</tspan>
          </text>
        </g>
        <path
           inkscape:connector-curvature="0"
           id="path3748"
           style="fill:none;stroke:#000000;stroke-width:5;stroke-linecap:butt;stroke-linejoin:miter;stroke-miterlimit:3.79999995;stroke-dasharray:none;stroke-opacity:1"
           d="m 612,3229 h 31.5 m 4539.5,0 h -31.5" />
        <g
           transform="scale(10)"
           id="g3750">
          <text
             id="text3754"
             style="font-variant:normal;font-weight:normal;font-size:12px;font-family:Helvetica;-inkscape-font-specification:Helvetica;writing-mode:lr-tb;fill:#000000;fill-opacity:1;fill-rule:nonzero;stroke:none"
             transform="matrix(1,0,0,-1,20.3048,318.9)">
            <tspan
               id="tspan3752"
               sodipodi:role="line"
               y="0"
               x="0 6.6719999 13.344 20.351999 27.024">7e+07</tspan>
          </text>
        </g>
        <path
           inkscape:connector-curvature="0"
           id="path3756"
           style="fill:none;stroke:#000000;stroke-width:5;stroke-linecap:butt;stroke-linejoin:miter;stroke-miterlimit:3.79999995;stroke-dasharray:none;stroke-opacity:1"
           d="m 612,3635.5 h 31.5 m 4539.5,0 h -31.5" />
        <g
           transform="scale(10)"
           id="g3758">
          <text
             id="text3762"
             style="font-variant:normal;font-weight:normal;font-size:12px;font-family:Helvetica;-inkscape-font-specification:Helvetica;writing-mode:lr-tb;fill:#000000;fill-opacity:1;fill-rule:nonzero;stroke:none"
             transform="matrix(1,0,0,-1,20.3048,359.55)">
            <tspan
               id="tspan3760"
               sodipodi:role="line"
               y="0"
               x="0 6.6719999 13.344 20.351999 27.024">8e+07</tspan>
          </text>
        </g>
        <path
           inkscape:connector-curvature="0"
           id="path3764"
           style="fill:none;stroke:#000000;stroke-width:5;stroke-linecap:butt;stroke-linejoin:miter;stroke-miterlimit:3.79999995;stroke-dasharray:none;stroke-opacity:1"
           d="m 1069,384 v 31.5 m 0,3220 V 3604" />
        <g
           transform="scale(10)"
           id="g3766">
          <text
             id="text3770"
             style="font-variant:normal;font-weight:normal;font-size:12px;font-family:Helvetica;-inkscape-font-specification:Helvetica;writing-mode:lr-tb;fill:#000000;fill-opacity:1;fill-rule:nonzero;stroke:none"
             transform="matrix(1,0,0,-1,105.232,22.4)">
            <tspan
               id="tspan3768"
               y="0"
               x="0">1</tspan>
          </text>
        </g>
        <path
           inkscape:connector-curvature="0"
           id="path3772"
           style="fill:none;stroke:#000000;stroke-width:5;stroke-linecap:butt;stroke-linejoin:miter;stroke-miterlimit:3.79999995;stroke-dasharray:none;stroke-opacity:1"
           d="m 1583.5,384 v 31.5 m 0,3220 V 3604" />
        <g
           transform="scale(10)"
           id="g3774">
          <text
             id="text3778"
             style="font-variant:normal;font-weight:normal;font-size:12px;font-family:Helvetica;-inkscape-font-specification:Helvetica;writing-mode:lr-tb;fill:#000000;fill-opacity:1;fill-rule:nonzero;stroke:none"
             transform="matrix(1,0,0,-1,156.682,22.4)">
            <tspan
               id="tspan3776"
               y="0"
               x="0">2</tspan>
          </text>
        </g>
        <path
           inkscape:connector-curvature="0"
           id="path3780"
           style="fill:none;stroke:#000000;stroke-width:5;stroke-linecap:butt;stroke-linejoin:miter;stroke-miterlimit:3.79999995;stroke-dasharray:none;stroke-opacity:1"
           d="m 2097.5,384 v 31.5 m 0,3220 V 3604" />
        <g
           transform="scale(10)"
           id="g3782">
          <text
             id="text3786"
             style="font-variant:normal;font-weight:normal;font-size:12px;font-family:Helvetica;-inkscape-font-specification:Helvetica;writing-mode:lr-tb;fill:#000000;fill-opacity:1;fill-rule:nonzero;stroke:none"
             transform="matrix(1,0,0,-1,208.082,22.4)">
            <tspan
               id="tspan3784"
               y="0"
               x="0">3</tspan>
          </text>
        </g>
        <path
           inkscape:connector-curvature="0"
           id="path3788"
           style="fill:none;stroke:#000000;stroke-width:5;stroke-linecap:butt;stroke-linejoin:miter;stroke-miterlimit:3.79999995;stroke-dasharray:none;stroke-opacity:1"
           d="m 2612,384 v 31.5 m 0,3220 V 3604" />
        <g
           transform="scale(10)"
           id="g3790">
          <text
             id="text3794"
             style="font-variant:normal;font-weight:normal;font-size:12px;font-family:Helvetica;-inkscape-font-specification:Helvetica;writing-mode:lr-tb;fill:#000000;fill-opacity:1;fill-rule:nonzero;stroke:none"
             transform="matrix(1,0,0,-1,259.532,22.4)">
            <tspan
               id="tspan3792"
               y="0"
               x="0">4</tspan>
          </text>
        </g>
        <path
           inkscape:connector-curvature="0"
           id="path3796"
           style="fill:none;stroke:#000000;stroke-width:5;stroke-linecap:butt;stroke-linejoin:miter;stroke-miterlimit:3.79999995;stroke-dasharray:none;stroke-opacity:1"
           d="m 3126,384 v 31.5 m 0,3220 V 3604" />
        <g
           transform="scale(10)"
           id="g3798">
          <text
             id="text3802"
             style="font-variant:normal;font-weight:normal;font-size:12px;font-family:Helvetica;-inkscape-font-specification:Helvetica;writing-mode:lr-tb;fill:#000000;fill-opacity:1;fill-rule:nonzero;stroke:none"
             transform="matrix(1,0,0,-1,310.932,22.4)">
            <tspan
               id="tspan3800"
               y="0"
               x="0">5</tspan>
          </text>
        </g>
        <path
           inkscape:connector-curvature="0"
           id="path3804"
           style="fill:none;stroke:#000000;stroke-width:5;stroke-linecap:butt;stroke-linejoin:miter;stroke-miterlimit:3.79999995;stroke-dasharray:none;stroke-opacity:1"
           d="m 3640.5,384 v 31.5 m 0,3220 V 3604" />
        <g
           transform="scale(10)"
           id="g3806">
          <text
             id="text3810"
             style="font-variant:normal;font-weight:normal;font-size:12px;font-family:Helvetica;-inkscape-font-specification:Helvetica;writing-mode:lr-tb;fill:#000000;fill-opacity:1;fill-rule:nonzero;stroke:none"
             transform="matrix(1,0,0,-1,362.382,22.4)">
            <tspan
               id="tspan3808"
               y="0"
               x="0">6</tspan>
          </text>
        </g>
        <path
           inkscape:connector-curvature="0"
           id="path3812"
           style="fill:none;stroke:#000000;stroke-width:5;stroke-linecap:butt;stroke-linejoin:miter;stroke-miterlimit:3.79999995;stroke-dasharray:none;stroke-opacity:1"
           d="m 4154.5,384 v 31.5 m 0,3220 V 3604" />
        <g
           transform="scale(10)"
           id="g3814">
          <text
             id="text3818"
             style="font-variant:normal;font-weight:normal;font-size:12px;font-family:Helvetica;-inkscape-font-specification:Helvetica;writing-mode:lr-tb;fill:#000000;fill-opacity:1;fill-rule:nonzero;stroke:none"
             transform="matrix(1,0,0,-1,413.782,22.4)">
            <tspan
               id="tspan3816"
               y="0"
               x="0">7</tspan>
          </text>
        </g>
        <path
           inkscape:connector-curvature="0"
           id="path3820"
           style="fill:none;stroke:#000000;stroke-width:5;stroke-linecap:butt;stroke-linejoin:miter;stroke-miterlimit:3.79999995;stroke-dasharray:none;stroke-opacity:1"
           d="m 4669,384 v 31.5 m 0,3220 V 3604" />
        <g
           transform="scale(10)"
           id="g3822">
          <text
             id="text3826"
             style="font-variant:normal;font-weight:normal;font-size:12px;font-family:Helvetica;-inkscape-font-specification:Helvetica;writing-mode:lr-tb;fill:#000000;fill-opacity:1;fill-rule:nonzero;stroke:none"
             transform="matrix(1,0,0,-1,465.232,22.4)">
            <tspan
               id="tspan3824"
               y="0"
               x="0">8</tspan>
          </text>
        </g>
        <path
           inkscape:connector-curvature="0"
           id="path3828"
           style="fill:none;stroke:#000000;stroke-width:5;stroke-linecap:butt;stroke-linejoin:miter;stroke-miterlimit:3.79999995;stroke-dasharray:none;stroke-opacity:1"
           d="m 5183,384 v 31.5 m 0,3220 V 3604" />
        <g
           transform="scale(10)"
           id="g3830">
          <text
             id="text3834"
             style="font-variant:normal;font-weight:normal;font-size:12px;font-family:Helvetica;-inkscape-font-specification:Helvetica;writing-mode:lr-tb;fill:#000000;fill-opacity:1;fill-rule:nonzero;stroke:none"
             transform="matrix(1,0,0,-1,516.632,22.4)">
            <tspan
               id="tspan3832"
               y="0"
               x="0">9</tspan>
          </text>
        </g>
        <path
           inkscape:connector-curvature="0"
           id="path3836"
           style="fill:none;stroke:#000000;stroke-width:1.25;stroke-linecap:butt;stroke-linejoin:miter;stroke-miterlimit:3.79999995;stroke-dasharray:5, 10;stroke-dashoffset:0;stroke-opacity:1"
           d="M 612,384 H 5183" />
        <path
           inkscape:connector-curvature="0"
           id="path3838"
           style="fill:none;stroke:#000000;stroke-width:5;stroke-linecap:butt;stroke-linejoin:miter;stroke-miterlimit:3.79999995;stroke-dasharray:none;stroke-opacity:1"
           d="M 612,384 H 5183 V 3635.5 H 612 Z" />
        <g
           transform="scale(10)"
           id="g3840">
          <text
             id="text3846"
             style="font-variant:normal;font-weight:normal;font-size:12px;font-family:Helvetica;-inkscape-font-specification:Helvetica;writing-mode:lr-tb;fill:#000000;fill-opacity:1;fill-rule:nonzero;stroke:none"
             transform="matrix(1,0,0,-1,286.75,4.4)">
            <tspan
               id="tspan3842"
               y="0"
               x="0">x</tspan>
            <tspan
               id="tspan3844"
               sodipodi:role="line"
               y="-346"
               x="155.321 157.985 164.657 171.32899">idea</tspan>
          </text>
        </g>
        <path
           inkscape:connector-curvature="0"
           id="path3848"
           style="fill:none;stroke:#0000ff;stroke-width:2.5;stroke-linecap:butt;stroke-linejoin:miter;stroke-miterlimit:3.79999995;stroke-dasharray:none;stroke-opacity:1"
           d="M 4719.5,3544 H 5039 m -4427,-91.5 1,-64.5 1.5,-62.5 1,-59.5 1.5,-57 1,-55 1.5,-53 1,-50.5 1.5,-49 1,-47.5 1.5,-45.5 1,-44 1.5,-42.5 1,-41 1,-39.5 1.5,-38.5 1,-37.5 2.5,-70.5 2.5,-66.5 2.5,-63 2.5,-59 2.5,-56 2.5,-53 2.5,-50 2.5,-47.5 2.5,-45 2.5,-43 2.5,-41 2.5,-39 2,-37.5 2.5,-35.5 2.5,-34 2.5,-33 2.5,-31 2.5,-30 2.5,-29 2.5,-27.5 2.5,-26.5 2.5,-26 2.5,-24.5 2.5,-24 2.5,-23 2,-22 2.5,-21.5 2.5,-20.5 2.5,-20 2.5,-19.5 2.5,-18.5 2.5,-18 2.5,-17.5 2.5,-17 2.5,-16.5 2.5,-16 2.5,-15.5 2.5,-15.5 2.5,-14.5 2,-14 2.5,-14 2.5,-13.5 2.5,-13 2.5,-13 2.5,-12.5 2.5,-12 2.5,-11.5 2.5,-11.5 2.5,-11.5 2.5,-11 2.5,-10.5 2.5,-10.5 2,-10 2.5,-10 2.5,-9.5 2.5,-9.5 5,-18.5 5,-17.5 5,-16.5 5,-16 4.5,-15.5 5,-15 5,-14 5,-13.5 5,-13.5 5,-12.5 5,-12 4.5,-12 5,-11 5,-11 5,-10.5 5,-10.5 5,-9.5 5,-9.5 4.5,-9.5 5,-9 5,-8.5 5,-8.5 5,-8 5,-8 5,-7.5 4.5,-7.5 5,-7.5 5,-7 5,-6.5 5,-7" />
        <path
           inkscape:connector-curvature="0"
           id="path3850"
           style="fill:none;stroke:#0000ff;stroke-width:2.5;stroke-linecap:butt;stroke-linejoin:miter;stroke-miterlimit:3.79999995;stroke-dasharray:none;stroke-opacity:1"
           d="m 917.5,867.5 5,-6.5 4.5,-6 5,-6.5 5,-6 5,-5.5 5,-6 5,-5.5 5,-5.5 4.5,-5 5,-5 5,-5.5 5,-4.5 5,-5 5,-4.5 5,-5 4.5,-4 5,-4.5 5,-4.5 5,-4 5,-4 5,-4 5,-4 4.5,-4 5,-4 5,-3.5 5,-3.5 5,-3.5 5,-3.5 4.5,-3.5 5,-3.5 5,-3 5,-3.5 5,-3 5,-3 5,-3 4.5,-3 5,-3 5,-3 5,-3 5,-2.5 5,-3 5,-2.5 4.5,-2.5 5,-3 5,-2.5 5,-2.5 5,-2.5 5,-2.5 4.5,-2 5,-2.5 10,-4.5 10,-4.5 9.5,-4.5 10,-4 10,-4 10,-4 9.5,-4 10,-3.5 10,-3.5 9.5,-3.5 10,-3.5 10,-3.5 9.5,-3 10,-3 10,-3.5 10,-2.5 9.5,-3 10,-3 10,-2.5 9.5,-3 10,-2.5 10,-2.5 10,-2.5 9.5,-2.5 10,-2.5 10,-2.5 9.5,-2 10,-2.5 10,-2 9.5,-2 10,-2 10,-2.5 10,-2 9.5,-1.5 10,-2 10,-2 9.5,-2 10,-1.5 10,-2 9.5,-1.5 10,-2 10,-1.5 10,-1.5 9.5,-2 10,-1.5 10,-1.5 9.5,-1.5 10,-1.5 10,-1.5 9.5,-1.5 10,-1 10,-1.5 10,-1.5 9.5,-1.5" />
        <path
           inkscape:connector-curvature="0"
           id="path3852"
           style="fill:none;stroke:#0000ff;stroke-width:2.5;stroke-linecap:butt;stroke-linejoin:miter;stroke-miterlimit:3.79999995;stroke-dasharray:none;stroke-opacity:1"
           d="m 1695.5,537.5 10,-1 10,-1.5 9.5,-1 10,-1.5 10,-1 10,-1.5 9.5,-1 10,-1 10,-1.5 9.5,-1 10,-1 10,-1 9.5,-1.5 10,-1 10,-1 10,-1 9.5,-1 10,-1 10,-1 9.5,-1 10,-1 10,-1 9.5,-1 10,-0.5 10,-1 10,-1 9.5,-1 10,-0.5 10,-1 9.5,-1 10,-1 10,-0.5 9.5,-1 10,-0.5 10,-1 10,-1 9.5,-0.5 10,-1 10,-0.5 9.5,-1 10,-0.5 10,-0.5 9.5,-1 10,-0.5 10,-1 10,-0.5 9.5,-0.5 10,-1 10,-0.5 9.5,-0.5 10,-1 10,-0.5 10,-0.5 9.5,-0.5 10,-1 10,-0.5 9.5,-0.5 10,-0.5 10,-0.5 9.5,-1 10,-0.5 10,-0.5 10,-0.5 9.5,-0.5 10,-0.5 10,-0.5 19.5,-1 19.5,-1 20,-1 19.5,-1 20,-1 19.5,-1 19.5,-1 20,-1 19.5,-1 20,-1 19.5,-0.5 20,-1 19.5,-1 19.5,-0.5 20,-1 19.5,-1 20,-0.5 19.5,-1 19.5,-0.5 20,-1 19.5,-0.5 20,-0.5 19.5,-1 19.5,-0.5 20,-0.5 19.5,-1 20,-0.5 19.5,-0.5 19.5,-1 20,-0.5 19.5,-0.5 20,-0.5 19.5,-0.5 19.5,-1 20,-0.5 19.5,-0.5 20,-0.5 19.5,-0.5" />
        <path
           inkscape:connector-curvature="0"
           id="path3854"
           style="fill:none;stroke:#0000ff;stroke-width:2.5;stroke-linecap:butt;stroke-linejoin:miter;stroke-miterlimit:3.79999995;stroke-dasharray:none;stroke-opacity:1"
           d="m 3094.5,453 19.5,-0.5 20,-0.5 19.5,-0.5 20,-0.5 19.5,-0.5 19.5,-0.5 20,-0.5 19.5,-0.5 20,-0.5 19.5,-0.5 20,-0.5 19.5,-0.5 19.5,-0.5 h 20 l 19.5,-0.5 20,-0.5 19.5,-0.5 19.5,-0.5 20,-0.5 h 19.5 l 20,-0.5 19.5,-0.5 19.5,-0.5 20,-0.5 h 19.5 l 20,-0.5 19.5,-0.5 19.5,-0.5 h 20 l 19.5,-0.5 20,-0.5 h 19.5 l 19.5,-0.5 20,-0.5 h 19.5 l 20,-0.5 19.5,-0.5 h 19.5 l 20,-0.5 19.5,-0.5 h 20 L 3922,436 h 19.5 l 20,-0.5 19.5,-0.5 h 20 l 19.5,-0.5 h 20 l 19.5,-0.5 19.5,-0.5 h 20 L 4119,433 h 20 l 19.5,-0.5 h 19.5 l 20,-0.5 h 19.5 l 20,-0.5 h 19.5 l 19.5,-0.5 h 20 l 19.5,-0.5 h 20 l 19.5,-0.5 h 19.5 l 20,-0.5 h 19.5 l 20,-0.5 h 19.5 l 19.5,-0.5 h 39.5 l 20,-0.5 h 19.5 l 19.5,-0.5 h 20 l 19.5,-0.5 h 39.5 l 19.5,-0.5 h 20 L 4710,426 h 39.5 l 19.5,-0.5 h 20 l 19.5,-0.5 h 39.5 l 20,-0.5 h 39 l 20,-0.5 h 19.5 l 20,-0.5 h 39 l 20,-0.5 h 39.5 l 19.5,-0.5 h 39.5 l 19.5,-0.5" />
        <path
           inkscape:connector-curvature="0"
           id="path3856"
           style="fill:none;stroke:#0000ff;stroke-width:2.5;stroke-linecap:butt;stroke-linejoin:miter;stroke-miterlimit:3.79999995;stroke-dasharray:none;stroke-opacity:1"
           d="M 5143.5,422 H 5183" />
        <g
           transform="scale(10)"
           id="g3858">
          <text
             id="text3862"
             style="font-variant:normal;font-weight:normal;font-size:12px;font-family:Helvetica;-inkscape-font-specification:Helvetica;writing-mode:lr-tb;fill:#000000;fill-opacity:1;fill-rule:nonzero;stroke:none"
             transform="matrix(1,0,0,-1,432.747,338.4)">
            <tspan
               id="tspan3860"
               sodipodi:role="line"
               y="0"
               x="0 3.9960001 10.668 17.34 20.004 22.667999 26.004">reality</tspan>
          </text>
        </g>
        <path
           inkscape:connector-curvature="0"
           id="path3864"
           style="fill:none;stroke:#ff0000;stroke-width:2.5;stroke-linecap:butt;stroke-linejoin:miter;stroke-miterlimit:3.79999995;stroke-dasharray:none;stroke-opacity:1"
           d="M 4719.5,3424 H 5039 M 612,3111.5 631.5,1748 H 671 l 20,-682 h 120.5 l 1,-341 H 1069 l 1,-170.5 h 512.5 l 1,-85.5 h 526" />
        <path
           inkscape:connector-curvature="0"
           id="path3866"
           style="fill:none;stroke:#ff0000;stroke-width:2.5;stroke-linecap:butt;stroke-linejoin:miter;stroke-miterlimit:3.79999995;stroke-dasharray:none;stroke-opacity:1"
           d="M 2109.5,469 H 2612 l 1,-42.5 h 2055.5 l 1,-21 h 21" />
        <path
           inkscape:connector-curvature="0"
           id="path3868"
           style="fill:none;stroke:#ff0000;stroke-width:2.5;stroke-linecap:butt;stroke-linejoin:miter;stroke-miterlimit:3.79999995;stroke-dasharray:none;stroke-opacity:1"
           d="M 4690.5,405.5 H 5183" />
        <path
           inkscape:connector-curvature="0"
           id="path3870"
           style="fill:none;stroke:#000000;stroke-width:5;stroke-linecap:butt;stroke-linejoin:miter;stroke-miterlimit:3.79999995;stroke-dasharray:none;stroke-opacity:1"
           d="M 612,384 H 5183 V 3635.5 H 612 Z" />
      </g>
    </g>
  </g>
</svg>
